<?xml version="1.0" encoding="UTF-8" standalone="no"?>
<!DOCTYPE svg PUBLIC "-//W3C//DTD SVG 1.1//EN"
 "http://www.w3.org/Graphics/SVG/1.1/DTD/svg11.dtd">
<!-- Generated by graphviz version 7.0.5 (20221231.0122)
 -->
<!-- Title: VizNet_backward Pages: 1 -->
<svg width="785pt" height="864pt"
 viewBox="0.00 0.00 785.48 863.73" xmlns="http://www.w3.org/2000/svg" xmlns:xlink="http://www.w3.org/1999/xlink">
<g id="graph0" class="graph" transform="scale(1 1) rotate(0) translate(4 859.73)">
<title>VizNet_backward</title>
<polygon fill="white" stroke="none" points="-4,4 -4,-859.73 781.48,-859.73 781.48,4 -4,4"/>
<text text-anchor="start" x="8" y="-841.53" font-family="Times,serif" font-weight="bold" font-size="14.00">VizNet backward graph</text>
<text text-anchor="start" x="8" y="-827.53" font-family="Times,serif" font-size="14.00">13 grad_fn_handle nodes</text>
<text text-anchor="start" x="8" y="-813.53" font-family="Times,serif" font-size="14.00">1 backward pass(es)</text>
<!-- grad_fn_140110887512256 -->
<g id="node1" class="node">
<title>grad_fn_140110887512256</title>
<ellipse fill="#f2f3ff" stroke="#9197f6" stroke-width="1.8" cx="388.76" cy="-773.2" rx="91.43" ry="32.55"/>
<text text-anchor="start" x="334.76" y="-780" font-family="Times,serif" font-weight="bold" font-size="14.00">[i] clone_back_1_1</text>
<text text-anchor="start" x="363.26" y="-760" font-family="Times,serif" font-size="14.00">grad N/A</text>
</g>
<!-- grad_fn_140111096446160 -->
<g id="node2" class="node">
<title>grad_fn_140111096446160</title>
<ellipse fill="#f2f3ff" stroke="#9197f6" stroke-width="1.8" cx="388.76" cy="-658.71" rx="75.82" ry="45.92"/>
<text text-anchor="start" x="345.76" y="-674.51" font-family="Times,serif" font-weight="bold" font-size="14.00">sum_back_1_4</text>
<text text-anchor="start" x="358.76" y="-654.51" font-family="Times,serif" font-size="14.00">@output_1</text>
<text text-anchor="start" x="370.76" y="-635.51" font-family="Times,serif" font-size="14.00">grad ()</text>
</g>
<!-- grad_fn_140110887512256&#45;&gt;grad_fn_140111096446160 -->
<g id="edge1" class="edge">
<title>grad_fn_140110887512256&#45;&gt;grad_fn_140111096446160</title>
<path fill="none" stroke="#9197f6" d="M388.76,-740.27C388.76,-732.67 388.76,-724.35 388.76,-716.03"/>
<polygon fill="#9197f6" stroke="#9197f6" points="392.26,-716.25 388.76,-706.25 385.26,-716.25 392.26,-716.25"/>
</g>
<!-- grad_fn_140111096446304 -->
<g id="node3" class="node">
<title>grad_fn_140111096446304</title>
<ellipse fill="#f2f3ff" stroke="#9197f6" stroke-width="1.8" cx="388.76" cy="-530.79" rx="90.52" ry="45.92"/>
<text text-anchor="start" x="334.76" y="-546.59" font-family="Times,serif" font-weight="bold" font-size="14.00">addmm_back_2_3</text>
<text text-anchor="start" x="353.26" y="-526.59" font-family="Times,serif" font-size="14.00">@linear_2_3</text>
<text text-anchor="start" x="359.76" y="-507.59" font-family="Times,serif" font-size="14.00">grad (2, 1)</text>
</g>
<!-- grad_fn_140111096446160&#45;&gt;grad_fn_140111096446304 -->
<g id="edge2" class="edge">
<title>grad_fn_140111096446160&#45;&gt;grad_fn_140111096446304</title>
<path fill="none" stroke="#9197f6" d="M388.76,-612.61C388.76,-604.74 388.76,-596.47 388.76,-588.34"/>
<polygon fill="#9197f6" stroke="#9197f6" points="392.26,-588.51 388.76,-578.52 385.26,-588.52 392.26,-588.51"/>
</g>
<!-- grad_fn_140110887514272 -->
<g id="node4" class="node">
<title>grad_fn_140110887514272</title>
<ellipse fill="#f2f3ff" stroke="#9197f6" stroke-width="1.8" cx="160.76" cy="-402.86" rx="135.53" ry="32.55"/>
<text text-anchor="start" x="74.76" y="-409.66" font-family="Times,serif" font-weight="bold" font-size="14.00">[i] accumulategrad_back_1_4</text>
<text text-anchor="start" x="134.76" y="-389.66" font-family="Times,serif" font-size="14.00">grad N/A</text>
</g>
<!-- grad_fn_140111096446304&#45;&gt;grad_fn_140110887514272 -->
<g id="edge3" class="edge">
<title>grad_fn_140111096446304&#45;&gt;grad_fn_140110887514272</title>
<path fill="none" stroke="#9197f6" d="M328.26,-496.37C295.98,-478.54 256.3,-456.63 223.66,-438.6"/>
<polygon fill="#9197f6" stroke="#9197f6" points="225.55,-435.65 215.1,-433.87 222.16,-441.77 225.55,-435.65"/>
</g>
<!-- grad_fn_140111096443664 -->
<g id="node5" class="node">
<title>grad_fn_140111096443664</title>
<ellipse fill="#f2f3ff" stroke="#9197f6" stroke-width="1.8" cx="388.76" cy="-402.86" rx="74.49" ry="45.92"/>
<text text-anchor="start" x="346.76" y="-418.66" font-family="Times,serif" font-weight="bold" font-size="14.00">relu_back_1_2</text>
<text text-anchor="start" x="358.76" y="-398.66" font-family="Times,serif" font-size="14.00">@relu_1_2</text>
<text text-anchor="start" x="360.26" y="-379.66" font-family="Times,serif" font-size="14.00">grad (2, 5)</text>
</g>
<!-- grad_fn_140111096446304&#45;&gt;grad_fn_140111096443664 -->
<g id="edge4" class="edge">
<title>grad_fn_140111096446304&#45;&gt;grad_fn_140111096443664</title>
<path fill="none" stroke="#9197f6" d="M388.76,-484.68C388.76,-476.82 388.76,-468.54 388.76,-460.42"/>
<polygon fill="#9197f6" stroke="#9197f6" points="392.26,-460.59 388.76,-450.59 385.26,-460.59 392.26,-460.59"/>
</g>
<!-- grad_fn_140110887510432 -->
<g id="node6" class="node">
<title>grad_fn_140110887510432</title>
<ellipse fill="#f2f3ff" stroke="#9197f6" stroke-width="1.8" cx="592.76" cy="-402.86" rx="72.66" ry="32.55"/>
<text text-anchor="start" x="551.76" y="-409.66" font-family="Times,serif" font-weight="bold" font-size="14.00">[i] t_back_1_6</text>
<text text-anchor="start" x="567.26" y="-389.66" font-family="Times,serif" font-size="14.00">grad N/A</text>
</g>
<!-- grad_fn_140111096446304&#45;&gt;grad_fn_140110887510432 -->
<g id="edge5" class="edge">
<title>grad_fn_140111096446304&#45;&gt;grad_fn_140110887510432</title>
<path fill="none" stroke="#9197f6" d="M445.59,-494.71C475.57,-476.21 512.06,-453.68 541.21,-435.68"/>
<polygon fill="#9197f6" stroke="#9197f6" points="542.84,-438.79 549.51,-430.56 539.16,-432.84 542.84,-438.79"/>
</g>
<!-- grad_fn_140111096444864 -->
<g id="node7" class="node">
<title>grad_fn_140111096444864</title>
<ellipse fill="#f2f3ff" stroke="#9197f6" stroke-width="1.8" cx="368.76" cy="-274.94" rx="90.52" ry="45.92"/>
<text text-anchor="start" x="314.76" y="-290.74" font-family="Times,serif" font-weight="bold" font-size="14.00">addmm_back_1_1</text>
<text text-anchor="start" x="333.26" y="-270.74" font-family="Times,serif" font-size="14.00">@linear_1_1</text>
<text text-anchor="start" x="339.76" y="-251.74" font-family="Times,serif" font-size="14.00">grad (2, 5)</text>
</g>
<!-- grad_fn_140111096443664&#45;&gt;grad_fn_140111096444864 -->
<g id="edge6" class="edge">
<title>grad_fn_140111096443664&#45;&gt;grad_fn_140111096444864</title>
<path fill="none" stroke="#9197f6" d="M381.6,-356.76C380.35,-348.89 379.04,-340.62 377.75,-332.49"/>
<polygon fill="#9197f6" stroke="#9197f6" points="381.21,-331.98 376.18,-322.65 374.3,-333.07 381.21,-331.98"/>
</g>
<!-- grad_fn_140110887514416 -->
<g id="node8" class="node">
<title>grad_fn_140110887514416</title>
<ellipse fill="#f2f3ff" stroke="#9197f6" stroke-width="1.8" cx="612.76" cy="-274.94" rx="135.53" ry="32.55"/>
<text text-anchor="start" x="526.76" y="-281.74" font-family="Times,serif" font-weight="bold" font-size="14.00">[i] accumulategrad_back_2_8</text>
<text text-anchor="start" x="586.76" y="-261.74" font-family="Times,serif" font-size="14.00">grad N/A</text>
</g>
<!-- grad_fn_140110887510432&#45;&gt;grad_fn_140110887514416 -->
<g id="edge7" class="edge">
<title>grad_fn_140110887510432&#45;&gt;grad_fn_140110887514416</title>
<path fill="none" stroke="#9197f6" d="M597.81,-370.09C600.27,-354.58 603.27,-335.69 605.94,-318.91"/>
<polygon fill="#9197f6" stroke="#9197f6" points="609.37,-319.63 607.48,-309.2 602.46,-318.53 609.37,-319.63"/>
</g>
<!-- grad_fn_140110887505248 -->
<g id="node9" class="node">
<title>grad_fn_140110887505248</title>
<ellipse fill="#f2f3ff" stroke="#9197f6" stroke-width="1.8" cx="135.76" cy="-147.02" rx="135.53" ry="32.55"/>
<text text-anchor="start" x="49.76" y="-153.82" font-family="Times,serif" font-weight="bold" font-size="14.00">[i] accumulategrad_back_3_9</text>
<text text-anchor="start" x="109.76" y="-133.82" font-family="Times,serif" font-size="14.00">grad N/A</text>
</g>
<!-- grad_fn_140111096444864&#45;&gt;grad_fn_140110887505248 -->
<g id="edge8" class="edge">
<title>grad_fn_140111096444864&#45;&gt;grad_fn_140110887505248</title>
<path fill="none" stroke="#9197f6" d="M307.55,-240.85C274.29,-222.88 233.21,-200.68 199.56,-182.49"/>
<polygon fill="#9197f6" stroke="#9197f6" points="201.62,-179.63 191.16,-177.95 198.29,-185.79 201.62,-179.63"/>
</g>
<!-- grad_fn_140111096445440 -->
<g id="node10" class="node">
<title>grad_fn_140111096445440</title>
<ellipse fill="#f2f3ff" stroke="#9197f6" stroke-width="1.8" cx="368.76" cy="-147.02" rx="79.39" ry="45.92"/>
<text text-anchor="start" x="322.76" y="-162.82" font-family="Times,serif" font-weight="bold" font-size="14.00">clone_back_1_0</text>
<text text-anchor="start" x="341.26" y="-142.82" font-family="Times,serif" font-size="14.00">@input_1</text>
<text text-anchor="start" x="339.76" y="-123.82" font-family="Times,serif" font-size="14.00">grad (2, 4)</text>
</g>
<!-- grad_fn_140111096444864&#45;&gt;grad_fn_140111096445440 -->
<g id="edge9" class="edge">
<title>grad_fn_140111096444864&#45;&gt;grad_fn_140111096445440</title>
<path fill="none" stroke="#9197f6" d="M368.76,-228.83C368.76,-220.97 368.76,-212.7 368.76,-204.57"/>
<polygon fill="#9197f6" stroke="#9197f6" points="372.26,-204.74 368.76,-194.74 365.26,-204.74 372.26,-204.74"/>
</g>
<!-- grad_fn_140110887517056 -->
<g id="node11" class="node">
<title>grad_fn_140110887517056</title>
<ellipse fill="#f2f3ff" stroke="#9197f6" stroke-width="1.8" cx="605.76" cy="-147.02" rx="77.56" ry="32.55"/>
<text text-anchor="start" x="560.76" y="-153.82" font-family="Times,serif" font-weight="bold" font-size="14.00">[i] t_back_2_11</text>
<text text-anchor="start" x="579.76" y="-133.82" font-family="Times,serif" font-size="14.00">grad N/A</text>
</g>
<!-- grad_fn_140111096444864&#45;&gt;grad_fn_140110887517056 -->
<g id="edge10" class="edge">
<title>grad_fn_140111096444864&#45;&gt;grad_fn_140110887517056</title>
<path fill="none" stroke="#9197f6" d="M430.72,-241.02C467.2,-221.64 513.02,-197.29 548.63,-178.37"/>
<polygon fill="#9197f6" stroke="#9197f6" points="549.86,-181.68 557.05,-173.9 546.58,-175.5 549.86,-181.68"/>
</g>
<!-- grad_fn_140110887517632 -->
<g id="node12" class="node">
<title>grad_fn_140110887517632</title>
<ellipse fill="#f2f3ff" stroke="#9197f6" stroke-width="1.8" cx="337.76" cy="-32.53" rx="140.93" ry="32.55"/>
<text text-anchor="start" x="248.76" y="-39.33" font-family="Times,serif" font-weight="bold" font-size="14.00">[i] accumulategrad_back_4_12</text>
<text text-anchor="start" x="312.26" y="-19.33" font-family="Times,serif" font-size="14.00">grad N/A</text>
</g>
<!-- grad_fn_140111096445440&#45;&gt;grad_fn_140110887517632 -->
<g id="edge11" class="edge">
<title>grad_fn_140111096445440&#45;&gt;grad_fn_140110887517632</title>
<path fill="none" stroke="#9197f6" d="M356.42,-101.23C354.15,-92.98 351.78,-84.38 349.52,-76.19"/>
<polygon fill="#9197f6" stroke="#9197f6" points="352.97,-75.51 346.93,-66.8 346.22,-77.37 352.97,-75.51"/>
</g>
<!-- grad_fn_140110887514512 -->
<g id="node13" class="node">
<title>grad_fn_140110887514512</title>
<ellipse fill="#f2f3ff" stroke="#9197f6" stroke-width="1.8" cx="636.76" cy="-32.53" rx="140.93" ry="32.55"/>
<text text-anchor="start" x="547.76" y="-39.33" font-family="Times,serif" font-weight="bold" font-size="14.00">[i] accumulategrad_back_5_13</text>
<text text-anchor="start" x="611.26" y="-19.33" font-family="Times,serif" font-size="14.00">grad N/A</text>
</g>
<!-- grad_fn_140110887517056&#45;&gt;grad_fn_140110887514512 -->
<g id="edge12" class="edge">
<title>grad_fn_140110887517056&#45;&gt;grad_fn_140110887514512</title>
<path fill="none" stroke="#9197f6" d="M614.48,-114.38C617.75,-102.52 621.52,-88.84 625.02,-76.15"/>
<polygon fill="#9197f6" stroke="#9197f6" points="628.32,-77.34 627.6,-66.77 621.57,-75.48 628.32,-77.34"/>
</g>
</g>
</svg>
