<?xml version="1.0" encoding="UTF-8" standalone="no"?>
<!DOCTYPE svg PUBLIC "-//W3C//DTD SVG 1.1//EN"
 "http://www.w3.org/Graphics/SVG/1.1/DTD/svg11.dtd">
<!-- Generated by graphviz version 7.0.5 (20221231.0122)
 -->
<!-- Title: VizNet_combined Pages: 1 -->
<svg width="1876pt" height="587pt"
 viewBox="0.00 0.00 1876.09 586.53" xmlns="http://www.w3.org/2000/svg" xmlns:xlink="http://www.w3.org/1999/xlink">
<g id="graph0" class="graph" transform="scale(1 1) rotate(0) translate(4 582.53)">
<title>VizNet_combined</title>
<polygon fill="white" stroke="none" points="-4,4 -4,-582.53 1872.09,-582.53 1872.09,4 -4,4"/>
<text text-anchor="start" x="8" y="-564.33" font-family="Times,serif" font-weight="bold" font-size="14.00">VizNet combined forward/backward graph</text>
<text text-anchor="start" x="8" y="-550.33" font-family="Times,serif" font-size="14.00">6 forward nodes, 13 grad_fn_handle nodes</text>
<text text-anchor="start" x="8" y="-536.33" font-family="Times,serif" font-size="14.00">1 backward pass(es)</text>
<g id="clust3" class="cluster">
<title>cluster_head_pass1</title>
<polygon fill="white" stroke="black" stroke-width="5" points="299.81,-25.53 299.81,-252.53 498.25,-252.53 498.25,-25.53 299.81,-25.53"/>
<text text-anchor="start" x="307.81" y="-47.33" font-family="Times,serif" font-weight="bold" font-size="14.00">@head</text>
<text text-anchor="start" x="307.81" y="-33.33" font-family="Times,serif" font-size="14.00">(Linear)</text>
</g>
<g id="clust2" class="cluster">
<title>cluster_encoder_pass1</title>
<polygon fill="white" stroke="black" stroke-width="5" points="556.51,-156.53 556.51,-520.53 1076.05,-520.53 1076.05,-156.53 556.51,-156.53"/>
<text text-anchor="start" x="564.51" y="-178.33" font-family="Times,serif" font-weight="bold" font-size="14.00">@encoder</text>
<text text-anchor="start" x="564.51" y="-164.33" font-family="Times,serif" font-size="14.00">(Sequential)</text>
</g>
<g id="clust5" class="cluster">
<title>cluster_encoder.1_pass1</title>
<polygon fill="white" stroke="black" stroke-width="2" points="579.77,-200.53 579.77,-344.53 744.26,-344.53 744.26,-200.53 579.77,-200.53"/>
<text text-anchor="start" x="587.77" y="-222.33" font-family="Times,serif" font-weight="bold" font-size="14.00">@encoder.1</text>
<text text-anchor="start" x="587.77" y="-208.33" font-family="Times,serif" font-size="14.00">(ReLU)</text>
</g>
<g id="clust4" class="cluster">
<title>cluster_encoder.0_pass1</title>
<polygon fill="white" stroke="black" stroke-width="2" points="871.03,-200.53 871.03,-344.53 1068.05,-344.53 1068.05,-200.53 871.03,-200.53"/>
<text text-anchor="start" x="879.03" y="-222.33" font-family="Times,serif" font-weight="bold" font-size="14.00">@encoder.0</text>
<text text-anchor="start" x="879.03" y="-208.33" font-family="Times,serif" font-size="14.00">(Linear)</text>
</g>
<!-- input_1pass1 -->
<g id="node1" class="node">
<title>input_1pass1</title>
<ellipse fill="#98fb98" stroke="black" cx="399.03" cy="-460.53" rx="59.29" ry="45.92"/>
<text text-anchor="start" x="376.53" y="-476.33" font-family="Times,serif" font-weight="bold" font-size="14.00">input_1</text>
<text text-anchor="start" x="367.03" y="-456.33" font-family="Times,serif" font-size="14.00">(2, 4), 32 B</text>
<text text-anchor="start" x="373.03" y="-437.33" font-family="Times,serif" font-size="14.00">@input.x</text>
</g>
<!-- linear_1_1pass1 -->
<g id="node2" class="node">
<title>linear_1_1pass1</title>
<polygon fill="#d9d9d9" stroke="black" points="759.51,-512.03 564.51,-512.03 564.51,-409.03 759.51,-409.03 759.51,-512.03"/>
<text text-anchor="start" x="632.01" y="-495.33" font-family="Times,serif" font-weight="bold" font-size="14.00">linear_1_1</text>
<text text-anchor="start" x="630.51" y="-475.33" font-family="Times,serif" font-size="14.00">(2, 5), 40 B</text>
<text text-anchor="start" x="580.01" y="-456.33" font-family="Times,serif" font-size="14.00">in_features=4, out_features=5</text>
<text text-anchor="start" x="575.01" y="-437.33" font-family="Times,serif" font-size="14.00">params: weight (5, 4) · bias (5,)</text>
<text text-anchor="start" x="629.51" y="-418.33" font-family="Times,serif" font-size="14.00">@encoder.0</text>
</g>
<!-- input_1pass1&#45;&gt;linear_1_1pass1 -->
<g id="edge1" class="edge">
<title>input_1pass1&#45;&gt;linear_1_1pass1</title>
<path fill="none" stroke="black" d="M458.6,-460.53C487.28,-460.53 522.7,-460.53 555.85,-460.53"/>
<polygon fill="black" stroke="black" points="555.71,-462.98 562.71,-460.53 555.71,-458.08 555.71,-462.98"/>
</g>
<!-- relu_1_2pass1 -->
<g id="node5" class="node">
<title>relu_1_2pass1</title>
<polygon fill="white" stroke="black" points="1012.54,-493.03 926.54,-493.03 926.54,-428.03 1012.54,-428.03 1012.54,-493.03"/>
<text text-anchor="start" x="944.04" y="-476.33" font-family="Times,serif" font-weight="bold" font-size="14.00">relu_1_2</text>
<text text-anchor="start" x="937.54" y="-456.33" font-family="Times,serif" font-size="14.00">(2, 5), 40 B</text>
<text text-anchor="start" x="936.54" y="-437.33" font-family="Times,serif" font-size="14.00">@encoder.1</text>
</g>
<!-- linear_1_1pass1&#45;&gt;relu_1_2pass1 -->
<g id="edge26" class="edge">
<title>linear_1_1pass1&#45;&gt;relu_1_2pass1</title>
<path fill="none" stroke="black" d="M759.68,-460.53C812.13,-460.53 874.82,-460.53 917.75,-460.53"/>
<polygon fill="black" stroke="black" points="917.54,-462.98 924.54,-460.53 917.54,-458.08 917.54,-462.98"/>
</g>
<!-- linear_1_1 -->
<g id="node3" class="node">
<title>linear_1_1</title>
<ellipse fill="none" stroke="black" cx="969.54" cy="-372.53" rx="48.19" ry="18"/>
<text text-anchor="middle" x="969.54" y="-368.83" font-family="Times,serif" font-size="14.00">linear_1_1</text>
</g>
<!-- input_1 -->
<g id="node4" class="node">
<title>input_1</title>
<ellipse fill="none" stroke="black" cx="1277.07" cy="-372.53" rx="37.89" ry="18"/>
<text text-anchor="middle" x="1277.07" y="-368.83" font-family="Times,serif" font-size="14.00">input_1</text>
</g>
<!-- linear_1_1&#45;&gt;input_1 -->
<g id="edge2" class="edge">
<title>linear_1_1&#45;&gt;input_1</title>
<path fill="none" stroke="#9197f6" d="M1017.94,-372.53C1075.98,-372.53 1173.56,-372.53 1230.66,-372.53"/>
<polygon fill="#9197f6" stroke="#9197f6" points="1230.61,-374.98 1237.61,-372.53 1230.61,-370.08 1230.61,-374.98"/>
</g>
<!-- grad_fn_140111096444864 -->
<g id="node25" class="node">
<title>grad_fn_140111096444864</title>
<ellipse fill="#f2f3ff" stroke="#9197f6" stroke-width="1.8" cx="969.54" cy="-290.53" rx="90.52" ry="45.92"/>
<text text-anchor="start" x="915.54" y="-306.33" font-family="Times,serif" font-weight="bold" font-size="14.00">addmm_back_1_1</text>
<text text-anchor="start" x="934.04" y="-286.33" font-family="Times,serif" font-size="14.00">@linear_1_1</text>
<text text-anchor="start" x="940.54" y="-267.33" font-family="Times,serif" font-size="14.00">grad (2, 5)</text>
</g>
<!-- linear_1_1&#45;&gt;grad_fn_140111096444864 -->
<g id="edge24" class="edge">
<title>linear_1_1&#45;&gt;grad_fn_140111096444864</title>
<path fill="none" stroke="#9197f6" stroke-dasharray="5,2" d="M969.54,-354.03C969.54,-350.68 969.54,-347.33 969.54,-343.98"/>
<polygon fill="#9197f6" stroke="#9197f6" points="971.64,-344.17 969.54,-338.17 967.44,-344.17 971.64,-344.17"/>
</g>
<!-- grad_fn_140111096445440 -->
<g id="node18" class="node">
<title>grad_fn_140111096445440</title>
<ellipse fill="#f2f3ff" stroke="#9197f6" stroke-width="1.8" cx="1277.07" cy="-290.53" rx="79.39" ry="45.92"/>
<text text-anchor="start" x="1231.07" y="-306.33" font-family="Times,serif" font-weight="bold" font-size="14.00">clone_back_1_0</text>
<text text-anchor="start" x="1249.57" y="-286.33" font-family="Times,serif" font-size="14.00">@input_1</text>
<text text-anchor="start" x="1248.07" y="-267.33" font-family="Times,serif" font-size="14.00">grad (2, 4)</text>
</g>
<!-- input_1&#45;&gt;grad_fn_140111096445440 -->
<g id="edge25" class="edge">
<title>input_1&#45;&gt;grad_fn_140111096445440</title>
<path fill="none" stroke="#9197f6" stroke-dasharray="5,2" d="M1277.07,-354.03C1277.07,-350.68 1277.07,-347.33 1277.07,-343.98"/>
<polygon fill="#9197f6" stroke="#9197f6" points="1279.17,-344.17 1277.07,-338.17 1274.97,-344.17 1279.17,-344.17"/>
</g>
<!-- linear_2_3pass1 -->
<g id="node6" class="node">
<title>linear_2_3pass1</title>
<polygon fill="#d9d9d9" stroke="black" points="1374.57,-512.03 1179.57,-512.03 1179.57,-409.03 1374.57,-409.03 1374.57,-512.03"/>
<text text-anchor="start" x="1247.07" y="-495.33" font-family="Times,serif" font-weight="bold" font-size="14.00">linear_2_3</text>
<text text-anchor="start" x="1248.57" y="-475.33" font-family="Times,serif" font-size="14.00">(2, 1), 8 B</text>
<text text-anchor="start" x="1195.07" y="-456.33" font-family="Times,serif" font-size="14.00">in_features=5, out_features=1</text>
<text text-anchor="start" x="1190.07" y="-437.33" font-family="Times,serif" font-size="14.00">params: weight (1, 5) · bias (1,)</text>
<text text-anchor="start" x="1258.07" y="-418.33" font-family="Times,serif" font-size="14.00">@head</text>
</g>
<!-- relu_1_2pass1&#45;&gt;linear_2_3pass1 -->
<g id="edge3" class="edge">
<title>relu_1_2pass1&#45;&gt;linear_2_3pass1</title>
<path fill="none" stroke="black" d="M1013.02,-460.53C1053.73,-460.53 1116.8,-460.53 1170.98,-460.53"/>
<polygon fill="black" stroke="black" points="1170.74,-462.98 1177.74,-460.53 1170.74,-458.08 1170.74,-462.98"/>
</g>
<!-- sum_1_4pass1 -->
<g id="node9" class="node">
<title>sum_1_4pass1</title>
<ellipse fill="white" stroke="black" cx="1589.55" cy="-460.53" rx="50.82" ry="32.55"/>
<text text-anchor="start" x="1563.55" y="-467.33" font-family="Times,serif" font-weight="bold" font-size="14.00">sum_1_4</text>
<text text-anchor="start" x="1571.05" y="-447.33" font-family="Times,serif" font-size="14.00">(), 4 B</text>
</g>
<!-- linear_2_3pass1&#45;&gt;sum_1_4pass1 -->
<g id="edge5" class="edge">
<title>linear_2_3pass1&#45;&gt;sum_1_4pass1</title>
<path fill="none" stroke="black" d="M1375.03,-460.53C1425.74,-460.53 1486.15,-460.53 1529.76,-460.53"/>
<polygon fill="black" stroke="black" points="1529.73,-462.98 1536.73,-460.53 1529.73,-458.08 1529.73,-462.98"/>
</g>
<!-- linear_2_3 -->
<g id="node7" class="node">
<title>linear_2_3</title>
<ellipse fill="none" stroke="black" cx="399.03" cy="-372.53" rx="48.19" ry="18"/>
<text text-anchor="middle" x="399.03" y="-368.83" font-family="Times,serif" font-size="14.00">linear_2_3</text>
</g>
<!-- relu_1_2 -->
<g id="node8" class="node">
<title>relu_1_2</title>
<ellipse fill="none" stroke="black" cx="662.01" cy="-372.53" rx="42.49" ry="18"/>
<text text-anchor="middle" x="662.01" y="-368.83" font-family="Times,serif" font-size="14.00">relu_1_2</text>
</g>
<!-- linear_2_3&#45;&gt;relu_1_2 -->
<g id="edge4" class="edge">
<title>linear_2_3&#45;&gt;relu_1_2</title>
<path fill="none" stroke="#9197f6" d="M447.59,-372.53C493.92,-372.53 564.05,-372.53 611.14,-372.53"/>
<polygon fill="#9197f6" stroke="#9197f6" points="610.85,-374.98 617.85,-372.53 610.85,-370.08 610.85,-374.98"/>
</g>
<!-- grad_fn_140111096446304 -->
<g id="node23" class="node">
<title>grad_fn_140111096446304</title>
<ellipse fill="#f2f3ff" stroke="#9197f6" stroke-width="1.8" cx="399.03" cy="-115.53" rx="90.52" ry="45.92"/>
<text text-anchor="start" x="345.03" y="-131.33" font-family="Times,serif" font-weight="bold" font-size="14.00">addmm_back_2_3</text>
<text text-anchor="start" x="363.53" y="-111.33" font-family="Times,serif" font-size="14.00">@linear_2_3</text>
<text text-anchor="start" x="370.03" y="-92.33" font-family="Times,serif" font-size="14.00">grad (2, 1)</text>
</g>
<!-- linear_2_3&#45;&gt;grad_fn_140111096446304 -->
<g id="edge22" class="edge">
<title>linear_2_3&#45;&gt;grad_fn_140111096446304</title>
<path fill="none" stroke="#9197f6" stroke-dasharray="5,2" d="M376.79,-356.53C349.33,-335.26 304.04,-294.79 285.81,-247.53 274.78,-218.91 271.12,-205.44 285.81,-178.53 293.24,-164.92 304.88,-154.07 317.93,-145.48"/>
<polygon fill="#9197f6" stroke="#9197f6" points="318.74,-147.45 322.72,-142.49 316.52,-143.88 318.74,-147.45"/>
</g>
<!-- relu_1_2&#45;&gt;linear_1_1 -->
<g id="edge27" class="edge">
<title>relu_1_2&#45;&gt;linear_1_1</title>
<path fill="none" stroke="#9197f6" d="M704.85,-372.53C758.78,-372.53 852.73,-372.53 912.7,-372.53"/>
<polygon fill="#9197f6" stroke="#9197f6" points="912.42,-374.98 919.42,-372.53 912.42,-370.08 912.42,-374.98"/>
</g>
<!-- grad_fn_140111096443664 -->
<g id="node24" class="node">
<title>grad_fn_140111096443664</title>
<ellipse fill="#f2f3ff" stroke="#9197f6" stroke-width="1.8" cx="662.01" cy="-290.53" rx="74.49" ry="45.92"/>
<text text-anchor="start" x="620.01" y="-306.33" font-family="Times,serif" font-weight="bold" font-size="14.00">relu_back_1_2</text>
<text text-anchor="start" x="632.01" y="-286.33" font-family="Times,serif" font-size="14.00">@relu_1_2</text>
<text text-anchor="start" x="633.51" y="-267.33" font-family="Times,serif" font-size="14.00">grad (2, 5)</text>
</g>
<!-- relu_1_2&#45;&gt;grad_fn_140111096443664 -->
<g id="edge23" class="edge">
<title>relu_1_2&#45;&gt;grad_fn_140111096443664</title>
<path fill="none" stroke="#9197f6" stroke-dasharray="5,2" d="M662.01,-354.03C662.01,-350.68 662.01,-347.33 662.01,-343.98"/>
<polygon fill="#9197f6" stroke="#9197f6" points="664.11,-344.17 662.01,-338.17 659.91,-344.17 664.11,-344.17"/>
</g>
<!-- output_1pass1 -->
<g id="node11" class="node">
<title>output_1pass1</title>
<ellipse fill="#ff9999" stroke="black" cx="1817.17" cy="-460.53" rx="50.82" ry="45.92"/>
<text text-anchor="start" x="1791.17" y="-476.33" font-family="Times,serif" font-weight="bold" font-size="14.00">output_1</text>
<text text-anchor="start" x="1798.67" y="-456.33" font-family="Times,serif" font-size="14.00">(), 4 B</text>
<text text-anchor="start" x="1793.17" y="-437.33" font-family="Times,serif" font-size="14.00">@output</text>
</g>
<!-- sum_1_4pass1&#45;&gt;output_1pass1 -->
<g id="edge7" class="edge">
<title>sum_1_4pass1&#45;&gt;output_1pass1</title>
<path fill="none" stroke="black" d="M1640.62,-460.53C1675.38,-460.53 1721.8,-460.53 1758.17,-460.53"/>
<polygon fill="black" stroke="black" points="1757.73,-462.98 1764.73,-460.53 1757.73,-458.08 1757.73,-462.98"/>
</g>
<!-- sum_1_4 -->
<g id="node10" class="node">
<title>sum_1_4</title>
<ellipse fill="none" stroke="black" cx="196.15" cy="-372.53" rx="43.59" ry="18"/>
<text text-anchor="middle" x="196.15" y="-368.83" font-family="Times,serif" font-size="14.00">sum_1_4</text>
</g>
<!-- sum_1_4&#45;&gt;linear_2_3 -->
<g id="edge6" class="edge">
<title>sum_1_4&#45;&gt;linear_2_3</title>
<path fill="none" stroke="#9197f6" d="M239.75,-372.53C269.57,-372.53 309.69,-372.53 342.08,-372.53"/>
<polygon fill="#9197f6" stroke="#9197f6" points="342.05,-374.98 349.05,-372.53 342.05,-370.08 342.05,-374.98"/>
</g>
<!-- output_1 -->
<g id="node12" class="node">
<title>output_1</title>
<ellipse fill="none" stroke="black" cx="42.25" cy="-372.53" rx="42.49" ry="18"/>
<text text-anchor="middle" x="42.25" y="-368.83" font-family="Times,serif" font-size="14.00">output_1</text>
</g>
<!-- output_1&#45;&gt;sum_1_4 -->
<g id="edge8" class="edge">
<title>output_1&#45;&gt;sum_1_4</title>
<path fill="none" stroke="#9197f6" d="M85.16,-372.53C103.36,-372.53 124.86,-372.53 144,-372.53"/>
<polygon fill="#9197f6" stroke="#9197f6" points="143.81,-374.98 150.81,-372.53 143.81,-370.08 143.81,-374.98"/>
</g>
<!-- grad_fn_140111096446160 -->
<g id="node13" class="node">
<title>grad_fn_140111096446160</title>
<ellipse fill="#f2f3ff" stroke="#9197f6" stroke-width="1.8" cx="196.15" cy="-163.53" rx="75.82" ry="45.92"/>
<text text-anchor="start" x="153.15" y="-179.33" font-family="Times,serif" font-weight="bold" font-size="14.00">sum_back_1_4</text>
<text text-anchor="start" x="166.15" y="-159.33" font-family="Times,serif" font-size="14.00">@output_1</text>
<text text-anchor="start" x="178.15" y="-140.33" font-family="Times,serif" font-size="14.00">grad ()</text>
</g>
<!-- output_1&#45;&gt;grad_fn_140111096446160 -->
<g id="edge21" class="edge">
<title>output_1&#45;&gt;grad_fn_140111096446160</title>
<path fill="none" stroke="#9197f6" stroke-dasharray="5,2" d="M55.94,-355.07C78.66,-323.8 127.03,-257.25 160.32,-211.45"/>
<polygon fill="#9197f6" stroke="#9197f6" points="161.99,-212.72 163.82,-206.64 158.59,-210.26 161.99,-212.72"/>
</g>
<!-- grad_fn_140111096446160&#45;&gt;grad_fn_140111096446304 -->
<g id="edge10" class="edge">
<title>grad_fn_140111096446160&#45;&gt;grad_fn_140111096446304</title>
<path fill="none" stroke="#9197f6" d="M267.13,-146.81C279.6,-143.83 292.77,-140.68 305.75,-137.58"/>
<polygon fill="#9197f6" stroke="#9197f6" points="306.21,-141.07 315.12,-135.34 304.58,-134.26 306.21,-141.07"/>
</g>
<!-- grad_fn_140110887514272 -->
<g id="node14" class="node">
<title>grad_fn_140110887514272</title>
<ellipse fill="#f2f3ff" stroke="#9197f6" stroke-width="1.8" cx="662.01" cy="-32.53" rx="135.53" ry="32.55"/>
<text text-anchor="start" x="576.01" y="-39.33" font-family="Times,serif" font-weight="bold" font-size="14.00">[i] accumulategrad_back_1_4</text>
<text text-anchor="start" x="636.01" y="-19.33" font-family="Times,serif" font-size="14.00">grad N/A</text>
</g>
<!-- grad_fn_140110887510432 -->
<g id="node15" class="node">
<title>grad_fn_140110887510432</title>
<ellipse fill="#f2f3ff" stroke="#9197f6" stroke-width="1.8" cx="662.01" cy="-115.53" rx="72.66" ry="32.55"/>
<text text-anchor="start" x="621.01" y="-122.33" font-family="Times,serif" font-weight="bold" font-size="14.00">[i] t_back_1_6</text>
<text text-anchor="start" x="636.51" y="-102.33" font-family="Times,serif" font-size="14.00">grad N/A</text>
</g>
<!-- grad_fn_140110887514416 -->
<g id="node16" class="node">
<title>grad_fn_140110887514416</title>
<ellipse fill="#f2f3ff" stroke="#9197f6" stroke-width="1.8" cx="969.54" cy="-115.53" rx="135.53" ry="32.55"/>
<text text-anchor="start" x="883.54" y="-122.33" font-family="Times,serif" font-weight="bold" font-size="14.00">[i] accumulategrad_back_2_8</text>
<text text-anchor="start" x="943.54" y="-102.33" font-family="Times,serif" font-size="14.00">grad N/A</text>
</g>
<!-- grad_fn_140110887510432&#45;&gt;grad_fn_140110887514416 -->
<g id="edge15" class="edge">
<title>grad_fn_140110887510432&#45;&gt;grad_fn_140110887514416</title>
<path fill="none" stroke="#9197f6" d="M735.03,-115.53C761.35,-115.53 792.15,-115.53 822.6,-115.53"/>
<polygon fill="#9197f6" stroke="#9197f6" points="822.28,-119.03 832.28,-115.53 822.28,-112.03 822.28,-119.03"/>
</g>
<!-- grad_fn_140110887505248 -->
<g id="node17" class="node">
<title>grad_fn_140110887505248</title>
<ellipse fill="#f2f3ff" stroke="#9197f6" stroke-width="1.8" cx="1277.07" cy="-111.53" rx="135.53" ry="32.55"/>
<text text-anchor="start" x="1191.07" y="-118.33" font-family="Times,serif" font-weight="bold" font-size="14.00">[i] accumulategrad_back_3_9</text>
<text text-anchor="start" x="1251.07" y="-98.33" font-family="Times,serif" font-size="14.00">grad N/A</text>
</g>
<!-- grad_fn_140110887517632 -->
<g id="node20" class="node">
<title>grad_fn_140110887517632</title>
<ellipse fill="#f2f3ff" stroke="#9197f6" stroke-width="1.8" cx="1589.55" cy="-290.53" rx="140.93" ry="32.55"/>
<text text-anchor="start" x="1500.55" y="-297.33" font-family="Times,serif" font-weight="bold" font-size="14.00">[i] accumulategrad_back_4_12</text>
<text text-anchor="start" x="1564.05" y="-277.33" font-family="Times,serif" font-size="14.00">grad N/A</text>
</g>
<!-- grad_fn_140111096445440&#45;&gt;grad_fn_140110887517632 -->
<g id="edge19" class="edge">
<title>grad_fn_140111096445440&#45;&gt;grad_fn_140110887517632</title>
<path fill="none" stroke="#9197f6" d="M1356.82,-290.53C1381.29,-290.53 1409.15,-290.53 1436.85,-290.53"/>
<polygon fill="#9197f6" stroke="#9197f6" points="1436.77,-294.03 1446.77,-290.53 1436.77,-287.03 1436.77,-294.03"/>
</g>
<!-- grad_fn_140110887517056 -->
<g id="node19" class="node">
<title>grad_fn_140110887517056</title>
<ellipse fill="#f2f3ff" stroke="#9197f6" stroke-width="1.8" cx="1277.07" cy="-194.53" rx="77.56" ry="32.55"/>
<text text-anchor="start" x="1232.07" y="-201.33" font-family="Times,serif" font-weight="bold" font-size="14.00">[i] t_back_2_11</text>
<text text-anchor="start" x="1251.07" y="-181.33" font-family="Times,serif" font-size="14.00">grad N/A</text>
</g>
<!-- grad_fn_140110887514512 -->
<g id="node21" class="node">
<title>grad_fn_140110887514512</title>
<ellipse fill="#f2f3ff" stroke="#9197f6" stroke-width="1.8" cx="1589.55" cy="-194.53" rx="140.93" ry="32.55"/>
<text text-anchor="start" x="1500.55" y="-201.33" font-family="Times,serif" font-weight="bold" font-size="14.00">[i] accumulategrad_back_5_13</text>
<text text-anchor="start" x="1564.05" y="-181.33" font-family="Times,serif" font-size="14.00">grad N/A</text>
</g>
<!-- grad_fn_140110887517056&#45;&gt;grad_fn_140110887514512 -->
<g id="edge20" class="edge">
<title>grad_fn_140110887517056&#45;&gt;grad_fn_140110887514512</title>
<path fill="none" stroke="#9197f6" d="M1354.82,-194.53C1379.79,-194.53 1408.43,-194.53 1436.91,-194.53"/>
<polygon fill="#9197f6" stroke="#9197f6" points="1436.72,-198.03 1446.72,-194.53 1436.72,-191.03 1436.72,-198.03"/>
</g>
<!-- grad_fn_140110887512256 -->
<g id="node22" class="node">
<title>grad_fn_140110887512256</title>
<ellipse fill="#f2f3ff" stroke="#9197f6" stroke-width="1.8" cx="399.03" cy="-211.53" rx="91.43" ry="32.55"/>
<text text-anchor="start" x="345.03" y="-218.33" font-family="Times,serif" font-weight="bold" font-size="14.00">[i] clone_back_1_1</text>
<text text-anchor="start" x="373.53" y="-198.33" font-family="Times,serif" font-size="14.00">grad N/A</text>
</g>
<!-- grad_fn_140110887512256&#45;&gt;grad_fn_140111096446160 -->
<g id="edge9" class="edge">
<title>grad_fn_140110887512256&#45;&gt;grad_fn_140111096446160</title>
<path fill="none" stroke="#9197f6" d="M322.49,-193.48C308.02,-190.02 292.82,-186.39 278.18,-182.89"/>
<polygon fill="#9197f6" stroke="#9197f6" points="279.14,-179.52 268.6,-180.6 277.51,-186.33 279.14,-179.52"/>
</g>
<!-- grad_fn_140111096446304&#45;&gt;grad_fn_140110887514272 -->
<g id="edge11" class="edge">
<title>grad_fn_140111096446304&#45;&gt;grad_fn_140110887514272</title>
<path fill="none" stroke="#9197f6" d="M475.01,-90.22C491.84,-84.64 509.63,-78.82 526.25,-73.53 538.81,-69.53 552.06,-65.39 565.14,-61.36"/>
<polygon fill="#9197f6" stroke="#9197f6" points="566.1,-64.73 574.63,-58.45 564.04,-58.04 566.1,-64.73"/>
</g>
<!-- grad_fn_140111096446304&#45;&gt;grad_fn_140110887510432 -->
<g id="edge13" class="edge">
<title>grad_fn_140111096446304&#45;&gt;grad_fn_140110887510432</title>
<path fill="none" stroke="#9197f6" d="M489.85,-115.53C518.36,-115.53 549.74,-115.53 577.77,-115.53"/>
<polygon fill="#9197f6" stroke="#9197f6" points="577.63,-119.03 587.63,-115.53 577.63,-112.03 577.63,-119.03"/>
</g>
<!-- grad_fn_140111096446304&#45;&gt;grad_fn_140111096443664 -->
<g id="edge12" class="edge">
<title>grad_fn_140111096446304&#45;&gt;grad_fn_140111096443664</title>
<path fill="none" stroke="#9197f6" d="M462.87,-148.4C474.79,-155.11 487.03,-162.32 498.25,-169.53 535.59,-193.52 575.62,-223.22 606.64,-247.19"/>
<polygon fill="#9197f6" stroke="#9197f6" points="604.31,-249.81 614.36,-253.18 608.61,-244.29 604.31,-249.81"/>
</g>
<!-- grad_fn_140111096443664&#45;&gt;grad_fn_140111096444864 -->
<g id="edge14" class="edge">
<title>grad_fn_140111096443664&#45;&gt;grad_fn_140111096444864</title>
<path fill="none" stroke="#9197f6" d="M736.97,-290.53C776.12,-290.53 824.78,-290.53 867.38,-290.53"/>
<polygon fill="#9197f6" stroke="#9197f6" points="867.13,-294.03 877.13,-290.53 867.13,-287.03 867.13,-294.03"/>
</g>
<!-- grad_fn_140111096444864&#45;&gt;grad_fn_140110887505248 -->
<g id="edge16" class="edge">
<title>grad_fn_140111096444864&#45;&gt;grad_fn_140110887505248</title>
<path fill="none" stroke="#9197f6" d="M1011.81,-249.48C1044.51,-218.97 1092.64,-178.33 1141.3,-152.53 1150.87,-147.46 1161.15,-142.92 1171.62,-138.87"/>
<polygon fill="#9197f6" stroke="#9197f6" points="1172.54,-142.26 1180.71,-135.51 1170.11,-135.69 1172.54,-142.26"/>
</g>
<!-- grad_fn_140111096444864&#45;&gt;grad_fn_140111096445440 -->
<g id="edge17" class="edge">
<title>grad_fn_140111096444864&#45;&gt;grad_fn_140111096445440</title>
<path fill="none" stroke="#9197f6" d="M1060.56,-290.53C1100.05,-290.53 1146.31,-290.53 1185.83,-290.53"/>
<polygon fill="#9197f6" stroke="#9197f6" points="1185.81,-294.03 1195.81,-290.53 1185.81,-287.03 1185.81,-294.03"/>
</g>
<!-- grad_fn_140111096444864&#45;&gt;grad_fn_140110887517056 -->
<g id="edge18" class="edge">
<title>grad_fn_140111096444864&#45;&gt;grad_fn_140110887517056</title>
<path fill="none" stroke="#9197f6" d="M1046.11,-265.89C1075.76,-256.31 1110.1,-245.3 1141.3,-235.53 1161.09,-229.33 1182.56,-222.74 1202.42,-216.7"/>
<polygon fill="#9197f6" stroke="#9197f6" points="1203.27,-220.1 1211.82,-213.84 1201.23,-213.4 1203.27,-220.1"/>
</g>
</g>
</svg>
