<?xml version="1.0" encoding="UTF-8" standalone="no"?>
<!DOCTYPE svg PUBLIC "-//W3C//DTD SVG 1.1//EN"
 "http://www.w3.org/Graphics/SVG/1.1/DTD/svg11.dtd">
<!-- Generated by graphviz version 7.0.5 (20221231.0122)
 -->
<!-- Title: VizNet Pages: 1 -->
<svg width="450pt" height="1386pt"
 viewBox="0.00 0.00 450.00 1385.85" xmlns="http://www.w3.org/2000/svg" xmlns:xlink="http://www.w3.org/1999/xlink">
<g id="graph0" class="graph" transform="scale(1 1) rotate(0) translate(4 1381.85)">
<title>VizNet</title>
<polygon fill="white" stroke="none" points="-4,4 -4,-1381.85 446,-1381.85 446,4 -4,4"/>
<text text-anchor="start" x="8" y="-1363.65" font-family="Times,serif" font-weight="bold" font-size="14.00">VizNet</text>
<text text-anchor="start" x="8" y="-1349.65" font-family="Times,serif" font-size="14.00">6 tensors total (128 B)</text>
<text text-anchor="start" x="8" y="-1335.65" font-family="Times,serif" font-size="14.00">31 params (all trainable, 124 B)</text>
<g id="clust2" class="cluster">
<title>cluster_encoder_pass1</title>
<polygon fill="white" stroke="black" stroke-width="5" points="8,-263.92 8,-519.92 322,-519.92 322,-263.92 8,-263.92"/>
<text text-anchor="start" x="16" y="-505.72" font-family="Times,serif" font-weight="bold" font-size="14.00">@encoder</text>
<text text-anchor="start" x="16" y="-491.72" font-family="Times,serif" font-size="14.00">(Sequential)</text>
</g>
<g id="clust6" class="cluster">
<title>cluster_torchlens_code_panel</title>
<path fill="#fafafa" stroke="#a8a8a8" d="M222,-654.92C222,-654.92 422,-654.92 422,-654.92 428,-654.92 434,-660.92 434,-666.92 434,-666.92 434,-1199.92 434,-1199.92 434,-1205.92 428,-1211.92 422,-1211.92 422,-1211.92 222,-1211.92 222,-1211.92 216,-1211.92 210,-1205.92 210,-1199.92 210,-1199.92 210,-666.92 210,-666.92 210,-660.92 216,-654.92 222,-654.92"/>
</g>
<!-- input_1pass1 -->
<g id="node1" class="node">
<title>input_1pass1</title>
<ellipse fill="#98fb98" stroke="black" cx="114" cy="-189.96" rx="59.29" ry="45.92"/>
<text text-anchor="start" x="91.5" y="-205.76" font-family="Times,serif" font-weight="bold" font-size="14.00">input_1</text>
<text text-anchor="start" x="82" y="-185.76" font-family="Times,serif" font-size="14.00">(2, 4), 32 B</text>
<text text-anchor="start" x="88" y="-166.76" font-family="Times,serif" font-size="14.00">@input.x</text>
</g>
<!-- linear_1_1pass1 -->
<g id="node2" class="node">
<title>linear_1_1pass1</title>
<polygon fill="#d9d9d9" stroke="black" points="211.5,-374.92 16.5,-374.92 16.5,-271.92 211.5,-271.92 211.5,-374.92"/>
<text text-anchor="start" x="84" y="-358.22" font-family="Times,serif" font-weight="bold" font-size="14.00">linear_1_1</text>
<text text-anchor="start" x="82.5" y="-338.22" font-family="Times,serif" font-size="14.00">(2, 5), 40 B</text>
<text text-anchor="start" x="32" y="-319.22" font-family="Times,serif" font-size="14.00">in_features=4, out_features=5</text>
<text text-anchor="start" x="27" y="-300.22" font-family="Times,serif" font-size="14.00">params: weight (5, 4) · bias (5,)</text>
<text text-anchor="start" x="81.5" y="-281.22" font-family="Times,serif" font-size="14.00">@encoder.0</text>
</g>
<!-- input_1pass1&#45;&gt;linear_1_1pass1 -->
<g id="edge1" class="edge">
<title>input_1pass1&#45;&gt;linear_1_1pass1</title>
<path fill="none" stroke="black" d="M114,-236.2C114,-244.96 114,-254.26 114,-263.38"/>
<polygon fill="black" stroke="black" points="111.55,-263.17 114,-270.17 116.45,-263.17 111.55,-263.17"/>
</g>
<!-- relu_1_2pass1 -->
<g id="node5" class="node">
<title>relu_1_2pass1</title>
<polygon fill="white" stroke="black" points="157,-475.92 71,-475.92 71,-410.92 157,-410.92 157,-475.92"/>
<text text-anchor="start" x="88.5" y="-459.22" font-family="Times,serif" font-weight="bold" font-size="14.00">relu_1_2</text>
<text text-anchor="start" x="82" y="-439.22" font-family="Times,serif" font-size="14.00">(2, 5), 40 B</text>
<text text-anchor="start" x="81" y="-420.22" font-family="Times,serif" font-size="14.00">@encoder.1</text>
</g>
<!-- linear_1_1pass1&#45;&gt;relu_1_2pass1 -->
<g id="edge9" class="edge">
<title>linear_1_1pass1&#45;&gt;relu_1_2pass1</title>
<path fill="none" stroke="black" d="M114,-375.15C114,-384.15 114,-393.4 114,-402.06"/>
<polygon fill="black" stroke="black" points="111.55,-401.98 114,-408.98 116.45,-401.98 111.55,-401.98"/>
</g>
<!-- linear_1_1 -->
<g id="node3" class="node">
<title>linear_1_1</title>
<ellipse fill="none" stroke="black" cx="266" cy="-443.42" rx="48.19" ry="18"/>
<text text-anchor="middle" x="266" y="-439.72" font-family="Times,serif" font-size="14.00">linear_1_1</text>
</g>
<!-- input_1 -->
<g id="node4" class="node">
<title>input_1</title>
<ellipse fill="none" stroke="black" cx="266" cy="-579.42" rx="37.89" ry="18"/>
<text text-anchor="middle" x="266" y="-575.72" font-family="Times,serif" font-size="14.00">input_1</text>
</g>
<!-- linear_1_1&#45;&gt;input_1 -->
<g id="edge2" class="edge">
<title>linear_1_1&#45;&gt;input_1</title>
<path fill="none" stroke="#9197f6" d="M266,-461.67C266,-484.78 266,-526 266,-552.77"/>
<polygon fill="#9197f6" stroke="#9197f6" points="263.55,-552.73 266,-559.73 268.45,-552.73 263.55,-552.73"/>
</g>
<!-- linear_2_3pass1 -->
<g id="node6" class="node">
<title>linear_2_3pass1</title>
<polygon fill="#d9d9d9" stroke="black" points="210.5,-630.92 15.5,-630.92 15.5,-527.92 210.5,-527.92 210.5,-630.92"/>
<text text-anchor="start" x="83" y="-614.22" font-family="Times,serif" font-weight="bold" font-size="14.00">linear_2_3</text>
<text text-anchor="start" x="84.5" y="-594.22" font-family="Times,serif" font-size="14.00">(2, 1), 8 B</text>
<text text-anchor="start" x="31" y="-575.22" font-family="Times,serif" font-size="14.00">in_features=5, out_features=1</text>
<text text-anchor="start" x="26" y="-556.22" font-family="Times,serif" font-size="14.00">params: weight (1, 5) · bias (1,)</text>
<text text-anchor="start" x="94" y="-537.22" font-family="Times,serif" font-size="14.00">@head</text>
</g>
<!-- relu_1_2pass1&#45;&gt;linear_2_3pass1 -->
<g id="edge3" class="edge">
<title>relu_1_2pass1&#45;&gt;linear_2_3pass1</title>
<path fill="none" stroke="black" d="M113.76,-476.18C113.67,-489.11 113.55,-504.49 113.44,-519.34"/>
<polygon fill="black" stroke="black" points="110.99,-518.98 113.39,-526 115.89,-519.02 110.99,-518.98"/>
</g>
<!-- sum_1_4pass1 -->
<g id="node9" class="node">
<title>sum_1_4pass1</title>
<ellipse fill="white" stroke="black" cx="113" cy="-933.42" rx="50.82" ry="32.55"/>
<text text-anchor="start" x="87" y="-940.22" font-family="Times,serif" font-weight="bold" font-size="14.00">sum_1_4</text>
<text text-anchor="start" x="94.5" y="-920.22" font-family="Times,serif" font-size="14.00">(), 4 B</text>
</g>
<!-- linear_2_3pass1&#45;&gt;sum_1_4pass1 -->
<g id="edge5" class="edge">
<title>linear_2_3pass1&#45;&gt;sum_1_4pass1</title>
<path fill="none" stroke="black" d="M113,-631.23C113,-701.75 113,-827.85 113,-892.22"/>
<polygon fill="black" stroke="black" points="110.55,-891.99 113,-898.99 115.45,-891.99 110.55,-891.99"/>
</g>
<!-- linear_2_3 -->
<g id="node7" class="node">
<title>linear_2_3</title>
<ellipse fill="none" stroke="black" cx="272" cy="-189.96" rx="48.19" ry="18"/>
<text text-anchor="middle" x="272" y="-186.26" font-family="Times,serif" font-size="14.00">linear_2_3</text>
</g>
<!-- relu_1_2 -->
<g id="node8" class="node">
<title>relu_1_2</title>
<ellipse fill="none" stroke="black" cx="272" cy="-323.42" rx="42.49" ry="18"/>
<text text-anchor="middle" x="272" y="-319.72" font-family="Times,serif" font-size="14.00">relu_1_2</text>
</g>
<!-- linear_2_3&#45;&gt;relu_1_2 -->
<g id="edge4" class="edge">
<title>linear_2_3&#45;&gt;relu_1_2</title>
<path fill="none" stroke="#9197f6" d="M272,-208.42C272,-231.13 272,-270.99 272,-297.05"/>
<polygon fill="#9197f6" stroke="#9197f6" points="269.55,-296.8 272,-303.8 274.45,-296.8 269.55,-296.8"/>
</g>
<!-- relu_1_2&#45;&gt;linear_1_1 -->
<g id="edge10" class="edge">
<title>relu_1_2&#45;&gt;linear_1_1</title>
<path fill="none" stroke="#9197f6" d="M271.11,-341.84C270.11,-361.53 268.47,-393.81 267.32,-416.47"/>
<polygon fill="#9197f6" stroke="#9197f6" points="264.87,-416.31 266.97,-423.43 269.77,-416.56 264.87,-416.31"/>
</g>
<!-- output_1pass1 -->
<g id="node11" class="node">
<title>output_1pass1</title>
<ellipse fill="#ff9999" stroke="black" cx="113" cy="-1281.89" rx="50.82" ry="45.92"/>
<text text-anchor="start" x="87" y="-1297.69" font-family="Times,serif" font-weight="bold" font-size="14.00">output_1</text>
<text text-anchor="start" x="94.5" y="-1277.69" font-family="Times,serif" font-size="14.00">(), 4 B</text>
<text text-anchor="start" x="89" y="-1258.69" font-family="Times,serif" font-size="14.00">@output</text>
</g>
<!-- sum_1_4pass1&#45;&gt;output_1pass1 -->
<g id="edge7" class="edge">
<title>sum_1_4pass1&#45;&gt;output_1pass1</title>
<path fill="none" stroke="black" d="M113,-966.4C113,-1026 113,-1154.63 113,-1227.57"/>
<polygon fill="black" stroke="black" points="110.55,-1227.23 113,-1234.23 115.45,-1227.23 110.55,-1227.23"/>
</g>
<!-- sum_1_4 -->
<g id="node10" class="node">
<title>sum_1_4</title>
<ellipse fill="none" stroke="black" cx="272" cy="-90" rx="43.59" ry="18"/>
<text text-anchor="middle" x="272" y="-86.3" font-family="Times,serif" font-size="14.00">sum_1_4</text>
</g>
<!-- sum_1_4&#45;&gt;linear_2_3 -->
<g id="edge6" class="edge">
<title>sum_1_4&#45;&gt;linear_2_3</title>
<path fill="none" stroke="#9197f6" d="M272,-108.06C272,-123.42 272,-146.19 272,-163.67"/>
<polygon fill="#9197f6" stroke="#9197f6" points="269.55,-163.25 272,-170.25 274.45,-163.25 269.55,-163.25"/>
</g>
<!-- output_1 -->
<g id="node12" class="node">
<title>output_1</title>
<ellipse fill="none" stroke="black" cx="272" cy="-18" rx="42.49" ry="18"/>
<text text-anchor="middle" x="272" y="-14.3" font-family="Times,serif" font-size="14.00">output_1</text>
</g>
<!-- output_1&#45;&gt;sum_1_4 -->
<g id="edge8" class="edge">
<title>output_1&#45;&gt;sum_1_4</title>
<path fill="none" stroke="#9197f6" d="M272,-36.3C272,-44.53 272,-54.52 272,-63.58"/>
<polygon fill="#9197f6" stroke="#9197f6" points="269.55,-63.38 272,-70.38 274.45,-63.38 269.55,-63.38"/>
</g>
<!-- __tl_graph_panel_anchor -->
<!-- __tl_code_panel_node -->
<g id="node14" class="node">
<title>__tl_code_panel_node</title>
<text text-anchor="start" x="224" y="-1187.22" font-family="Courier,monospace" font-weight="bold" font-size="14.00">Source code</text>
<text text-anchor="start" x="224" y="-1167.22" font-family="Courier,monospace" font-size="14.00">class VizNet(nn.Module):</text>
<text text-anchor="start" x="224" y="-1148.22" font-family="Courier,monospace" font-size="14.00"> &#160;&#160;&#160;def forward(self, x): ...</text>
<text text-anchor="start" x="224" y="-900.72" font-family="Courier,monospace" font-size="14.00" fill="#fafafa"> </text>
</g>
<!-- __tl_graph_panel_anchor&#45;&gt;__tl_code_panel_node -->
</g>
</svg>
