<?xml version="1.0" encoding="UTF-8" standalone="no"?>
<!DOCTYPE svg PUBLIC "-//W3C//DTD SVG 1.1//EN"
 "http://www.w3.org/Graphics/SVG/1.1/DTD/svg11.dtd">
<!-- Generated by graphviz version 7.0.5 (20221231.0122)
 -->
<!-- Title: VizNet Pages: 1 -->
<svg width="236pt" height="478pt"
 viewBox="0.00 0.00 236.00 478.37" xmlns="http://www.w3.org/2000/svg" xmlns:xlink="http://www.w3.org/1999/xlink">
<g id="graph0" class="graph" transform="scale(1 1) rotate(0) translate(4 474.37)">
<title>VizNet</title>
<polygon fill="white" stroke="none" points="-4,4 -4,-474.37 232,-474.37 232,4 -4,4"/>
<text text-anchor="start" x="8" y="-456.17" font-family="Times,serif" font-weight="bold" font-size="14.00">VizNet</text>
<text text-anchor="start" x="8" y="-442.17" font-family="Times,serif" font-size="14.00">6 tensors total (128 B)</text>
<text text-anchor="start" x="8" y="-428.17" font-family="Times,serif" font-size="14.00">31 params (all trainable, 124 B)</text>
<g id="clust1" class="cluster">
<title>cluster_encoder_pass1</title>
<polygon fill="white" stroke="black" stroke-width="5" points="8,-8 8,-412.37 220,-412.37 220,-8 8,-8"/>
<text text-anchor="start" x="16" y="-398.17" font-family="Times,serif" font-weight="bold" font-size="14.00">@encoder</text>
<text text-anchor="start" x="16" y="-384.17" font-family="Times,serif" font-size="14.00">(Sequential)</text>
</g>
<!-- linear_1_1 -->
<g id="node1" class="node">
<title>linear_1_1</title>
<polygon fill="#d9d9d9" stroke="black" points="211.5,-193.18 16.5,-193.18 16.5,-90.18 211.5,-90.18 211.5,-193.18"/>
<text text-anchor="start" x="84" y="-176.48" font-family="Times,serif" font-weight="bold" font-size="14.00">linear_1_1</text>
<text text-anchor="start" x="82.5" y="-156.48" font-family="Times,serif" font-size="14.00">(2, 5), 40 B</text>
<text text-anchor="start" x="32" y="-137.48" font-family="Times,serif" font-size="14.00">in_features=4, out_features=5</text>
<text text-anchor="start" x="27" y="-118.48" font-family="Times,serif" font-size="14.00">params: weight (5, 4) · bias (5,)</text>
<text text-anchor="start" x="81.5" y="-99.48" font-family="Times,serif" font-size="14.00">@encoder.0</text>
</g>
<!-- relu_1_2 -->
<g id="node2" class="node">
<title>relu_1_2</title>
<polygon fill="white" stroke="black" points="157,-294.18 71,-294.18 71,-229.18 157,-229.18 157,-294.18"/>
<text text-anchor="start" x="88.5" y="-277.48" font-family="Times,serif" font-weight="bold" font-size="14.00">relu_1_2</text>
<text text-anchor="start" x="82" y="-257.48" font-family="Times,serif" font-size="14.00">(2, 5), 40 B</text>
<text text-anchor="start" x="81" y="-238.48" font-family="Times,serif" font-size="14.00">@encoder.1</text>
</g>
<!-- linear_1_1&#45;&gt;relu_1_2 -->
<g id="edge1" class="edge">
<title>linear_1_1&#45;&gt;relu_1_2</title>
<path fill="none" stroke="black" d="M114,-193.41C114,-202.41 114,-211.66 114,-220.32"/>
<polygon fill="black" stroke="black" points="111.55,-220.24 114,-227.24 116.45,-220.24 111.55,-220.24"/>
</g>
<!-- __module_focus_output_linear_2_3 -->
<g id="node4" class="node">
<title>__module_focus_output_linear_2_3</title>
<ellipse fill="#ff9999" stroke="black" cx="114" cy="-349.28" rx="41.94" ry="19.18"/>
<text text-anchor="start" x="95" y="-346.08" font-family="Times,serif" font-weight="bold" font-size="14.00">output</text>
</g>
<!-- relu_1_2&#45;&gt;__module_focus_output_linear_2_3 -->
<g id="edge2" class="edge">
<title>relu_1_2&#45;&gt;__module_focus_output_linear_2_3</title>
<path fill="none" stroke="black" d="M114,-294.56C114,-303.44 114,-313.01 114,-321.57"/>
<polygon fill="black" stroke="black" points="111.55,-321.54 114,-328.54 116.45,-321.54 111.55,-321.54"/>
</g>
<!-- __module_focus_input_input_1 -->
<g id="node3" class="node">
<title>__module_focus_input_input_1</title>
<ellipse fill="#98fb98" stroke="black" cx="114" cy="-35.09" rx="36.12" ry="19.18"/>
<text text-anchor="start" x="99" y="-31.89" font-family="Times,serif" font-weight="bold" font-size="14.00">input</text>
</g>
<!-- __module_focus_input_input_1&#45;&gt;linear_1_1 -->
<g id="edge3" class="edge">
<title>__module_focus_input_input_1&#45;&gt;linear_1_1</title>
<path fill="none" stroke="black" d="M114,-54.31C114,-62.08 114,-71.64 114,-81.52"/>
<polygon fill="black" stroke="black" points="111.55,-81.36 114,-88.36 116.45,-81.36 111.55,-81.36"/>
</g>
</g>
</svg>
