<?xml version="1.0" encoding="UTF-8" standalone="no"?>
<!DOCTYPE svg PUBLIC "-//W3C//DTD SVG 1.1//EN"
 "http://www.w3.org/Graphics/SVG/1.1/DTD/svg11.dtd">
<!-- Generated by graphviz version 7.0.5 (20221231.0122)
 -->
<!-- Title: VizNet Pages: 1 -->
<svg width="199pt" height="660pt"
 viewBox="0.00 0.00 199.00 659.90" xmlns="http://www.w3.org/2000/svg" xmlns:xlink="http://www.w3.org/1999/xlink">
<g id="graph0" class="graph" transform="scale(1 1) rotate(0) translate(4 655.9)">
<title>VizNet</title>
<polygon fill="white" stroke="none" points="-4,4 -4,-655.9 195,-655.9 195,4 -4,4"/>
<text text-anchor="start" x="8" y="-637.7" font-family="Times,serif" font-weight="bold" font-size="14.00">VizNet</text>
<text text-anchor="start" x="8" y="-623.7" font-family="Times,serif" font-size="14.00">6 tensors total (128 B)</text>
<text text-anchor="start" x="8" y="-609.7" font-family="Times,serif" font-size="14.00">31 params (all trainable, 124 B)</text>
<g id="clust2" class="cluster">
<title>cluster_encoder_pass1</title>
<polygon fill="white" stroke="black" stroke-width="5" points="44.5,-119.92 44.5,-318.92 146.5,-318.92 146.5,-119.92 44.5,-119.92"/>
<text text-anchor="start" x="52.5" y="-304.72" font-family="Times,serif" font-weight="bold" font-size="14.00">@encoder</text>
<text text-anchor="start" x="52.5" y="-290.72" font-family="Times,serif" font-size="14.00">(Sequential)</text>
</g>
<!-- input_1pass1 -->
<g id="node1" class="node">
<title>input_1pass1</title>
<ellipse fill="#98fb98" stroke="black" cx="95.5" cy="-45.96" rx="59.29" ry="45.92"/>
<text text-anchor="start" x="73" y="-61.76" font-family="Times,serif" font-weight="bold" font-size="14.00">input_1</text>
<text text-anchor="start" x="63.5" y="-41.76" font-family="Times,serif" font-size="14.00">(2, 4), 32 B</text>
<text text-anchor="start" x="69.5" y="-22.76" font-family="Times,serif" font-size="14.00">@input.x</text>
</g>
<!-- linear_1_1pass1 -->
<g id="node2" class="node">
<title>linear_1_1pass1</title>
<path fill="#fff2a8" stroke="black" d="M124,-173.92C124,-173.92 67,-173.92 67,-173.92 61,-173.92 55,-167.92 55,-161.92 55,-161.92 55,-139.92 55,-139.92 55,-133.92 61,-127.92 67,-127.92 67,-127.92 124,-127.92 124,-127.92 130,-127.92 136,-133.92 136,-139.92 136,-139.92 136,-161.92 136,-161.92 136,-167.92 130,-173.92 124,-173.92"/>
<text text-anchor="start" x="65.5" y="-157.72" font-family="Times,serif" font-weight="bold" font-size="14.00">linear_1_1</text>
<text text-anchor="start" x="69.5" y="-137.72" font-family="Times,serif" font-size="14.00">Linear op</text>
</g>
<!-- input_1pass1&#45;&gt;linear_1_1pass1 -->
<g id="edge1" class="edge">
<title>input_1pass1&#45;&gt;linear_1_1pass1</title>
<path fill="none" stroke="black" d="M95.5,-92.12C95.5,-101.27 95.5,-110.68 95.5,-119.19"/>
<polygon fill="black" stroke="black" points="93.05,-119.16 95.5,-126.16 97.95,-119.16 93.05,-119.16"/>
</g>
<!-- relu_1_2pass1 -->
<g id="node3" class="node">
<title>relu_1_2pass1</title>
<polygon fill="white" stroke="black" points="138.5,-274.92 52.5,-274.92 52.5,-209.92 138.5,-209.92 138.5,-274.92"/>
<text text-anchor="start" x="70" y="-258.22" font-family="Times,serif" font-weight="bold" font-size="14.00">relu_1_2</text>
<text text-anchor="start" x="63.5" y="-238.22" font-family="Times,serif" font-size="14.00">(2, 5), 40 B</text>
<text text-anchor="start" x="62.5" y="-219.22" font-family="Times,serif" font-size="14.00">@encoder.1</text>
</g>
<!-- linear_1_1pass1&#45;&gt;relu_1_2pass1 -->
<g id="edge5" class="edge">
<title>linear_1_1pass1&#45;&gt;relu_1_2pass1</title>
<path fill="none" stroke="black" d="M95.5,-174.05C95.5,-182.29 95.5,-191.92 95.5,-201.29"/>
<polygon fill="black" stroke="black" points="93.05,-201.25 95.5,-208.25 97.95,-201.25 93.05,-201.25"/>
</g>
<!-- linear_2_3pass1 -->
<g id="node4" class="node">
<title>linear_2_3pass1</title>
<path fill="#fff2a8" stroke="black" d="M124,-372.92C124,-372.92 67,-372.92 67,-372.92 61,-372.92 55,-366.92 55,-360.92 55,-360.92 55,-338.92 55,-338.92 55,-332.92 61,-326.92 67,-326.92 67,-326.92 124,-326.92 124,-326.92 130,-326.92 136,-332.92 136,-338.92 136,-338.92 136,-360.92 136,-360.92 136,-366.92 130,-372.92 124,-372.92"/>
<text text-anchor="start" x="65.5" y="-356.72" font-family="Times,serif" font-weight="bold" font-size="14.00">linear_2_3</text>
<text text-anchor="start" x="69.5" y="-336.72" font-family="Times,serif" font-size="14.00">Linear op</text>
</g>
<!-- relu_1_2pass1&#45;&gt;linear_2_3pass1 -->
<g id="edge2" class="edge">
<title>relu_1_2pass1&#45;&gt;linear_2_3pass1</title>
<path fill="none" stroke="black" d="M95.5,-275.36C95.5,-288.9 95.5,-304.6 95.5,-318.02"/>
<polygon fill="black" stroke="black" points="93.05,-317.95 95.5,-324.95 97.95,-317.95 93.05,-317.95"/>
</g>
<!-- sum_1_4pass1 -->
<g id="node5" class="node">
<title>sum_1_4pass1</title>
<ellipse fill="white" stroke="black" cx="95.5" cy="-441.45" rx="50.82" ry="32.55"/>
<text text-anchor="start" x="69.5" y="-448.25" font-family="Times,serif" font-weight="bold" font-size="14.00">sum_1_4</text>
<text text-anchor="start" x="77" y="-428.25" font-family="Times,serif" font-size="14.00">(), 4 B</text>
</g>
<!-- linear_2_3pass1&#45;&gt;sum_1_4pass1 -->
<g id="edge3" class="edge">
<title>linear_2_3pass1&#45;&gt;sum_1_4pass1</title>
<path fill="none" stroke="black" d="M95.5,-373.05C95.5,-381.22 95.5,-390.75 95.5,-400.03"/>
<polygon fill="black" stroke="black" points="93.05,-399.92 95.5,-406.92 97.95,-399.92 93.05,-399.92"/>
</g>
<!-- output_1pass1 -->
<g id="node6" class="node">
<title>output_1pass1</title>
<ellipse fill="#ff9999" stroke="black" cx="95.5" cy="-555.94" rx="50.82" ry="45.92"/>
<text text-anchor="start" x="69.5" y="-571.74" font-family="Times,serif" font-weight="bold" font-size="14.00">output_1</text>
<text text-anchor="start" x="77" y="-551.74" font-family="Times,serif" font-size="14.00">(), 4 B</text>
<text text-anchor="start" x="71.5" y="-532.74" font-family="Times,serif" font-size="14.00">@output</text>
</g>
<!-- sum_1_4pass1&#45;&gt;output_1pass1 -->
<g id="edge4" class="edge">
<title>sum_1_4pass1&#45;&gt;output_1pass1</title>
<path fill="none" stroke="black" d="M95.5,-474.38C95.5,-482.84 95.5,-492.2 95.5,-501.46"/>
<polygon fill="black" stroke="black" points="93.05,-501.4 95.5,-508.4 97.95,-501.4 93.05,-501.4"/>
</g>
</g>
</svg>
