<?xml version="1.0" encoding="UTF-8" standalone="no"?>
<!DOCTYPE svg PUBLIC "-//W3C//DTD SVG 1.1//EN"
 "http://www.w3.org/Graphics/SVG/1.1/DTD/svg11.dtd">
<!-- Generated by graphviz version 7.0.5 (20221231.0122)
 -->
<!-- Title: VizNet Pages: 1 -->
<svg width="236pt" height="774pt"
 viewBox="0.00 0.00 236.00 773.90" xmlns="http://www.w3.org/2000/svg" xmlns:xlink="http://www.w3.org/1999/xlink">
<g id="graph0" class="graph" transform="scale(1 1) rotate(0) translate(4 769.9)">
<title>VizNet</title>
<polygon fill="white" stroke="none" points="-4,4 -4,-769.9 232,-769.9 232,4 -4,4"/>
<text text-anchor="start" x="8" y="-751.7" font-family="Times,serif" font-weight="bold" font-size="14.00">VizNet</text>
<text text-anchor="start" x="8" y="-737.7" font-family="Times,serif" font-size="14.00">6 tensors total (128 B)</text>
<text text-anchor="start" x="8" y="-723.7" font-family="Times,serif" font-size="14.00">31 params (all trainable, 124 B)</text>
<g id="clust2" class="cluster">
<title>cluster_encoder</title>
<polygon fill="white" stroke="black" stroke-width="5" points="8,-119.92 8,-375.92 220,-375.92 220,-119.92 8,-119.92"/>
<text text-anchor="start" x="16" y="-361.72" font-family="Times,serif" font-weight="bold" font-size="14.00">@encoder</text>
<text text-anchor="start" x="16" y="-347.72" font-family="Times,serif" font-size="14.00">(Sequential)</text>
</g>
<!-- input_1 -->
<g id="node1" class="node">
<title>input_1</title>
<ellipse fill="#98fb98" stroke="black" cx="114" cy="-45.96" rx="59.29" ry="45.92"/>
<text text-anchor="start" x="91.5" y="-61.76" font-family="Times,serif" font-weight="bold" font-size="14.00">input_1</text>
<text text-anchor="start" x="82" y="-41.76" font-family="Times,serif" font-size="14.00">(2, 4), 32 B</text>
<text text-anchor="start" x="88" y="-22.76" font-family="Times,serif" font-size="14.00">@input.x</text>
</g>
<!-- linear_1_1 -->
<g id="node2" class="node">
<title>linear_1_1</title>
<polygon fill="#d9d9d9" stroke="black" points="211.5,-230.92 16.5,-230.92 16.5,-127.92 211.5,-127.92 211.5,-230.92"/>
<text text-anchor="start" x="84" y="-214.22" font-family="Times,serif" font-weight="bold" font-size="14.00">linear_1_1</text>
<text text-anchor="start" x="82.5" y="-194.22" font-family="Times,serif" font-size="14.00">(2, 5), 40 B</text>
<text text-anchor="start" x="32" y="-175.22" font-family="Times,serif" font-size="14.00">in_features=4, out_features=5</text>
<text text-anchor="start" x="27" y="-156.22" font-family="Times,serif" font-size="14.00">params: weight (5, 4) · bias (5,)</text>
<text text-anchor="start" x="81.5" y="-137.22" font-family="Times,serif" font-size="14.00">@encoder.0</text>
</g>
<!-- input_1&#45;&gt;linear_1_1 -->
<g id="edge1" class="edge">
<title>input_1&#45;&gt;linear_1_1</title>
<path fill="none" stroke="black" d="M114,-92.2C114,-100.96 114,-110.26 114,-119.38"/>
<polygon fill="black" stroke="black" points="111.55,-119.17 114,-126.17 116.45,-119.17 111.55,-119.17"/>
</g>
<!-- relu_1_2 -->
<g id="node3" class="node">
<title>relu_1_2</title>
<polygon fill="white" stroke="black" points="157,-331.92 71,-331.92 71,-266.92 157,-266.92 157,-331.92"/>
<text text-anchor="start" x="88.5" y="-315.22" font-family="Times,serif" font-weight="bold" font-size="14.00">relu_1_2</text>
<text text-anchor="start" x="82" y="-295.22" font-family="Times,serif" font-size="14.00">(2, 5), 40 B</text>
<text text-anchor="start" x="81" y="-276.22" font-family="Times,serif" font-size="14.00">@encoder.1</text>
</g>
<!-- linear_1_1&#45;&gt;relu_1_2 -->
<g id="edge5" class="edge">
<title>linear_1_1&#45;&gt;relu_1_2</title>
<path fill="none" stroke="black" d="M114,-231.15C114,-240.15 114,-249.4 114,-258.06"/>
<polygon fill="black" stroke="black" points="111.55,-257.98 114,-264.98 116.45,-257.98 111.55,-257.98"/>
</g>
<!-- linear_2_3 -->
<g id="node4" class="node">
<title>linear_2_3</title>
<polygon fill="#d9d9d9" stroke="black" points="211.5,-486.92 16.5,-486.92 16.5,-383.92 211.5,-383.92 211.5,-486.92"/>
<text text-anchor="start" x="84" y="-470.22" font-family="Times,serif" font-weight="bold" font-size="14.00">linear_2_3</text>
<text text-anchor="start" x="85.5" y="-450.22" font-family="Times,serif" font-size="14.00">(2, 1), 8 B</text>
<text text-anchor="start" x="32" y="-431.22" font-family="Times,serif" font-size="14.00">in_features=5, out_features=1</text>
<text text-anchor="start" x="27" y="-412.22" font-family="Times,serif" font-size="14.00">params: weight (1, 5) · bias (1,)</text>
<text text-anchor="start" x="95" y="-393.22" font-family="Times,serif" font-size="14.00">@head</text>
</g>
<!-- relu_1_2&#45;&gt;linear_2_3 -->
<g id="edge2" class="edge">
<title>relu_1_2&#45;&gt;linear_2_3</title>
<path fill="none" stroke="black" d="M114,-332.18C114,-345.11 114,-360.49 114,-375.34"/>
<polygon fill="black" stroke="black" points="111.55,-375 114,-382 116.45,-375 111.55,-375"/>
</g>
<!-- sum_1_4 -->
<g id="node5" class="node">
<title>sum_1_4</title>
<ellipse fill="white" stroke="black" cx="114" cy="-555.45" rx="50.82" ry="32.55"/>
<text text-anchor="start" x="88" y="-562.25" font-family="Times,serif" font-weight="bold" font-size="14.00">sum_1_4</text>
<text text-anchor="start" x="95.5" y="-542.25" font-family="Times,serif" font-size="14.00">(), 4 B</text>
</g>
<!-- linear_2_3&#45;&gt;sum_1_4 -->
<g id="edge3" class="edge">
<title>linear_2_3&#45;&gt;sum_1_4</title>
<path fill="none" stroke="black" d="M114,-487.16C114,-496.16 114,-505.42 114,-514.08"/>
<polygon fill="black" stroke="black" points="111.55,-514 114,-521 116.45,-514 111.55,-514"/>
</g>
<!-- output_1 -->
<g id="node6" class="node">
<title>output_1</title>
<ellipse fill="#ff9999" stroke="black" cx="114" cy="-669.94" rx="50.82" ry="45.92"/>
<text text-anchor="start" x="88" y="-685.74" font-family="Times,serif" font-weight="bold" font-size="14.00">output_1</text>
<text text-anchor="start" x="95.5" y="-665.74" font-family="Times,serif" font-size="14.00">(), 4 B</text>
<text text-anchor="start" x="90" y="-646.74" font-family="Times,serif" font-size="14.00">@output</text>
</g>
<!-- sum_1_4&#45;&gt;output_1 -->
<g id="edge4" class="edge">
<title>sum_1_4&#45;&gt;output_1</title>
<path fill="none" stroke="black" d="M114,-588.38C114,-596.84 114,-606.2 114,-615.46"/>
<polygon fill="black" stroke="black" points="111.55,-615.4 114,-622.4 116.45,-615.4 111.55,-615.4"/>
</g>
</g>
</svg>
