<?xml version="1.0" encoding="UTF-8" standalone="no"?>
<!DOCTYPE svg PUBLIC "-//W3C//DTD SVG 1.1//EN"
 "http://www.w3.org/Graphics/SVG/1.1/DTD/svg11.dtd">
<!-- Generated by graphviz version 2.43.0 (0)
 -->
<!-- Title: ChainedLoops Pages: 1 -->
<svg width="803pt" height="898pt"
 viewBox="0.00 0.00 803.00 898.46" xmlns="http://www.w3.org/2000/svg" xmlns:xlink="http://www.w3.org/1999/xlink">
<g id="graph0" class="graph" transform="scale(1 1) rotate(0) translate(4 894.46)">
<title>ChainedLoops</title>
<polygon fill="white" stroke="transparent" points="-4,4 -4,-894.46 799,-894.46 799,4 -4,4"/>
<text text-anchor="start" x="8" y="-876.26" font-family="Helvetica,sans-Serif" font-weight="bold" font-size="14.00">ChainedLoops</text>
<text text-anchor="start" x="8" y="-862.26" font-family="Helvetica,sans-Serif" font-size="14.00">14 tensors total (832 B)</text>
<text text-anchor="start" x="8" y="-848.26" font-family="Helvetica,sans-Serif" font-size="14.00">144 params (all trainable, 576 B)</text>
<text text-anchor="start" x="8" y="-834.26" font-family="Helvetica,sans-Serif" font-size="14.00">stacked by: pass_index</text>
<!-- input_1pass1 -->
<g id="node1" class="node">
<title>input_1pass1</title>
<ellipse fill="#98fb98" stroke="black" cx="674.5" cy="-780.5" rx="70.01" ry="45.92"/>
<text text-anchor="start" x="646" y="-796.3" font-family="Helvetica,sans-Serif" font-weight="bold" font-size="14.00">input_1</text>
<text text-anchor="start" x="635.5" y="-776.3" font-family="Helvetica,sans-Serif" font-size="14.00">(2, 8), 64 B</text>
<text text-anchor="start" x="643" y="-757.3" font-family="Helvetica,sans-Serif" font-size="14.00">@input.x</text>
</g>
<!-- linear_1_1pass1 -->
<g id="node2" class="node">
<title>linear_1_1pass1</title>
<polygon fill="#d9d9d9" stroke="black" points="795,-716.5 554,-716.5 554,-632.5 795,-632.5 795,-716.5"/>
<text text-anchor="start" x="628" y="-700.3" font-family="Helvetica,sans-Serif" font-weight="bold" font-size="14.00">linear_1_1:1</text>
<text text-anchor="start" x="635.5" y="-680.3" font-family="Helvetica,sans-Serif" font-size="14.00">(2, 8), 64 B</text>
<text text-anchor="start" x="564.5" y="-661.3" font-family="Helvetica,sans-Serif" font-size="14.00">params: weight (8, 8) · bias (8,)</text>
<text text-anchor="start" x="656.5" y="-642.3" font-family="Helvetica,sans-Serif" font-size="14.00">@a:1</text>
</g>
<!-- input_1pass1&#45;&gt;linear_1_1pass1 -->
<g id="edge1" class="edge">
<title>input_1pass1&#45;&gt;linear_1_1pass1</title>
<path fill="none" stroke="black" d="M674.5,-734.17C674.5,-730.72 674.5,-727.27 674.5,-723.82"/>
<polygon fill="black" stroke="black" points="676.95,-723.73 674.5,-716.73 672.05,-723.73 676.95,-723.73"/>
</g>
<!-- relu_1_2pass1 -->
<g id="node3" class="node">
<title>relu_1_2pass1</title>
<ellipse fill="white" stroke="black" cx="674.5" cy="-581.5" rx="70.01" ry="32.55"/>
<text text-anchor="start" x="635.5" y="-588.3" font-family="Helvetica,sans-Serif" font-weight="bold" font-size="14.00">relu_1_2:1</text>
<text text-anchor="start" x="635.5" y="-568.3" font-family="Helvetica,sans-Serif" font-size="14.00">(2, 8), 64 B</text>
</g>
<!-- linear_1_1pass1&#45;&gt;relu_1_2pass1 -->
<g id="edge2" class="edge">
<title>linear_1_1pass1&#45;&gt;relu_1_2pass1</title>
<path fill="none" stroke="black" d="M674.5,-632.1C674.5,-628.55 674.5,-625.01 674.5,-621.47"/>
<polygon fill="black" stroke="black" points="676.95,-621.2 674.5,-614.2 672.05,-621.2 676.95,-621.2"/>
</g>
<!-- linear_1_1pass2 -->
<g id="node4" class="node">
<title>linear_1_1pass2</title>
<polygon fill="#d9d9d9" stroke="black" points="241,-623.5 0,-623.5 0,-539.5 241,-539.5 241,-623.5"/>
<text text-anchor="start" x="74" y="-607.3" font-family="Helvetica,sans-Serif" font-weight="bold" font-size="14.00">linear_1_1:2</text>
<text text-anchor="start" x="81.5" y="-587.3" font-family="Helvetica,sans-Serif" font-size="14.00">(2, 8), 64 B</text>
<text text-anchor="start" x="10.5" y="-568.3" font-family="Helvetica,sans-Serif" font-size="14.00">params: weight (8, 8) · bias (8,)</text>
<text text-anchor="start" x="102.5" y="-549.3" font-family="Helvetica,sans-Serif" font-size="14.00">@a:2</text>
</g>
<!-- relu_1_2pass1&#45;&gt;linear_1_1pass2 -->
<g id="edge3" class="edge">
<title>relu_1_2pass1&#45;&gt;linear_1_1pass2</title>
<path fill="none" stroke="black" d="M604.4,-581.5C515.44,-581.5 359.15,-581.5 248.5,-581.5"/>
<polygon fill="black" stroke="black" points="248.28,-579.05 241.28,-581.5 248.28,-583.95 248.28,-579.05"/>
</g>
<!-- relu_1_2pass2 -->
<g id="node5" class="node">
<title>relu_1_2pass2</title>
<ellipse fill="white" stroke="black" cx="120.5" cy="-488.5" rx="70.01" ry="32.55"/>
<text text-anchor="start" x="81.5" y="-495.3" font-family="Helvetica,sans-Serif" font-weight="bold" font-size="14.00">relu_1_2:2</text>
<text text-anchor="start" x="81.5" y="-475.3" font-family="Helvetica,sans-Serif" font-size="14.00">(2, 8), 64 B</text>
</g>
<!-- linear_1_1pass2&#45;&gt;relu_1_2pass2 -->
<g id="edge4" class="edge">
<title>linear_1_1pass2&#45;&gt;relu_1_2pass2</title>
<path fill="none" stroke="black" d="M120.5,-539.1C120.5,-535.55 120.5,-532.01 120.5,-528.47"/>
<polygon fill="black" stroke="black" points="122.95,-528.2 120.5,-521.2 118.05,-528.2 122.95,-528.2"/>
</g>
<!-- linear_1_1pass3 -->
<g id="node6" class="node">
<title>linear_1_1pass3</title>
<polygon fill="#d9d9d9" stroke="black" points="518,-530.5 277,-530.5 277,-446.5 518,-446.5 518,-530.5"/>
<text text-anchor="start" x="351" y="-514.3" font-family="Helvetica,sans-Serif" font-weight="bold" font-size="14.00">linear_1_1:3</text>
<text text-anchor="start" x="358.5" y="-494.3" font-family="Helvetica,sans-Serif" font-size="14.00">(2, 8), 64 B</text>
<text text-anchor="start" x="287.5" y="-475.3" font-family="Helvetica,sans-Serif" font-size="14.00">params: weight (8, 8) · bias (8,)</text>
<text text-anchor="start" x="379.5" y="-456.3" font-family="Helvetica,sans-Serif" font-size="14.00">@a:3</text>
</g>
<!-- relu_1_2pass2&#45;&gt;linear_1_1pass3 -->
<g id="edge5" class="edge">
<title>relu_1_2pass2&#45;&gt;linear_1_1pass3</title>
<path fill="none" stroke="black" d="M190.54,-488.5C214.56,-488.5 242.33,-488.5 269.55,-488.5"/>
<polygon fill="black" stroke="black" points="269.83,-490.95 276.83,-488.5 269.83,-486.05 269.83,-490.95"/>
</g>
<!-- relu_1_2pass3 -->
<g id="node7" class="node">
<title>relu_1_2pass3</title>
<ellipse fill="white" stroke="black" cx="397.5" cy="-395.5" rx="70.01" ry="32.55"/>
<text text-anchor="start" x="358.5" y="-402.3" font-family="Helvetica,sans-Serif" font-weight="bold" font-size="14.00">relu_1_2:3</text>
<text text-anchor="start" x="358.5" y="-382.3" font-family="Helvetica,sans-Serif" font-size="14.00">(2, 8), 64 B</text>
</g>
<!-- linear_1_1pass3&#45;&gt;relu_1_2pass3 -->
<g id="edge6" class="edge">
<title>linear_1_1pass3&#45;&gt;relu_1_2pass3</title>
<path fill="none" stroke="black" d="M397.5,-446.1C397.5,-442.55 397.5,-439.01 397.5,-435.47"/>
<polygon fill="black" stroke="black" points="399.95,-435.2 397.5,-428.2 395.05,-435.2 399.95,-435.2"/>
</g>
<!-- linear_2_3pass1 -->
<g id="node8" class="node">
<title>linear_2_3pass1</title>
<polygon fill="#d9d9d9" stroke="black" points="795,-437.5 554,-437.5 554,-353.5 795,-353.5 795,-437.5"/>
<text text-anchor="start" x="628" y="-421.3" font-family="Helvetica,sans-Serif" font-weight="bold" font-size="14.00">linear_2_3:1</text>
<text text-anchor="start" x="635.5" y="-401.3" font-family="Helvetica,sans-Serif" font-size="14.00">(2, 8), 64 B</text>
<text text-anchor="start" x="564.5" y="-382.3" font-family="Helvetica,sans-Serif" font-size="14.00">params: weight (8, 8) · bias (8,)</text>
<text text-anchor="start" x="656.5" y="-363.3" font-family="Helvetica,sans-Serif" font-size="14.00">@b:1</text>
</g>
<!-- relu_1_2pass3&#45;&gt;linear_2_3pass1 -->
<g id="edge7" class="edge">
<title>relu_1_2pass3&#45;&gt;linear_2_3pass1</title>
<path fill="none" stroke="black" d="M467.54,-395.5C491.56,-395.5 519.33,-395.5 546.55,-395.5"/>
<polygon fill="black" stroke="black" points="546.83,-397.95 553.83,-395.5 546.83,-393.05 546.83,-397.95"/>
</g>
<!-- relu_2_4pass1 -->
<g id="node9" class="node">
<title>relu_2_4pass1</title>
<ellipse fill="white" stroke="black" cx="674.5" cy="-302.5" rx="70.01" ry="32.55"/>
<text text-anchor="start" x="635.5" y="-309.3" font-family="Helvetica,sans-Serif" font-weight="bold" font-size="14.00">relu_2_4:1</text>
<text text-anchor="start" x="635.5" y="-289.3" font-family="Helvetica,sans-Serif" font-size="14.00">(2, 8), 64 B</text>
</g>
<!-- linear_2_3pass1&#45;&gt;relu_2_4pass1 -->
<g id="edge8" class="edge">
<title>linear_2_3pass1&#45;&gt;relu_2_4pass1</title>
<path fill="none" stroke="black" d="M674.5,-353.1C674.5,-349.55 674.5,-346.01 674.5,-342.47"/>
<polygon fill="black" stroke="black" points="676.95,-342.2 674.5,-335.2 672.05,-342.2 676.95,-342.2"/>
</g>
<!-- linear_2_3pass2 -->
<g id="node10" class="node">
<title>linear_2_3pass2</title>
<polygon fill="#d9d9d9" stroke="black" points="241,-344.5 0,-344.5 0,-260.5 241,-260.5 241,-344.5"/>
<text text-anchor="start" x="74" y="-328.3" font-family="Helvetica,sans-Serif" font-weight="bold" font-size="14.00">linear_2_3:2</text>
<text text-anchor="start" x="81.5" y="-308.3" font-family="Helvetica,sans-Serif" font-size="14.00">(2, 8), 64 B</text>
<text text-anchor="start" x="10.5" y="-289.3" font-family="Helvetica,sans-Serif" font-size="14.00">params: weight (8, 8) · bias (8,)</text>
<text text-anchor="start" x="102.5" y="-270.3" font-family="Helvetica,sans-Serif" font-size="14.00">@b:2</text>
</g>
<!-- relu_2_4pass1&#45;&gt;linear_2_3pass2 -->
<g id="edge9" class="edge">
<title>relu_2_4pass1&#45;&gt;linear_2_3pass2</title>
<path fill="none" stroke="black" d="M604.4,-302.5C515.44,-302.5 359.15,-302.5 248.5,-302.5"/>
<polygon fill="black" stroke="black" points="248.28,-300.05 241.28,-302.5 248.28,-304.95 248.28,-300.05"/>
</g>
<!-- relu_2_4pass2 -->
<g id="node11" class="node">
<title>relu_2_4pass2</title>
<ellipse fill="white" stroke="black" cx="120.5" cy="-209.5" rx="70.01" ry="32.55"/>
<text text-anchor="start" x="81.5" y="-216.3" font-family="Helvetica,sans-Serif" font-weight="bold" font-size="14.00">relu_2_4:2</text>
<text text-anchor="start" x="81.5" y="-196.3" font-family="Helvetica,sans-Serif" font-size="14.00">(2, 8), 64 B</text>
</g>
<!-- linear_2_3pass2&#45;&gt;relu_2_4pass2 -->
<g id="edge10" class="edge">
<title>linear_2_3pass2&#45;&gt;relu_2_4pass2</title>
<path fill="none" stroke="black" d="M120.5,-260.1C120.5,-256.55 120.5,-253.01 120.5,-249.47"/>
<polygon fill="black" stroke="black" points="122.95,-249.2 120.5,-242.2 118.05,-249.2 122.95,-249.2"/>
</g>
<!-- linear_2_3pass3 -->
<g id="node12" class="node">
<title>linear_2_3pass3</title>
<polygon fill="#d9d9d9" stroke="black" points="518,-251.5 277,-251.5 277,-167.5 518,-167.5 518,-251.5"/>
<text text-anchor="start" x="351" y="-235.3" font-family="Helvetica,sans-Serif" font-weight="bold" font-size="14.00">linear_2_3:3</text>
<text text-anchor="start" x="358.5" y="-215.3" font-family="Helvetica,sans-Serif" font-size="14.00">(2, 8), 64 B</text>
<text text-anchor="start" x="287.5" y="-196.3" font-family="Helvetica,sans-Serif" font-size="14.00">params: weight (8, 8) · bias (8,)</text>
<text text-anchor="start" x="379.5" y="-177.3" font-family="Helvetica,sans-Serif" font-size="14.00">@b:3</text>
</g>
<!-- relu_2_4pass2&#45;&gt;linear_2_3pass3 -->
<g id="edge11" class="edge">
<title>relu_2_4pass2&#45;&gt;linear_2_3pass3</title>
<path fill="none" stroke="black" d="M190.54,-209.5C214.56,-209.5 242.33,-209.5 269.55,-209.5"/>
<polygon fill="black" stroke="black" points="269.83,-211.95 276.83,-209.5 269.83,-207.05 269.83,-211.95"/>
</g>
<!-- relu_2_4pass3 -->
<g id="node13" class="node">
<title>relu_2_4pass3</title>
<ellipse fill="white" stroke="black" cx="397.5" cy="-116.5" rx="70.01" ry="32.55"/>
<text text-anchor="start" x="358.5" y="-123.3" font-family="Helvetica,sans-Serif" font-weight="bold" font-size="14.00">relu_2_4:3</text>
<text text-anchor="start" x="358.5" y="-103.3" font-family="Helvetica,sans-Serif" font-size="14.00">(2, 8), 64 B</text>
</g>
<!-- linear_2_3pass3&#45;&gt;relu_2_4pass3 -->
<g id="edge12" class="edge">
<title>linear_2_3pass3&#45;&gt;relu_2_4pass3</title>
<path fill="none" stroke="black" d="M397.5,-167.1C397.5,-163.55 397.5,-160.01 397.5,-156.47"/>
<polygon fill="black" stroke="black" points="399.95,-156.2 397.5,-149.2 395.05,-156.2 399.95,-156.2"/>
</g>
<!-- output_1pass1 -->
<g id="node14" class="node">
<title>output_1pass1</title>
<ellipse fill="#ff9999" stroke="black" cx="674.5" cy="-116.5" rx="70.01" ry="45.92"/>
<text text-anchor="start" x="640" y="-132.3" font-family="Helvetica,sans-Serif" font-weight="bold" font-size="14.00">output_1</text>
<text text-anchor="start" x="635.5" y="-112.3" font-family="Helvetica,sans-Serif" font-size="14.00">(2, 8), 64 B</text>
<text text-anchor="start" x="644.5" y="-93.3" font-family="Helvetica,sans-Serif" font-size="14.00">@output</text>
</g>
<!-- relu_2_4pass3&#45;&gt;output_1pass1 -->
<g id="edge13" class="edge">
<title>relu_2_4pass3&#45;&gt;output_1pass1</title>
<path fill="none" stroke="black" d="M467.54,-116.5C507.01,-116.5 556.59,-116.5 597.22,-116.5"/>
<polygon fill="black" stroke="black" points="597.43,-118.95 604.43,-116.5 597.43,-114.05 597.43,-118.95"/>
</g>
<!-- tl_legend -->
<g id="node15" class="node">
<title>tl_legend</title>
<text text-anchor="start" x="582.5" y="-41.5" font-family="Helvetica,sans-Serif" font-weight="bold" font-size="10.00">TorchLens encoding</text>
<text text-anchor="start" x="588.5" y="-23.5" font-family="Helvetica,sans-Serif" font-size="10.00">stack_by: pass_index</text>
<text text-anchor="start" x="588.5" y="-6.5" font-family="Helvetica,sans-Serif" font-size="10.00">same rank = same annotation value</text>
<polygon fill="none" stroke="black" points="578,0 578,-53 771,-53 771,0 578,0"/>
</g>
<!-- output_1pass1&#45;&gt;tl_legend -->
</g>
</svg>
