<?xml version="1.0" encoding="UTF-8" standalone="no"?>
<!DOCTYPE svg PUBLIC "-//W3C//DTD SVG 1.1//EN"
 "http://www.w3.org/Graphics/SVG/1.1/DTD/svg11.dtd">
<!-- Generated by graphviz version 12.2.1 (20241206.2353)
 -->
<!-- Title: RecurrentParamsComplex Pages: 1 -->
<svg width="380pt" height="3000pt"
 viewBox="0.00 0.00 380.23 2999.83" xmlns="http://www.w3.org/2000/svg" xmlns:xlink="http://www.w3.org/1999/xlink">
<g id="graph0" class="graph" transform="scale(1 1) rotate(0) translate(4 2995.83)">
<title>RecurrentParamsComplex</title>
<polygon fill="white" stroke="none" points="-4,4 -4,-2995.83 376.23,-2995.83 376.23,4 -4,4"/>
<text text-anchor="start" x="8" y="-2975.53" font-family="Times,serif" font-weight="bold" font-size="14.00">RecurrentParamsComplex</text>
<text text-anchor="start" x="8" y="-2961.53" font-family="Times,serif" font-size="14.00">37 tensors total (8.2 KB)</text>
<text text-anchor="start" x="8" y="-2947.53" font-family="Times,serif" font-size="14.00">60 params total (720 B)</text>
<!-- input_1 -->
<g id="node1" class="node">
<title>input_1</title>
<ellipse fill="#98fb98" stroke="black" cx="191.98" cy="-35.36" rx="57.98" ry="35.36"/>
<text text-anchor="start" x="169.86" y="-44.06" font-family="Times,serif" font-weight="bold" font-size="14.00">input_1</text>
<text text-anchor="start" x="158.98" y="-30.06" font-family="Times,serif" font-size="14.00">5x5 (228 B)</text>
<text text-anchor="start" x="166.48" y="-16.06" font-family="Times,serif" font-size="14.00">@input.x</text>
</g>
<!-- add_1_1pass1 -->
<g id="node2" class="node">
<title>add_1_1pass1</title>
<ellipse fill="white" stroke="black" cx="191.98" cy="-132.17" rx="57.98" ry="25.46"/>
<text text-anchor="start" x="161.98" y="-133.87" font-family="Times,serif" font-weight="bold" font-size="14.00">add_1_1:1</text>
<text text-anchor="start" x="158.98" y="-119.87" font-family="Times,serif" font-size="14.00">5x5 (228 B)</text>
</g>
<!-- input_1&#45;&gt;add_1_1pass1 -->
<g id="edge1" class="edge">
<title>input_1&#45;&gt;add_1_1pass1</title>
<path fill="none" stroke="black" d="M191.98,-71.12C191.98,-79.92 191.98,-89.35 191.98,-98.06"/>
<polygon fill="black" stroke="black" points="189.53,-97.98 191.98,-104.98 194.43,-97.98 189.53,-97.98"/>
</g>
<!-- linear_1_2pass1 -->
<g id="node3" class="node">
<title>linear_1_2pass1</title>
<polygon fill="#e6e6e6" stroke="black" points="244.23,-257.62 139.73,-257.62 139.73,-193.62 244.23,-193.62 244.23,-257.62"/>
<text text-anchor="start" x="155.98" y="-241.32" font-family="Times,serif" font-weight="bold" font-size="14.00">linear_1_2:1</text>
<text text-anchor="start" x="158.98" y="-227.32" font-family="Times,serif" font-size="14.00">5x5 (228 B)</text>
<text text-anchor="start" x="147.73" y="-213.32" font-family="Times,serif" font-size="14.00">params: 5x5, x5</text>
<text text-anchor="start" x="171.73" y="-199.32" font-family="Times,serif" font-size="14.00">@fc1:1</text>
</g>
<!-- add_1_1pass1&#45;&gt;linear_1_2pass1 -->
<g id="edge2" class="edge">
<title>add_1_1pass1&#45;&gt;linear_1_2pass1</title>
<path fill="none" stroke="black" d="M191.98,-157.68C191.98,-166.02 191.98,-175.58 191.98,-184.81"/>
<polygon fill="black" stroke="black" points="189.53,-184.63 191.98,-191.63 194.43,-184.63 189.53,-184.63"/>
</g>
<!-- mul_1_3pass1 -->
<g id="node4" class="node">
<title>mul_1_3pass1</title>
<ellipse fill="white" stroke="black" cx="191.98" cy="-319.08" rx="57.98" ry="25.46"/>
<text text-anchor="start" x="161.23" y="-320.78" font-family="Times,serif" font-weight="bold" font-size="14.00">mul_1_3:1</text>
<text text-anchor="start" x="158.98" y="-306.78" font-family="Times,serif" font-size="14.00">5x5 (228 B)</text>
</g>
<!-- linear_1_2pass1&#45;&gt;mul_1_3pass1 -->
<g id="edge3" class="edge">
<title>linear_1_2pass1&#45;&gt;mul_1_3pass1</title>
<path fill="none" stroke="black" d="M191.98,-258.1C191.98,-266.7 191.98,-276.05 191.98,-284.75"/>
<polygon fill="black" stroke="black" points="189.53,-284.67 191.98,-291.67 194.43,-284.67 189.53,-284.67"/>
</g>
<!-- linear_2_4pass1 -->
<g id="node5" class="node">
<title>linear_2_4pass1</title>
<polygon fill="#e6e6e6" stroke="black" points="244.23,-444.53 139.73,-444.53 139.73,-380.53 244.23,-380.53 244.23,-444.53"/>
<text text-anchor="start" x="155.98" y="-428.23" font-family="Times,serif" font-weight="bold" font-size="14.00">linear_2_4:1</text>
<text text-anchor="start" x="158.98" y="-414.23" font-family="Times,serif" font-size="14.00">5x5 (228 B)</text>
<text text-anchor="start" x="147.73" y="-400.23" font-family="Times,serif" font-size="14.00">params: 5x5, x5</text>
<text text-anchor="start" x="171.73" y="-386.23" font-family="Times,serif" font-size="14.00">@fc2:1</text>
</g>
<!-- mul_1_3pass1&#45;&gt;linear_2_4pass1 -->
<g id="edge4" class="edge">
<title>mul_1_3pass1&#45;&gt;linear_2_4pass1</title>
<path fill="none" stroke="black" d="M191.98,-344.59C191.98,-352.93 191.98,-362.49 191.98,-371.72"/>
<polygon fill="black" stroke="black" points="189.53,-371.54 191.98,-378.54 194.43,-371.54 189.53,-371.54"/>
</g>
<!-- log_1_5pass1 -->
<g id="node6" class="node">
<title>log_1_5pass1</title>
<ellipse fill="white" stroke="black" cx="191.98" cy="-505.99" rx="57.98" ry="25.46"/>
<text text-anchor="start" x="164.23" y="-507.69" font-family="Times,serif" font-weight="bold" font-size="14.00">log_1_5:1</text>
<text text-anchor="start" x="158.98" y="-493.69" font-family="Times,serif" font-size="14.00">5x5 (228 B)</text>
</g>
<!-- linear_2_4pass1&#45;&gt;log_1_5pass1 -->
<g id="edge5" class="edge">
<title>linear_2_4pass1&#45;&gt;log_1_5pass1</title>
<path fill="none" stroke="black" d="M191.98,-445.01C191.98,-453.61 191.98,-462.96 191.98,-471.66"/>
<polygon fill="black" stroke="black" points="189.53,-471.59 191.98,-478.59 194.43,-471.59 189.53,-471.59"/>
</g>
<!-- sin_1_6pass1 -->
<g id="node7" class="node">
<title>sin_1_6pass1</title>
<ellipse fill="white" stroke="black" cx="191.98" cy="-592.9" rx="57.98" ry="25.46"/>
<text text-anchor="start" x="164.61" y="-594.6" font-family="Times,serif" font-weight="bold" font-size="14.00">sin_1_6:1</text>
<text text-anchor="start" x="158.98" y="-580.6" font-family="Times,serif" font-size="14.00">5x5 (228 B)</text>
</g>
<!-- log_1_5pass1&#45;&gt;sin_1_6pass1 -->
<g id="edge6" class="edge">
<title>log_1_5pass1&#45;&gt;sin_1_6pass1</title>
<path fill="none" stroke="black" d="M191.98,-531.55C191.98,-540.01 191.98,-549.64 191.98,-558.67"/>
<polygon fill="black" stroke="black" points="189.53,-558.59 191.98,-565.59 194.43,-558.59 189.53,-558.59"/>
</g>
<!-- linear_2_4pass2 -->
<g id="node8" class="node">
<title>linear_2_4pass2</title>
<polygon fill="#e6e6e6" stroke="black" points="244.23,-718.36 139.73,-718.36 139.73,-654.36 244.23,-654.36 244.23,-718.36"/>
<text text-anchor="start" x="155.98" y="-702.06" font-family="Times,serif" font-weight="bold" font-size="14.00">linear_2_4:2</text>
<text text-anchor="start" x="158.98" y="-688.06" font-family="Times,serif" font-size="14.00">5x5 (228 B)</text>
<text text-anchor="start" x="147.73" y="-674.06" font-family="Times,serif" font-size="14.00">params: 5x5, x5</text>
<text text-anchor="start" x="171.73" y="-660.06" font-family="Times,serif" font-size="14.00">@fc2:2</text>
</g>
<!-- sin_1_6pass1&#45;&gt;linear_2_4pass2 -->
<g id="edge7" class="edge">
<title>sin_1_6pass1&#45;&gt;linear_2_4pass2</title>
<path fill="none" stroke="black" d="M191.98,-618.41C191.98,-626.76 191.98,-636.31 191.98,-645.54"/>
<polygon fill="black" stroke="black" points="189.53,-645.37 191.98,-652.37 194.43,-645.37 189.53,-645.37"/>
</g>
<!-- log_1_5pass2 -->
<g id="node9" class="node">
<title>log_1_5pass2</title>
<ellipse fill="white" stroke="black" cx="191.98" cy="-779.81" rx="57.98" ry="25.46"/>
<text text-anchor="start" x="164.23" y="-781.51" font-family="Times,serif" font-weight="bold" font-size="14.00">log_1_5:2</text>
<text text-anchor="start" x="158.98" y="-767.51" font-family="Times,serif" font-size="14.00">5x5 (228 B)</text>
</g>
<!-- linear_2_4pass2&#45;&gt;log_1_5pass2 -->
<g id="edge8" class="edge">
<title>linear_2_4pass2&#45;&gt;log_1_5pass2</title>
<path fill="none" stroke="black" d="M191.98,-718.83C191.98,-727.43 191.98,-736.79 191.98,-745.49"/>
<polygon fill="black" stroke="black" points="189.53,-745.41 191.98,-752.41 194.43,-745.41 189.53,-745.41"/>
</g>
<!-- linear_1_2pass2 -->
<g id="node10" class="node">
<title>linear_1_2pass2</title>
<polygon fill="#e6e6e6" stroke="black" points="244.23,-905.27 139.73,-905.27 139.73,-841.27 244.23,-841.27 244.23,-905.27"/>
<text text-anchor="start" x="155.98" y="-888.97" font-family="Times,serif" font-weight="bold" font-size="14.00">linear_1_2:2</text>
<text text-anchor="start" x="158.98" y="-874.97" font-family="Times,serif" font-size="14.00">5x5 (228 B)</text>
<text text-anchor="start" x="147.73" y="-860.97" font-family="Times,serif" font-size="14.00">params: 5x5, x5</text>
<text text-anchor="start" x="171.73" y="-846.97" font-family="Times,serif" font-size="14.00">@fc1:2</text>
</g>
<!-- log_1_5pass2&#45;&gt;linear_1_2pass2 -->
<g id="edge9" class="edge">
<title>log_1_5pass2&#45;&gt;linear_1_2pass2</title>
<path fill="none" stroke="black" d="M191.98,-805.32C191.98,-813.67 191.98,-823.22 191.98,-832.45"/>
<polygon fill="black" stroke="black" points="189.53,-832.28 191.98,-839.28 194.43,-832.28 189.53,-832.28"/>
</g>
<!-- add_2_7pass1 -->
<g id="node11" class="node">
<title>add_2_7pass1</title>
<ellipse fill="white" stroke="black" cx="191.98" cy="-966.72" rx="57.98" ry="25.46"/>
<text text-anchor="start" x="161.98" y="-968.42" font-family="Times,serif" font-weight="bold" font-size="14.00">add_2_7:1</text>
<text text-anchor="start" x="158.98" y="-954.42" font-family="Times,serif" font-size="14.00">5x5 (228 B)</text>
</g>
<!-- linear_1_2pass2&#45;&gt;add_2_7pass1 -->
<g id="edge10" class="edge">
<title>linear_1_2pass2&#45;&gt;add_2_7pass1</title>
<path fill="none" stroke="black" d="M191.98,-905.74C191.98,-914.35 191.98,-923.7 191.98,-932.4"/>
<polygon fill="black" stroke="black" points="189.53,-932.32 191.98,-939.32 194.43,-932.32 189.53,-932.32"/>
</g>
<!-- mul_2_8pass1 -->
<g id="node12" class="node">
<title>mul_2_8pass1</title>
<ellipse fill="white" stroke="black" cx="191.98" cy="-1053.64" rx="57.98" ry="25.46"/>
<text text-anchor="start" x="161.23" y="-1055.34" font-family="Times,serif" font-weight="bold" font-size="14.00">mul_2_8:1</text>
<text text-anchor="start" x="158.98" y="-1041.34" font-family="Times,serif" font-size="14.00">5x5 (228 B)</text>
</g>
<!-- add_2_7pass1&#45;&gt;mul_2_8pass1 -->
<g id="edge11" class="edge">
<title>add_2_7pass1&#45;&gt;mul_2_8pass1</title>
<path fill="none" stroke="black" d="M191.98,-992.28C191.98,-1000.75 191.98,-1010.37 191.98,-1019.41"/>
<polygon fill="black" stroke="black" points="189.53,-1019.32 191.98,-1026.32 194.43,-1019.32 189.53,-1019.32"/>
</g>
<!-- add_2_7pass2 -->
<g id="node13" class="node">
<title>add_2_7pass2</title>
<ellipse fill="white" stroke="black" cx="191.98" cy="-1140.55" rx="57.98" ry="25.46"/>
<text text-anchor="start" x="161.98" y="-1142.25" font-family="Times,serif" font-weight="bold" font-size="14.00">add_2_7:2</text>
<text text-anchor="start" x="158.98" y="-1128.25" font-family="Times,serif" font-size="14.00">5x5 (228 B)</text>
</g>
<!-- mul_2_8pass1&#45;&gt;add_2_7pass2 -->
<g id="edge12" class="edge">
<title>mul_2_8pass1&#45;&gt;add_2_7pass2</title>
<path fill="none" stroke="black" d="M191.98,-1079.2C191.98,-1087.66 191.98,-1097.28 191.98,-1106.32"/>
<polygon fill="black" stroke="black" points="189.53,-1106.24 191.98,-1113.24 194.43,-1106.24 189.53,-1106.24"/>
</g>
<!-- mul_1_3pass2 -->
<g id="node14" class="node">
<title>mul_1_3pass2</title>
<ellipse fill="white" stroke="black" cx="191.98" cy="-1227.46" rx="57.98" ry="25.46"/>
<text text-anchor="start" x="161.23" y="-1229.16" font-family="Times,serif" font-weight="bold" font-size="14.00">mul_1_3:2</text>
<text text-anchor="start" x="158.98" y="-1215.16" font-family="Times,serif" font-size="14.00">5x5 (228 B)</text>
</g>
<!-- add_2_7pass2&#45;&gt;mul_1_3pass2 -->
<g id="edge13" class="edge">
<title>add_2_7pass2&#45;&gt;mul_1_3pass2</title>
<path fill="none" stroke="black" d="M191.98,-1166.11C191.98,-1174.57 191.98,-1184.2 191.98,-1193.23"/>
<polygon fill="black" stroke="black" points="189.53,-1193.15 191.98,-1200.15 194.43,-1193.15 189.53,-1193.15"/>
</g>
<!-- linear_2_4pass3 -->
<g id="node15" class="node">
<title>linear_2_4pass3</title>
<g id="a_node15"><a xlink:title="Failed to trace builtin operator&#10; &#160;Explanation: Dynamo does not know how to trace builtin operator `print` with argument types [&#39;str&#39;] (has_kwargs False)&#10; &#160;Hint: Avoid calling builtin `print` with argument types [&#39;str&#39;]. Consider using an equivalent alternative function/method to `print`.&#10; &#160;Hint: If you are attempting to call a logging function (e.g. `print`), you can try adding it to `torch._dynamo.config.reorderable_logging_functions`.&#10; &#160;Hint: Please report an issue to PyTorch.&#10;&#10; &#160;Developer debug context: builtin print [&lt;class &#39;torch._dynamo.variables.constant.ConstantVariable&#39;&gt;] False&#10;&#10;&#10;User Stack:&#10;/Users/taejunseo/Codes/torchlens&#45;HPML/tests/wbreaks_example_models.py:853&#10;">
<polygon fill="#e6e6e6" stroke="red" points="244.23,-1352.92 139.73,-1352.92 139.73,-1288.92 244.23,-1288.92 244.23,-1352.92"/>
<text text-anchor="start" x="155.98" y="-1336.62" font-family="Times,serif" font-weight="bold" font-size="14.00" fill="red">linear_2_4:3</text>
<text text-anchor="start" x="158.98" y="-1322.62" font-family="Times,serif" font-size="14.00" fill="red">5x5 (228 B)</text>
<text text-anchor="start" x="147.73" y="-1308.62" font-family="Times,serif" font-size="14.00" fill="red">params: 5x5, x5</text>
<text text-anchor="start" x="171.73" y="-1294.62" font-family="Times,serif" font-size="14.00" fill="red">@fc2:3</text>
</a>
</g>
</g>
<!-- mul_1_3pass2&#45;&gt;linear_2_4pass3 -->
<g id="edge14" class="edge">
<title>mul_1_3pass2&#45;&gt;linear_2_4pass3</title>
<path fill="none" stroke="black" d="M191.98,-1252.97C191.98,-1261.31 191.98,-1270.87 191.98,-1280.1"/>
<polygon fill="black" stroke="black" points="189.53,-1279.93 191.98,-1286.93 194.43,-1279.93 189.53,-1279.93"/>
</g>
<!-- log_1_5pass3 -->
<g id="node16" class="node">
<title>log_1_5pass3</title>
<ellipse fill="white" stroke="black" cx="191.98" cy="-1414.37" rx="57.98" ry="25.46"/>
<text text-anchor="start" x="164.23" y="-1416.07" font-family="Times,serif" font-weight="bold" font-size="14.00">log_1_5:3</text>
<text text-anchor="start" x="158.98" y="-1402.07" font-family="Times,serif" font-size="14.00">5x5 (228 B)</text>
</g>
<!-- linear_2_4pass3&#45;&gt;log_1_5pass3 -->
<g id="edge15" class="edge">
<title>linear_2_4pass3&#45;&gt;log_1_5pass3</title>
<path fill="none" stroke="red" d="M191.98,-1353.39C191.98,-1361.99 191.98,-1371.34 191.98,-1380.05"/>
<polygon fill="red" stroke="red" points="189.53,-1379.97 191.98,-1386.97 194.43,-1379.97 189.53,-1379.97"/>
</g>
<!-- linear_1_2pass3 -->
<g id="node17" class="node">
<title>linear_1_2pass3</title>
<polygon fill="#e6e6e6" stroke="black" points="244.23,-1539.83 139.73,-1539.83 139.73,-1475.83 244.23,-1475.83 244.23,-1539.83"/>
<text text-anchor="start" x="155.98" y="-1523.53" font-family="Times,serif" font-weight="bold" font-size="14.00">linear_1_2:3</text>
<text text-anchor="start" x="158.98" y="-1509.53" font-family="Times,serif" font-size="14.00">5x5 (228 B)</text>
<text text-anchor="start" x="147.73" y="-1495.53" font-family="Times,serif" font-size="14.00">params: 5x5, x5</text>
<text text-anchor="start" x="171.73" y="-1481.53" font-family="Times,serif" font-size="14.00">@fc1:3</text>
</g>
<!-- log_1_5pass3&#45;&gt;linear_1_2pass3 -->
<g id="edge16" class="edge">
<title>log_1_5pass3&#45;&gt;linear_1_2pass3</title>
<path fill="none" stroke="black" d="M191.98,-1439.88C191.98,-1448.23 191.98,-1457.78 191.98,-1467.01"/>
<polygon fill="black" stroke="black" points="189.53,-1466.84 191.98,-1473.84 194.43,-1466.84 189.53,-1466.84"/>
</g>
<!-- add_3_9 -->
<g id="node18" class="node">
<title>add_3_9</title>
<ellipse fill="white" stroke="black" cx="191.98" cy="-1601.28" rx="57.98" ry="25.46"/>
<text text-anchor="start" x="167.61" y="-1602.98" font-family="Times,serif" font-weight="bold" font-size="14.00">add_3_9</text>
<text text-anchor="start" x="158.98" y="-1588.98" font-family="Times,serif" font-size="14.00">5x5 (228 B)</text>
</g>
<!-- linear_1_2pass3&#45;&gt;add_3_9 -->
<g id="edge17" class="edge">
<title>linear_1_2pass3&#45;&gt;add_3_9</title>
<path fill="none" stroke="black" d="M191.98,-1540.3C191.98,-1548.9 191.98,-1558.26 191.98,-1566.96"/>
<polygon fill="black" stroke="black" points="189.53,-1566.88 191.98,-1573.88 194.43,-1566.88 189.53,-1566.88"/>
</g>
<!-- linear_2_4pass4 -->
<g id="node19" class="node">
<title>linear_2_4pass4</title>
<polygon fill="#e6e6e6" stroke="black" points="244.23,-1726.74 139.73,-1726.74 139.73,-1662.74 244.23,-1662.74 244.23,-1726.74"/>
<text text-anchor="start" x="155.98" y="-1710.44" font-family="Times,serif" font-weight="bold" font-size="14.00">linear_2_4:4</text>
<text text-anchor="start" x="158.98" y="-1696.44" font-family="Times,serif" font-size="14.00">5x5 (228 B)</text>
<text text-anchor="start" x="147.73" y="-1682.44" font-family="Times,serif" font-size="14.00">params: 5x5, x5</text>
<text text-anchor="start" x="171.73" y="-1668.44" font-family="Times,serif" font-size="14.00">@fc2:4</text>
</g>
<!-- add_3_9&#45;&gt;linear_2_4pass4 -->
<g id="edge18" class="edge">
<title>add_3_9&#45;&gt;linear_2_4pass4</title>
<path fill="none" stroke="black" d="M191.98,-1626.79C191.98,-1635.14 191.98,-1644.69 191.98,-1653.92"/>
<polygon fill="black" stroke="black" points="189.53,-1653.75 191.98,-1660.75 194.43,-1653.75 189.53,-1653.75"/>
</g>
<!-- log_1_5pass4 -->
<g id="node20" class="node">
<title>log_1_5pass4</title>
<ellipse fill="white" stroke="black" cx="191.98" cy="-1788.2" rx="57.98" ry="25.46"/>
<text text-anchor="start" x="164.23" y="-1789.9" font-family="Times,serif" font-weight="bold" font-size="14.00">log_1_5:4</text>
<text text-anchor="start" x="158.98" y="-1775.9" font-family="Times,serif" font-size="14.00">5x5 (228 B)</text>
</g>
<!-- linear_2_4pass4&#45;&gt;log_1_5pass4 -->
<g id="edge19" class="edge">
<title>linear_2_4pass4&#45;&gt;log_1_5pass4</title>
<path fill="none" stroke="black" d="M191.98,-1727.21C191.98,-1735.82 191.98,-1745.17 191.98,-1753.87"/>
<polygon fill="black" stroke="black" points="189.53,-1753.79 191.98,-1760.79 194.43,-1753.79 189.53,-1753.79"/>
</g>
<!-- linear_2_4pass5 -->
<g id="node21" class="node">
<title>linear_2_4pass5</title>
<g id="a_node21"><a xlink:title="Failed to trace builtin operator&#10; &#160;Explanation: Dynamo does not know how to trace builtin operator `print` with argument types [&#39;str&#39;] (has_kwargs False)&#10; &#160;Hint: Avoid calling builtin `print` with argument types [&#39;str&#39;]. Consider using an equivalent alternative function/method to `print`.&#10; &#160;Hint: If you are attempting to call a logging function (e.g. `print`), you can try adding it to `torch._dynamo.config.reorderable_logging_functions`.&#10; &#160;Hint: Please report an issue to PyTorch.&#10;&#10; &#160;Developer debug context: builtin print [&lt;class &#39;torch._dynamo.variables.constant.ConstantVariable&#39;&gt;] False&#10;&#10;&#10;User Stack:&#10;/Users/taejunseo/Codes/torchlens&#45;HPML/tests/wbreaks_example_models.py:860&#10;">
<polygon fill="#e6e6e6" stroke="red" points="244.23,-1913.65 139.73,-1913.65 139.73,-1849.65 244.23,-1849.65 244.23,-1913.65"/>
<text text-anchor="start" x="155.98" y="-1897.35" font-family="Times,serif" font-weight="bold" font-size="14.00" fill="red">linear_2_4:5</text>
<text text-anchor="start" x="158.98" y="-1883.35" font-family="Times,serif" font-size="14.00" fill="red">5x5 (228 B)</text>
<text text-anchor="start" x="147.73" y="-1869.35" font-family="Times,serif" font-size="14.00" fill="red">params: 5x5, x5</text>
<text text-anchor="start" x="171.73" y="-1855.35" font-family="Times,serif" font-size="14.00" fill="red">@fc2:5</text>
</a>
</g>
</g>
<!-- log_1_5pass4&#45;&gt;linear_2_4pass5 -->
<g id="edge20" class="edge">
<title>log_1_5pass4&#45;&gt;linear_2_4pass5</title>
<path fill="none" stroke="black" d="M191.98,-1813.7C191.98,-1822.05 191.98,-1831.61 191.98,-1840.83"/>
<polygon fill="black" stroke="black" points="189.53,-1840.66 191.98,-1847.66 194.43,-1840.66 189.53,-1840.66"/>
</g>
<!-- log_1_5pass5 -->
<g id="node22" class="node">
<title>log_1_5pass5</title>
<ellipse fill="white" stroke="black" cx="191.98" cy="-1975.11" rx="57.98" ry="25.46"/>
<text text-anchor="start" x="164.23" y="-1976.81" font-family="Times,serif" font-weight="bold" font-size="14.00">log_1_5:5</text>
<text text-anchor="start" x="158.98" y="-1962.81" font-family="Times,serif" font-size="14.00">5x5 (228 B)</text>
</g>
<!-- linear_2_4pass5&#45;&gt;log_1_5pass5 -->
<g id="edge21" class="edge">
<title>linear_2_4pass5&#45;&gt;log_1_5pass5</title>
<path fill="none" stroke="red" d="M191.98,-1914.12C191.98,-1922.73 191.98,-1932.08 191.98,-1940.78"/>
<polygon fill="red" stroke="red" points="189.53,-1940.7 191.98,-1947.7 194.43,-1940.7 189.53,-1940.7"/>
</g>
<!-- linear_1_2pass4 -->
<g id="node23" class="node">
<title>linear_1_2pass4</title>
<polygon fill="#e6e6e6" stroke="black" points="244.23,-2100.56 139.73,-2100.56 139.73,-2036.56 244.23,-2036.56 244.23,-2100.56"/>
<text text-anchor="start" x="155.98" y="-2084.26" font-family="Times,serif" font-weight="bold" font-size="14.00">linear_1_2:4</text>
<text text-anchor="start" x="158.98" y="-2070.26" font-family="Times,serif" font-size="14.00">5x5 (228 B)</text>
<text text-anchor="start" x="147.73" y="-2056.26" font-family="Times,serif" font-size="14.00">params: 5x5, x5</text>
<text text-anchor="start" x="171.73" y="-2042.26" font-family="Times,serif" font-size="14.00">@fc1:4</text>
</g>
<!-- log_1_5pass5&#45;&gt;linear_1_2pass4 -->
<g id="edge22" class="edge">
<title>log_1_5pass5&#45;&gt;linear_1_2pass4</title>
<path fill="none" stroke="black" d="M191.98,-2000.62C191.98,-2008.96 191.98,-2018.52 191.98,-2027.75"/>
<polygon fill="black" stroke="black" points="189.53,-2027.57 191.98,-2034.57 194.43,-2027.57 189.53,-2027.57"/>
</g>
<!-- add_2_7pass3 -->
<g id="node24" class="node">
<title>add_2_7pass3</title>
<ellipse fill="white" stroke="black" cx="191.98" cy="-2162.02" rx="57.98" ry="25.46"/>
<text text-anchor="start" x="161.98" y="-2163.72" font-family="Times,serif" font-weight="bold" font-size="14.00">add_2_7:3</text>
<text text-anchor="start" x="158.98" y="-2149.72" font-family="Times,serif" font-size="14.00">5x5 (228 B)</text>
</g>
<!-- linear_1_2pass4&#45;&gt;add_2_7pass3 -->
<g id="edge23" class="edge">
<title>linear_1_2pass4&#45;&gt;add_2_7pass3</title>
<path fill="none" stroke="black" d="M191.98,-2101.04C191.98,-2109.64 191.98,-2118.99 191.98,-2127.69"/>
<polygon fill="black" stroke="black" points="189.53,-2127.61 191.98,-2134.61 194.43,-2127.61 189.53,-2127.61"/>
</g>
<!-- mul_1_3pass3 -->
<g id="node25" class="node">
<title>mul_1_3pass3</title>
<ellipse fill="white" stroke="black" cx="191.98" cy="-2248.93" rx="57.98" ry="25.46"/>
<text text-anchor="start" x="161.23" y="-2250.63" font-family="Times,serif" font-weight="bold" font-size="14.00">mul_1_3:3</text>
<text text-anchor="start" x="158.98" y="-2236.63" font-family="Times,serif" font-size="14.00">5x5 (228 B)</text>
</g>
<!-- add_2_7pass3&#45;&gt;mul_1_3pass3 -->
<g id="edge24" class="edge">
<title>add_2_7pass3&#45;&gt;mul_1_3pass3</title>
<path fill="none" stroke="black" d="M191.98,-2187.58C191.98,-2196.04 191.98,-2205.67 191.98,-2214.7"/>
<polygon fill="black" stroke="black" points="189.53,-2214.62 191.98,-2221.62 194.43,-2214.62 189.53,-2214.62"/>
</g>
<!-- linear_2_4pass6 -->
<g id="node26" class="node">
<title>linear_2_4pass6</title>
<polygon fill="#e6e6e6" stroke="black" points="244.23,-2374.39 139.73,-2374.39 139.73,-2310.39 244.23,-2310.39 244.23,-2374.39"/>
<text text-anchor="start" x="155.98" y="-2358.09" font-family="Times,serif" font-weight="bold" font-size="14.00">linear_2_4:6</text>
<text text-anchor="start" x="158.98" y="-2344.09" font-family="Times,serif" font-size="14.00">5x5 (228 B)</text>
<text text-anchor="start" x="147.73" y="-2330.09" font-family="Times,serif" font-size="14.00">params: 5x5, x5</text>
<text text-anchor="start" x="171.73" y="-2316.09" font-family="Times,serif" font-size="14.00">@fc2:6</text>
</g>
<!-- mul_1_3pass3&#45;&gt;linear_2_4pass6 -->
<g id="edge25" class="edge">
<title>mul_1_3pass3&#45;&gt;linear_2_4pass6</title>
<path fill="none" stroke="black" d="M191.98,-2274.44C191.98,-2282.78 191.98,-2292.34 191.98,-2301.57"/>
<polygon fill="black" stroke="black" points="189.53,-2301.4 191.98,-2308.4 194.43,-2301.4 189.53,-2301.4"/>
</g>
<!-- log_1_5pass6 -->
<g id="node27" class="node">
<title>log_1_5pass6</title>
<ellipse fill="white" stroke="black" cx="57.98" cy="-2435.84" rx="57.98" ry="25.46"/>
<text text-anchor="start" x="30.23" y="-2437.54" font-family="Times,serif" font-weight="bold" font-size="14.00">log_1_5:6</text>
<text text-anchor="start" x="24.98" y="-2423.54" font-family="Times,serif" font-size="14.00">5x5 (228 B)</text>
</g>
<!-- linear_2_4pass6&#45;&gt;log_1_5pass6 -->
<g id="edge26" class="edge">
<title>linear_2_4pass6&#45;&gt;log_1_5pass6</title>
<path fill="none" stroke="black" d="M145.87,-2374.86C129.45,-2386.06 111.18,-2398.53 95.57,-2409.19"/>
<polygon fill="black" stroke="black" points="94.25,-2407.12 89.85,-2413.09 97.01,-2411.17 94.25,-2407.12"/>
</g>
<!-- tan_1_11 -->
<g id="node28" class="node">
<title>tan_1_11</title>
<ellipse fill="white" stroke="black" cx="191.98" cy="-2435.84" rx="57.98" ry="25.46"/>
<text text-anchor="start" x="165.73" y="-2437.54" font-family="Times,serif" font-weight="bold" font-size="14.00">tan_1_11</text>
<text text-anchor="start" x="158.98" y="-2423.54" font-family="Times,serif" font-size="14.00">5x5 (228 B)</text>
</g>
<!-- linear_2_4pass6&#45;&gt;tan_1_11 -->
<g id="edge27" class="edge">
<title>linear_2_4pass6&#45;&gt;tan_1_11</title>
<path fill="none" stroke="black" d="M191.98,-2374.86C191.98,-2383.46 191.98,-2392.81 191.98,-2401.52"/>
<polygon fill="black" stroke="black" points="189.53,-2401.44 191.98,-2408.44 194.43,-2401.44 189.53,-2401.44"/>
</g>
<!-- linear_2_4pass7 -->
<g id="node29" class="node">
<title>linear_2_4pass7</title>
<polygon fill="#e6e6e6" stroke="black" points="372.23,-2561.3 267.73,-2561.3 267.73,-2497.3 372.23,-2497.3 372.23,-2561.3"/>
<text text-anchor="start" x="283.98" y="-2545" font-family="Times,serif" font-weight="bold" font-size="14.00">linear_2_4:7</text>
<text text-anchor="start" x="286.98" y="-2531" font-family="Times,serif" font-size="14.00">5x5 (228 B)</text>
<text text-anchor="start" x="275.73" y="-2517" font-family="Times,serif" font-size="14.00">params: 5x5, x5</text>
<text text-anchor="start" x="299.73" y="-2503" font-family="Times,serif" font-size="14.00">@fc2:7</text>
</g>
<!-- linear_2_4pass6&#45;&gt;linear_2_4pass7 -->
<g id="edge28" class="edge">
<title>linear_2_4pass6&#45;&gt;linear_2_4pass7</title>
<path fill="none" stroke="black" d="M227.21,-2374.59C238.15,-2385.29 249.76,-2397.77 258.98,-2410.39 276.97,-2434.98 292.64,-2465.61 303.6,-2489.49"/>
<polygon fill="black" stroke="black" points="301.25,-2490.24 306.37,-2495.61 305.72,-2488.23 301.25,-2490.24"/>
</g>
<!-- sin_1_6pass2 -->
<g id="node30" class="node">
<title>sin_1_6pass2</title>
<ellipse fill="white" stroke="black" cx="57.98" cy="-2529.3" rx="57.98" ry="25.46"/>
<text text-anchor="start" x="30.61" y="-2531" font-family="Times,serif" font-weight="bold" font-size="14.00">sin_1_6:2</text>
<text text-anchor="start" x="24.98" y="-2517" font-family="Times,serif" font-size="14.00">5x5 (228 B)</text>
</g>
<!-- log_1_5pass6&#45;&gt;sin_1_6pass2 -->
<g id="edge29" class="edge">
<title>log_1_5pass6&#45;&gt;sin_1_6pass2</title>
<path fill="none" stroke="black" d="M57.98,-2461.35C57.98,-2471.72 57.98,-2483.97 57.98,-2495.13"/>
<polygon fill="black" stroke="black" points="55.53,-2494.89 57.98,-2501.89 60.43,-2494.89 55.53,-2494.89"/>
</g>
<!-- log_2_12 -->
<g id="node34" class="node">
<title>log_2_12</title>
<ellipse fill="white" stroke="black" cx="191.98" cy="-2529.3" rx="57.98" ry="25.46"/>
<text text-anchor="start" x="166.48" y="-2531" font-family="Times,serif" font-weight="bold" font-size="14.00">log_2_12</text>
<text text-anchor="start" x="158.98" y="-2517" font-family="Times,serif" font-size="14.00">5x5 (228 B)</text>
</g>
<!-- tan_1_11&#45;&gt;log_2_12 -->
<g id="edge33" class="edge">
<title>tan_1_11&#45;&gt;log_2_12</title>
<path fill="none" stroke="black" d="M191.98,-2461.35C191.98,-2471.72 191.98,-2483.97 191.98,-2495.13"/>
<polygon fill="black" stroke="black" points="189.53,-2494.89 191.98,-2501.89 194.43,-2494.89 189.53,-2494.89"/>
</g>
<!-- add_5_13 -->
<g id="node36" class="node">
<title>add_5_13</title>
<ellipse fill="white" stroke="black" cx="191.98" cy="-2722.75" rx="57.98" ry="25.46"/>
<text text-anchor="start" x="164.23" y="-2724.45" font-family="Times,serif" font-weight="bold" font-size="14.00">add_5_13</text>
<text text-anchor="start" x="158.98" y="-2710.45" font-family="Times,serif" font-size="14.00">5x5 (228 B)</text>
</g>
<!-- linear_2_4pass7&#45;&gt;add_5_13 -->
<g id="edge35" class="edge">
<title>linear_2_4pass7&#45;&gt;add_5_13</title>
<path fill="none" stroke="black" d="M307.38,-2561.53C295.48,-2589.12 276.05,-2629.75 252.98,-2661.3 244.6,-2672.76 234.01,-2684.06 224.02,-2693.73"/>
<polygon fill="black" stroke="black" points="222.4,-2691.9 219,-2698.49 225.77,-2695.46 222.4,-2691.9"/>
</g>
<!-- linear_1_2pass5 -->
<g id="node31" class="node">
<title>linear_1_2pass5</title>
<g id="a_node31"><a xlink:title="Failed to trace builtin operator&#10; &#160;Explanation: Dynamo does not know how to trace builtin operator `print` with argument types [&#39;str&#39;] (has_kwargs False)&#10; &#160;Hint: Avoid calling builtin `print` with argument types [&#39;str&#39;]. Consider using an equivalent alternative function/method to `print`.&#10; &#160;Hint: If you are attempting to call a logging function (e.g. `print`), you can try adding it to `torch._dynamo.config.reorderable_logging_functions`.&#10; &#160;Hint: Please report an issue to PyTorch.&#10;&#10; &#160;Developer debug context: builtin print [&lt;class &#39;torch._dynamo.variables.constant.ConstantVariable&#39;&gt;] False&#10;&#10;&#10;User Stack:&#10;/Users/taejunseo/Codes/torchlens&#45;HPML/tests/wbreaks_example_models.py:869&#10;">
<polygon fill="#e6e6e6" stroke="red" points="110.23,-2661.3 5.73,-2661.3 5.73,-2597.3 110.23,-2597.3 110.23,-2661.3"/>
<text text-anchor="start" x="21.98" y="-2645" font-family="Times,serif" font-weight="bold" font-size="14.00" fill="red">linear_1_2:5</text>
<text text-anchor="start" x="24.98" y="-2631" font-family="Times,serif" font-size="14.00" fill="red">5x5 (228 B)</text>
<text text-anchor="start" x="13.73" y="-2617" font-family="Times,serif" font-size="14.00" fill="red">params: 5x5, x5</text>
<text text-anchor="start" x="37.73" y="-2603" font-family="Times,serif" font-size="14.00" fill="red">@fc1:5</text>
</a>
</g>
</g>
<!-- sin_1_6pass2&#45;&gt;linear_1_2pass5 -->
<g id="edge30" class="edge">
<title>sin_1_6pass2&#45;&gt;linear_1_2pass5</title>
<path fill="none" stroke="black" d="M57.98,-2555.03C57.98,-2565.15 57.98,-2577.12 57.98,-2588.42"/>
<polygon fill="black" stroke="black" points="55.53,-2588.37 57.98,-2595.37 60.43,-2588.37 55.53,-2588.37"/>
</g>
<!-- add_4_10 -->
<g id="node32" class="node">
<title>add_4_10</title>
<ellipse fill="white" stroke="black" cx="57.98" cy="-2722.75" rx="57.98" ry="25.46"/>
<text text-anchor="start" x="30.23" y="-2724.45" font-family="Times,serif" font-weight="bold" font-size="14.00">add_4_10</text>
<text text-anchor="start" x="24.98" y="-2710.45" font-family="Times,serif" font-size="14.00">5x5 (228 B)</text>
</g>
<!-- linear_1_2pass5&#45;&gt;add_4_10 -->
<g id="edge31" class="edge">
<title>linear_1_2pass5&#45;&gt;add_4_10</title>
<path fill="none" stroke="red" d="M57.98,-2661.77C57.98,-2670.37 57.98,-2679.73 57.98,-2688.43"/>
<polygon fill="red" stroke="red" points="55.53,-2688.35 57.98,-2695.35 60.43,-2688.35 55.53,-2688.35"/>
</g>
<!-- mul_3_14 -->
<g id="node33" class="node">
<title>mul_3_14</title>
<ellipse fill="white" stroke="black" cx="124.98" cy="-2809.67" rx="57.98" ry="25.46"/>
<text text-anchor="start" x="96.48" y="-2811.37" font-family="Times,serif" font-weight="bold" font-size="14.00">mul_3_14</text>
<text text-anchor="start" x="91.98" y="-2797.37" font-family="Times,serif" font-size="14.00">5x5 (228 B)</text>
</g>
<!-- add_4_10&#45;&gt;mul_3_14 -->
<g id="edge32" class="edge">
<title>add_4_10&#45;&gt;mul_3_14</title>
<path fill="none" stroke="black" d="M76.29,-2746.96C83.98,-2756.7 93.03,-2768.17 101.22,-2778.56"/>
<polygon fill="black" stroke="black" points="99.27,-2780.03 105.53,-2784.01 103.11,-2776.99 99.27,-2780.03"/>
</g>
<!-- output_1 -->
<g id="node37" class="node">
<title>output_1</title>
<ellipse fill="#ff9999" stroke="black" cx="124.98" cy="-2906.48" rx="57.98" ry="35.36"/>
<text text-anchor="start" x="99.11" y="-2915.18" font-family="Times,serif" font-weight="bold" font-size="14.00">output_1</text>
<text text-anchor="start" x="91.98" y="-2901.18" font-family="Times,serif" font-size="14.00">5x5 (228 B)</text>
<text text-anchor="start" x="101.36" y="-2887.18" font-family="Times,serif" font-size="14.00">@output</text>
</g>
<!-- mul_3_14&#45;&gt;output_1 -->
<g id="edge38" class="edge">
<title>mul_3_14&#45;&gt;output_1</title>
<path fill="none" stroke="black" d="M124.98,-2835.58C124.98,-2843.81 124.98,-2853.22 124.98,-2862.41"/>
<polygon fill="black" stroke="black" points="122.53,-2862.24 124.98,-2869.24 127.43,-2862.24 122.53,-2862.24"/>
</g>
<!-- linear_2_4pass8 -->
<g id="node35" class="node">
<title>linear_2_4pass8</title>
<polygon fill="#e6e6e6" stroke="black" points="244.23,-2661.3 139.73,-2661.3 139.73,-2597.3 244.23,-2597.3 244.23,-2661.3"/>
<text text-anchor="start" x="155.98" y="-2645" font-family="Times,serif" font-weight="bold" font-size="14.00">linear_2_4:8</text>
<text text-anchor="start" x="158.98" y="-2631" font-family="Times,serif" font-size="14.00">5x5 (228 B)</text>
<text text-anchor="start" x="147.73" y="-2617" font-family="Times,serif" font-size="14.00">params: 5x5, x5</text>
<text text-anchor="start" x="171.73" y="-2603" font-family="Times,serif" font-size="14.00">@fc2:8</text>
</g>
<!-- log_2_12&#45;&gt;linear_2_4pass8 -->
<g id="edge34" class="edge">
<title>log_2_12&#45;&gt;linear_2_4pass8</title>
<path fill="none" stroke="black" d="M191.98,-2555.03C191.98,-2565.15 191.98,-2577.12 191.98,-2588.42"/>
<polygon fill="black" stroke="black" points="189.53,-2588.37 191.98,-2595.37 194.43,-2588.37 189.53,-2588.37"/>
</g>
<!-- linear_2_4pass8&#45;&gt;add_5_13 -->
<g id="edge36" class="edge">
<title>linear_2_4pass8&#45;&gt;add_5_13</title>
<path fill="none" stroke="black" d="M191.98,-2661.77C191.98,-2670.37 191.98,-2679.73 191.98,-2688.43"/>
<polygon fill="black" stroke="black" points="189.53,-2688.35 191.98,-2695.35 194.43,-2688.35 189.53,-2688.35"/>
</g>
<!-- add_5_13&#45;&gt;mul_3_14 -->
<g id="edge37" class="edge">
<title>add_5_13&#45;&gt;mul_3_14</title>
<path fill="none" stroke="black" d="M173.67,-2746.96C165.98,-2756.7 156.94,-2768.17 148.74,-2778.56"/>
<polygon fill="black" stroke="black" points="146.85,-2776.99 144.44,-2784.01 150.7,-2780.03 146.85,-2776.99"/>
</g>
</g>
</svg>
