<?xml version="1.0" encoding="UTF-8" standalone="no"?>
<!DOCTYPE svg PUBLIC "-//W3C//DTD SVG 1.1//EN"
 "http://www.w3.org/Graphics/SVG/1.1/DTD/svg11.dtd">
<!-- Generated by graphviz version 12.2.1 (20241206.2353)
 -->
<!-- Title: RecurrentParamsComplex Pages: 1 -->
<svg width="647pt" height="870pt"
 viewBox="0.00 0.00 647.39 869.98" xmlns="http://www.w3.org/2000/svg" xmlns:xlink="http://www.w3.org/1999/xlink">
<g id="graph0" class="graph" transform="scale(1 1) rotate(0) translate(4 865.98)">
<title>RecurrentParamsComplex</title>
<polygon fill="white" stroke="none" points="-4,4 -4,-865.98 643.39,-865.98 643.39,4 -4,4"/>
<text text-anchor="start" x="8" y="-845.68" font-family="Times,serif" font-weight="bold" font-size="14.00">RecurrentParamsComplex</text>
<text text-anchor="start" x="8" y="-831.68" font-family="Times,serif" font-size="14.00">37 tensors total (8.2 KB)</text>
<text text-anchor="start" x="8" y="-817.68" font-family="Times,serif" font-size="14.00">60 params total (720 B)</text>
<!-- input_1 -->
<g id="node1" class="node">
<title>input_1</title>
<ellipse fill="#98fb98" stroke="black" cx="390.41" cy="-35.36" rx="57.98" ry="35.36"/>
<text text-anchor="start" x="368.28" y="-44.06" font-family="Times,serif" font-weight="bold" font-size="14.00">input_1</text>
<text text-anchor="start" x="357.41" y="-30.06" font-family="Times,serif" font-size="14.00">5x5 (228 B)</text>
<text text-anchor="start" x="364.91" y="-16.06" font-family="Times,serif" font-size="14.00">@input.x</text>
</g>
<!-- add_1_1 -->
<g id="node2" class="node">
<title>add_1_1</title>
<ellipse fill="white" stroke="black" cx="390.41" cy="-132.17" rx="64.35" ry="25.46"/>
<text text-anchor="start" x="352.91" y="-133.87" font-family="Times,serif" font-weight="bold" font-size="14.00">add_1_1 (x2)</text>
<text text-anchor="start" x="357.41" y="-119.87" font-family="Times,serif" font-size="14.00">5x5 (228 B)</text>
</g>
<!-- input_1&#45;&gt;add_1_1 -->
<g id="edge1" class="edge">
<title>input_1&#45;&gt;add_1_1</title>
<path fill="none" stroke="black" d="M390.41,-71.12C390.41,-79.92 390.41,-89.35 390.41,-98.06"/>
<polygon fill="black" stroke="black" points="387.96,-97.98 390.41,-104.98 392.86,-97.98 387.96,-97.98"/>
</g>
<!-- linear_1_2 -->
<g id="node3" class="node">
<title>linear_1_2</title>
<polygon fill="#e6e6e6" stroke="black" points="442.66,-257.62 338.16,-257.62 338.16,-193.62 442.66,-193.62 442.66,-257.62"/>
<text text-anchor="start" x="346.91" y="-241.32" font-family="Times,serif" font-weight="bold" font-size="14.00">linear_1_2 (x5)</text>
<text text-anchor="start" x="357.41" y="-227.32" font-family="Times,serif" font-size="14.00">5x5 (228 B)</text>
<text text-anchor="start" x="346.16" y="-213.32" font-family="Times,serif" font-size="14.00">params: 5x5, x5</text>
<text text-anchor="start" x="375.41" y="-199.32" font-family="Times,serif" font-size="14.00">@fc1</text>
</g>
<!-- add_1_1&#45;&gt;linear_1_2 -->
<g id="edge2" class="edge">
<title>add_1_1&#45;&gt;linear_1_2</title>
<path fill="none" stroke="black" d="M390.41,-157.68C390.41,-166.02 390.41,-175.58 390.41,-184.81"/>
<polygon fill="black" stroke="black" points="387.96,-184.63 390.41,-191.63 392.86,-184.63 387.96,-184.63"/>
<text text-anchor="middle" x="379.53" y="-185.55" font-family="Times,serif" font-size="8.00"> &#160;In 1 &#160;</text>
</g>
<!-- mul_1_3 -->
<g id="node4" class="node">
<title>mul_1_3</title>
<ellipse fill="white" stroke="black" cx="214.41" cy="-405.99" rx="65.41" ry="25.46"/>
<text text-anchor="start" x="176.16" y="-407.69" font-family="Times,serif" font-weight="bold" font-size="14.00">mul_1_3 (x3)</text>
<text text-anchor="start" x="181.41" y="-393.69" font-family="Times,serif" font-size="14.00">5x5 (228 B)</text>
</g>
<!-- linear_1_2&#45;&gt;mul_1_3 -->
<g id="edge3" class="edge">
<title>linear_1_2&#45;&gt;mul_1_3</title>
<path fill="none" stroke="black" d="M337.85,-234.75C277.56,-245.28 184.32,-265.65 163.41,-293.62 144.47,-318.95 164.75,-352.43 185.07,-376.05"/>
<polygon fill="black" stroke="black" points="182.99,-377.41 189.48,-381 186.65,-374.15 182.99,-377.41"/>
<text text-anchor="middle" x="201.36" y="-374.53" font-family="Times,serif" font-size="8.00"> &#160;In 1 &#160;</text>
<text text-anchor="middle" x="324.35" y="-227.15" font-family="Times,serif" font-size="8.00"> &#160;Out 1 &#160;</text>
</g>
<!-- add_2_7 -->
<g id="node5" class="node">
<title>add_2_7</title>
<ellipse fill="white" stroke="black" cx="236.41" cy="-319.08" rx="64.35" ry="25.46"/>
<text text-anchor="start" x="198.91" y="-320.78" font-family="Times,serif" font-weight="bold" font-size="14.00">add_2_7 (x3)</text>
<text text-anchor="start" x="203.41" y="-306.78" font-family="Times,serif" font-size="14.00">5x5 (228 B)</text>
</g>
<!-- linear_1_2&#45;&gt;add_2_7 -->
<g id="edge4" class="edge">
<title>linear_1_2&#45;&gt;add_2_7</title>
<path fill="none" stroke="black" d="M337.84,-257.84C318.46,-269.35 296.77,-282.23 278.43,-293.12"/>
<polygon fill="black" stroke="black" points="277.39,-290.89 272.63,-296.57 279.9,-295.1 277.39,-290.89"/>
<text text-anchor="middle" x="257.45" y="-289.74" font-family="Times,serif" font-size="8.00"> &#160;In 1,3 &#160;</text>
<text text-anchor="middle" x="321.34" y="-250.24" font-family="Times,serif" font-size="8.00"> &#160;Out 2,4 &#160;</text>
</g>
<!-- add_3_9 -->
<g id="node6" class="node">
<title>add_3_9</title>
<g id="a_node6"><a xlink:title="Failed to trace builtin operator&#10; &#160;Explanation: Dynamo does not know how to trace builtin operator `print` with argument types [&#39;str&#39;] (has_kwargs False)&#10; &#160;Hint: Avoid calling builtin `print` with argument types [&#39;str&#39;]. Consider using an equivalent alternative function/method to `print`.&#10; &#160;Hint: If you are attempting to call a logging function (e.g. `print`), you can try adding it to `torch._dynamo.config.reorderable_logging_functions`.&#10; &#160;Hint: Please report an issue to PyTorch.&#10;&#10; &#160;Developer debug context: builtin print [&lt;class &#39;torch._dynamo.variables.constant.ConstantVariable&#39;&gt;] False&#10;&#10;&#10;User Stack:&#10;/Users/taejunseo/Codes/torchlens&#45;HPML/tests/wbreaks_example_models.py:860&#10;">
<ellipse fill="white" stroke="red" cx="393.41" cy="-405.99" rx="57.98" ry="25.46"/>
<text text-anchor="start" x="369.03" y="-407.69" font-family="Times,serif" font-weight="bold" font-size="14.00" fill="red">add_3_9</text>
<text text-anchor="start" x="360.41" y="-393.69" font-family="Times,serif" font-size="14.00" fill="red">5x5 (228 B)</text>
</a>
</g>
</g>
<!-- linear_1_2&#45;&gt;add_3_9 -->
<g id="edge5" class="edge">
<title>linear_1_2&#45;&gt;add_3_9</title>
<path fill="none" stroke="black" d="M390.94,-258.1C391.47,-290.05 392.3,-339.31 392.85,-371.85"/>
<polygon fill="black" stroke="black" points="390.4,-371.67 392.96,-378.63 395.3,-371.59 390.4,-371.67"/>
<text text-anchor="middle" x="377.44" y="-260.25" font-family="Times,serif" font-size="8.00"> &#160;Out 3 &#160;</text>
</g>
<!-- add_4_10 -->
<g id="node7" class="node">
<title>add_4_10</title>
<g id="a_node7"><a xlink:title="Failed to trace builtin operator&#10; &#160;Explanation: Dynamo does not know how to trace builtin operator `print` with argument types [&#39;str&#39;] (has_kwargs False)&#10; &#160;Hint: Avoid calling builtin `print` with argument types [&#39;str&#39;]. Consider using an equivalent alternative function/method to `print`.&#10; &#160;Hint: If you are attempting to call a logging function (e.g. `print`), you can try adding it to `torch._dynamo.config.reorderable_logging_functions`.&#10; &#160;Hint: Please report an issue to PyTorch.&#10;&#10; &#160;Developer debug context: builtin print [&lt;class &#39;torch._dynamo.variables.constant.ConstantVariable&#39;&gt;] False&#10;&#10;&#10;User Stack:&#10;/Users/taejunseo/Codes/torchlens&#45;HPML/tests/wbreaks_example_models.py:869&#10;">
<ellipse fill="white" stroke="red" cx="533.41" cy="-499.45" rx="57.98" ry="25.46"/>
<text text-anchor="start" x="505.66" y="-501.15" font-family="Times,serif" font-weight="bold" font-size="14.00" fill="red">add_4_10</text>
<text text-anchor="start" x="500.41" y="-487.15" font-family="Times,serif" font-size="14.00" fill="red">5x5 (228 B)</text>
</a>
</g>
</g>
<!-- linear_1_2&#45;&gt;add_4_10 -->
<g id="edge6" class="edge">
<title>linear_1_2&#45;&gt;add_4_10</title>
<path fill="none" stroke="black" d="M406.95,-258.07C434.49,-310.42 489.42,-414.83 516.92,-467.1"/>
<polygon fill="black" stroke="black" points="514.64,-468.03 520.07,-473.09 518.98,-465.75 514.64,-468.03"/>
<text text-anchor="middle" x="420.45" y="-260.22" font-family="Times,serif" font-size="8.00"> &#160;Out 5 &#160;</text>
</g>
<!-- linear_2_4 -->
<g id="node8" class="node">
<title>linear_2_4</title>
<polygon fill="#e6e6e6" stroke="black" points="439.66,-531.45 335.16,-531.45 335.16,-467.45 439.66,-467.45 439.66,-531.45"/>
<text text-anchor="start" x="343.91" y="-515.15" font-family="Times,serif" font-weight="bold" font-size="14.00">linear_2_4 (x8)</text>
<text text-anchor="start" x="354.41" y="-501.15" font-family="Times,serif" font-size="14.00">5x5 (228 B)</text>
<text text-anchor="start" x="343.16" y="-487.15" font-family="Times,serif" font-size="14.00">params: 5x5, x5</text>
<text text-anchor="start" x="372.41" y="-473.15" font-family="Times,serif" font-size="14.00">@fc2</text>
</g>
<!-- mul_1_3&#45;&gt;linear_2_4 -->
<g id="edge7" class="edge">
<title>mul_1_3&#45;&gt;linear_2_4</title>
<path fill="none" stroke="black" d="M252.37,-427.06C274.37,-438.69 302.56,-453.59 327.49,-466.77"/>
<polygon fill="black" stroke="black" points="326.1,-468.8 333.43,-469.91 328.39,-464.47 326.1,-468.8"/>
<text text-anchor="middle" x="317.89" y="-463.02" font-family="Times,serif" font-size="8.00"> &#160;In 1,3,6 &#160;</text>
<text text-anchor="middle" x="269.25" y="-429.21" font-family="Times,serif" font-size="8.00"> &#160;Out 1&#45;3 &#160;</text>
</g>
<!-- add_2_7&#45;&gt;mul_1_3 -->
<g id="edge18" class="edge">
<title>add_2_7&#45;&gt;mul_1_3</title>
<path fill="none" stroke="black" d="M230.04,-344.64C227.83,-353.19 225.31,-362.92 222.94,-372.04"/>
<polygon fill="black" stroke="black" points="220.6,-371.34 221.21,-378.73 225.34,-372.56 220.6,-371.34"/>
<text text-anchor="middle" x="235.08" y="-372.59" font-family="Times,serif" font-size="8.00"> &#160;In 2&#45;3 &#160;</text>
<text text-anchor="middle" x="213.17" y="-346.79" font-family="Times,serif" font-size="8.00"> &#160;Out 2&#45;3 &#160;</text>
</g>
<!-- mul_2_8 -->
<g id="node13" class="node">
<title>mul_2_8</title>
<ellipse fill="white" stroke="black" cx="65.41" cy="-405.99" rx="65.41" ry="25.46"/>
<text text-anchor="start" x="27.16" y="-407.69" font-family="Times,serif" font-weight="bold" font-size="14.00">mul_2_8 (x3)</text>
<text text-anchor="start" x="32.41" y="-393.69" font-family="Times,serif" font-size="14.00">5x5 (228 B)</text>
</g>
<!-- add_2_7&#45;&gt;mul_2_8 -->
<g id="edge17" class="edge">
<title>add_2_7&#45;&gt;mul_2_8</title>
<path fill="none" stroke="black" d="M193.62,-338.5C167.63,-350.8 134.62,-367.11 108.56,-380.49"/>
<polygon fill="black" stroke="black" points="107.5,-378.28 102.4,-383.67 109.74,-382.64 107.5,-378.28"/>
<text text-anchor="middle" x="180.12" y="-340.65" font-family="Times,serif" font-size="8.00"> &#160;Out 1 &#160;</text>
</g>
<!-- add_3_9&#45;&gt;linear_2_4 -->
<g id="edge20" class="edge">
<title>add_3_9&#45;&gt;linear_2_4</title>
<path fill="none" stroke="red" d="M391.8,-431.5C391.25,-439.84 390.63,-449.4 390.02,-458.63"/>
<polygon fill="red" stroke="red" points="387.59,-458.31 389.57,-465.46 392.47,-458.63 387.59,-458.31"/>
<text text-anchor="middle" x="378.6" y="-459.37" font-family="Times,serif" font-size="8.00" fill="red"> &#160;In 4 &#160;</text>
</g>
<!-- mul_3_14 -->
<g id="node14" class="node">
<title>mul_3_14</title>
<ellipse fill="white" stroke="black" cx="581.41" cy="-679.81" rx="57.98" ry="25.46"/>
<text text-anchor="start" x="552.91" y="-681.51" font-family="Times,serif" font-weight="bold" font-size="14.00">mul_3_14</text>
<text text-anchor="start" x="548.41" y="-667.51" font-family="Times,serif" font-size="14.00">5x5 (228 B)</text>
</g>
<!-- add_4_10&#45;&gt;mul_3_14 -->
<g id="edge21" class="edge">
<title>add_4_10&#45;&gt;mul_3_14</title>
<path fill="none" stroke="red" d="M543.08,-525.01C547.81,-537.58 553.34,-553.19 557.41,-567.45 564.87,-593.59 571.24,-623.76 575.53,-646.1"/>
<polygon fill="red" stroke="red" points="573.09,-646.34 576.8,-652.77 577.9,-645.43 573.09,-646.34"/>
</g>
<!-- linear_2_4&#45;&gt;linear_2_4 -->
<g id="edge10" class="edge">
<title>linear_2_4&#45;&gt;linear_2_4</title>
<path fill="none" stroke="black" d="M440.1,-482.7C450.37,-484.65 457.66,-490.23 457.66,-499.45 457.66,-506.07 453.89,-510.82 447.96,-513.69"/>
<polygon fill="black" stroke="black" points="447.47,-511.27 441.54,-515.73 448.96,-515.94 447.47,-511.27"/>
<text text-anchor="middle" x="450.98" y="-508.59" font-family="Times,serif" font-size="8.00"> &#160;In 7 &#160;</text>
<text text-anchor="middle" x="453.6" y="-475.1" font-family="Times,serif" font-size="8.00"> &#160;Out 6 &#160;</text>
</g>
<!-- log_1_5 -->
<g id="node9" class="node">
<title>log_1_5</title>
<ellipse fill="white" stroke="black" cx="148.41" cy="-592.9" rx="61.16" ry="25.46"/>
<text text-anchor="start" x="113.16" y="-594.6" font-family="Times,serif" font-weight="bold" font-size="14.00">log_1_5 (x6)</text>
<text text-anchor="start" x="115.41" y="-580.6" font-family="Times,serif" font-size="14.00">5x5 (228 B)</text>
</g>
<!-- linear_2_4&#45;&gt;log_1_5 -->
<g id="edge8" class="edge">
<title>linear_2_4&#45;&gt;log_1_5</title>
<path fill="none" stroke="black" d="M334.79,-521.76C327.29,-525.13 319.67,-528.48 312.41,-531.45 312.05,-531.59 247.64,-554.1 199.57,-571.6"/>
<polygon fill="black" stroke="black" points="198.87,-569.25 193.13,-573.95 200.55,-573.85 198.87,-569.25"/>
<text text-anchor="middle" x="205.96" y="-566.87" font-family="Times,serif" font-size="8.00"> &#160;In 1&#45;6 &#160;</text>
<text text-anchor="middle" x="317.92" y="-514.16" font-family="Times,serif" font-size="8.00"> &#160;Out 1&#45;6 &#160;</text>
</g>
<!-- tan_1_11 -->
<g id="node10" class="node">
<title>tan_1_11</title>
<ellipse fill="white" stroke="black" cx="285.41" cy="-592.9" rx="57.98" ry="25.46"/>
<text text-anchor="start" x="259.16" y="-594.6" font-family="Times,serif" font-weight="bold" font-size="14.00">tan_1_11</text>
<text text-anchor="start" x="252.41" y="-580.6" font-family="Times,serif" font-size="14.00">5x5 (228 B)</text>
</g>
<!-- linear_2_4&#45;&gt;tan_1_11 -->
<g id="edge9" class="edge">
<title>linear_2_4&#45;&gt;tan_1_11</title>
<path fill="none" stroke="black" d="M352.3,-531.92C340.64,-542.38 327.73,-553.95 316.4,-564.12"/>
<polygon fill="black" stroke="black" points="314.98,-562.09 311.4,-568.59 318.25,-565.74 314.98,-562.09"/>
<text text-anchor="middle" x="338.8" y="-534.07" font-family="Times,serif" font-size="8.00"> &#160;Out 6 &#160;</text>
</g>
<!-- add_5_13 -->
<g id="node11" class="node">
<title>add_5_13</title>
<ellipse fill="white" stroke="black" cx="419.41" cy="-592.9" rx="57.98" ry="25.46"/>
<text text-anchor="start" x="391.66" y="-594.6" font-family="Times,serif" font-weight="bold" font-size="14.00">add_5_13</text>
<text text-anchor="start" x="386.41" y="-580.6" font-family="Times,serif" font-size="14.00">5x5 (228 B)</text>
</g>
<!-- linear_2_4&#45;&gt;add_5_13 -->
<g id="edge11" class="edge">
<title>linear_2_4&#45;&gt;add_5_13</title>
<path fill="none" stroke="black" d="M398.42,-531.92C401.52,-540.78 404.9,-550.44 408.02,-559.36"/>
<polygon fill="black" stroke="black" points="405.68,-560.08 410.3,-565.87 410.3,-558.46 405.68,-560.08"/>
<text text-anchor="middle" x="381.54" y="-534.07" font-family="Times,serif" font-size="8.00"> &#160;Out 7&#45;8 &#160;</text>
</g>
<!-- log_1_5&#45;&gt;linear_1_2 -->
<g id="edge13" class="edge">
<title>log_1_5&#45;&gt;linear_1_2</title>
<path fill="none" stroke="black" d="M171.8,-569C201.41,-539.19 252.84,-484.6 288.41,-431.45 324.8,-377.05 356.6,-307.84 374.64,-265.41"/>
<polygon fill="black" stroke="black" points="376.79,-266.61 377.26,-259.2 372.28,-264.7 376.79,-266.61"/>
<text text-anchor="middle" x="392.1" y="-259.96" font-family="Times,serif" font-size="8.00"> &#160;In 2&#45;4 &#160;</text>
<text text-anchor="middle" x="151.92" y="-561.4" font-family="Times,serif" font-size="8.00"> &#160;Out 2&#45;3,5 &#160;</text>
</g>
<!-- log_1_5&#45;&gt;linear_2_4 -->
<g id="edge14" class="edge">
<title>log_1_5&#45;&gt;linear_2_4</title>
<path fill="none" stroke="black" d="M196.8,-577.16C241.85,-562.25 304.67,-540.44 326.78,-532.56"/>
<polygon fill="black" stroke="black" points="327.5,-534.9 333.24,-530.2 325.82,-530.3 327.5,-534.9"/>
<text text-anchor="middle" x="323.79" y="-522.08" font-family="Times,serif" font-size="8.00"> &#160;In 5 &#160;</text>
<text text-anchor="middle" x="210.3" y="-579.31" font-family="Times,serif" font-size="8.00"> &#160;Out 4 &#160;</text>
</g>
<!-- sin_1_6 -->
<g id="node12" class="node">
<title>sin_1_6</title>
<ellipse fill="white" stroke="black" cx="444.41" cy="-679.81" rx="60.63" ry="25.46"/>
<text text-anchor="start" x="409.53" y="-681.51" font-family="Times,serif" font-weight="bold" font-size="14.00">sin_1_6 (x2)</text>
<text text-anchor="start" x="411.41" y="-667.51" font-family="Times,serif" font-size="14.00">5x5 (228 B)</text>
</g>
<!-- log_1_5&#45;&gt;sin_1_6 -->
<g id="edge12" class="edge">
<title>log_1_5&#45;&gt;sin_1_6</title>
<path fill="none" stroke="black" d="M193.77,-610.44C201.93,-613.21 210.39,-615.97 218.41,-618.36 282.04,-637.33 299.38,-636.76 363.41,-654.36 371.56,-656.6 380.15,-659.07 388.56,-661.56"/>
<polygon fill="black" stroke="black" points="387.69,-663.85 395.1,-663.5 389.09,-659.16 387.69,-663.85"/>
<text text-anchor="middle" x="382.3" y="-656.33" font-family="Times,serif" font-size="8.00"> &#160;In 1&#45;2 &#160;</text>
<text text-anchor="middle" x="210.27" y="-612.59" font-family="Times,serif" font-size="8.00"> &#160;Out 1,6 &#160;</text>
</g>
<!-- log_2_12 -->
<g id="node15" class="node">
<title>log_2_12</title>
<ellipse fill="white" stroke="black" cx="296.41" cy="-679.81" rx="57.98" ry="25.46"/>
<text text-anchor="start" x="270.91" y="-681.51" font-family="Times,serif" font-weight="bold" font-size="14.00">log_2_12</text>
<text text-anchor="start" x="263.41" y="-667.51" font-family="Times,serif" font-size="14.00">5x5 (228 B)</text>
</g>
<!-- tan_1_11&#45;&gt;log_2_12 -->
<g id="edge22" class="edge">
<title>tan_1_11&#45;&gt;log_2_12</title>
<path fill="none" stroke="black" d="M288.59,-618.46C289.69,-626.92 290.93,-636.55 292.1,-645.59"/>
<polygon fill="black" stroke="black" points="289.67,-645.89 293,-652.51 294.53,-645.26 289.67,-645.89"/>
</g>
<!-- add_5_13&#45;&gt;mul_3_14 -->
<g id="edge24" class="edge">
<title>add_5_13&#45;&gt;mul_3_14</title>
<path fill="none" stroke="black" d="M455.76,-612.96C479.96,-625.64 511.89,-642.38 537.51,-655.8"/>
<polygon fill="black" stroke="black" points="536.21,-657.89 543.55,-658.97 538.49,-653.55 536.21,-657.89"/>
</g>
<!-- sin_1_6&#45;&gt;linear_1_2 -->
<g id="edge16" class="edge">
<title>sin_1_6&#45;&gt;linear_1_2</title>
<path fill="none" stroke="black" d="M484.12,-660.28C535.75,-633.1 619.41,-577.23 619.41,-500.45 619.41,-404.99 619.41,-404.99 619.41,-404.99 619.41,-319.35 518.48,-268.8 450.63,-244.5"/>
<polygon fill="black" stroke="black" points="451.79,-242.31 444.37,-242.31 450.17,-246.94 451.79,-242.31"/>
<text text-anchor="middle" x="453.82" y="-234.21" font-family="Times,serif" font-size="8.00"> &#160;In 5 &#160;</text>
<text text-anchor="middle" x="497.62" y="-652.68" font-family="Times,serif" font-size="8.00"> &#160;Out 2 &#160;</text>
</g>
<!-- sin_1_6&#45;&gt;linear_2_4 -->
<g id="edge15" class="edge">
<title>sin_1_6&#45;&gt;linear_2_4</title>
<path fill="none" stroke="black" d="M465.48,-655.63C473.71,-645.06 482.17,-631.89 486.41,-618.36 493.17,-596.76 497.01,-587.43 486.41,-567.45 477.63,-550.91 462.75,-537.71 447.16,-527.55"/>
<polygon fill="black" stroke="black" points="448.49,-525.49 441.25,-523.89 445.91,-529.66 448.49,-525.49"/>
<text text-anchor="middle" x="450.84" y="-525.24" font-family="Times,serif" font-size="8.00"> &#160;In 2 &#160;</text>
<text text-anchor="middle" x="451.98" y="-648.03" font-family="Times,serif" font-size="8.00"> &#160;Out 1 &#160;</text>
</g>
<!-- mul_2_8&#45;&gt;add_2_7 -->
<g id="edge19" class="edge">
<title>mul_2_8&#45;&gt;add_2_7</title>
<path fill="none" stroke="black" d="M108.32,-386.5C134.34,-374.19 167.36,-357.88 193.4,-344.5"/>
<polygon fill="black" stroke="black" points="194.45,-346.72 199.55,-341.33 192.2,-342.36 194.45,-346.72"/>
<text text-anchor="middle" x="211.77" y="-333.03" font-family="Times,serif" font-size="8.00"> &#160;In 2 &#160;</text>
</g>
<!-- output_1 -->
<g id="node16" class="node">
<title>output_1</title>
<ellipse fill="#ff9999" stroke="black" cx="581.41" cy="-776.62" rx="57.98" ry="35.36"/>
<text text-anchor="start" x="555.53" y="-785.32" font-family="Times,serif" font-weight="bold" font-size="14.00">output_1</text>
<text text-anchor="start" x="548.41" y="-771.32" font-family="Times,serif" font-size="14.00">5x5 (228 B)</text>
<text text-anchor="start" x="557.78" y="-757.32" font-family="Times,serif" font-size="14.00">@output</text>
</g>
<!-- mul_3_14&#45;&gt;output_1 -->
<g id="edge25" class="edge">
<title>mul_3_14&#45;&gt;output_1</title>
<path fill="none" stroke="black" d="M581.41,-705.72C581.41,-713.96 581.41,-723.37 581.41,-732.56"/>
<polygon fill="black" stroke="black" points="578.96,-732.39 581.41,-739.39 583.86,-732.39 578.96,-732.39"/>
</g>
<!-- log_2_12&#45;&gt;linear_2_4 -->
<g id="edge23" class="edge">
<title>log_2_12&#45;&gt;linear_2_4</title>
<path fill="none" stroke="black" d="M342.71,-664.26C398.78,-646.61 485.85,-619.11 486.41,-618.36 499.76,-600.09 497.01,-587.43 486.41,-567.45 477.63,-550.91 462.75,-537.71 447.16,-527.55"/>
<polygon fill="black" stroke="black" points="448.49,-525.49 441.25,-523.89 445.91,-529.66 448.49,-525.49"/>
<text text-anchor="middle" x="450.84" y="-515.49" font-family="Times,serif" font-size="8.00"> &#160;In 8 &#160;</text>
</g>
</g>
</svg>
