<?xml version="1.0" encoding="UTF-8" standalone="no"?>
<!DOCTYPE svg PUBLIC "-//W3C//DTD SVG 1.1//EN"
 "http://www.w3.org/Graphics/SVG/1.1/DTD/svg11.dtd">
<!-- Generated by graphviz version 12.2.1 (20241206.2353)
 -->
<!-- Title: RecurrentParamsSimple Pages: 1 -->
<svg width="362pt" height="596pt"
 viewBox="0.00 0.00 362.39 596.16" xmlns="http://www.w3.org/2000/svg" xmlns:xlink="http://www.w3.org/1999/xlink">
<g id="graph0" class="graph" transform="scale(1 1) rotate(0) translate(4 592.16)">
<title>RecurrentParamsSimple</title>
<polygon fill="white" stroke="none" points="-4,4 -4,-592.16 358.39,-592.16 358.39,4 -4,4"/>
<text text-anchor="start" x="8" y="-571.86" font-family="Times,serif" font-weight="bold" font-size="14.00">RecurrentParamsSimple</text>
<text text-anchor="start" x="8" y="-557.86" font-family="Times,serif" font-size="14.00">12 tensors total (2.7 KB)</text>
<text text-anchor="start" x="8" y="-543.86" font-family="Times,serif" font-size="14.00">30 params total (360 B)</text>
<!-- input_1 -->
<g id="node1" class="node">
<title>input_1</title>
<ellipse fill="#98fb98" stroke="black" cx="137.41" cy="-35.36" rx="57.98" ry="35.36"/>
<text text-anchor="start" x="115.28" y="-44.06" font-family="Times,serif" font-weight="bold" font-size="14.00">input_1</text>
<text text-anchor="start" x="104.41" y="-30.06" font-family="Times,serif" font-size="14.00">5x5 (228 B)</text>
<text text-anchor="start" x="111.91" y="-16.06" font-family="Times,serif" font-size="14.00">@input.x</text>
</g>
<!-- add_1_1 -->
<g id="node2" class="node">
<title>add_1_1</title>
<ellipse fill="white" stroke="black" cx="137.41" cy="-132.17" rx="57.98" ry="25.46"/>
<text text-anchor="start" x="113.03" y="-133.87" font-family="Times,serif" font-weight="bold" font-size="14.00">add_1_1</text>
<text text-anchor="start" x="104.41" y="-119.87" font-family="Times,serif" font-size="14.00">5x5 (228 B)</text>
</g>
<!-- input_1&#45;&gt;add_1_1 -->
<g id="edge1" class="edge">
<title>input_1&#45;&gt;add_1_1</title>
<path fill="none" stroke="black" d="M137.41,-71.12C137.41,-79.92 137.41,-89.35 137.41,-98.06"/>
<polygon fill="black" stroke="black" points="134.96,-97.98 137.41,-104.98 139.86,-97.98 134.96,-97.98"/>
</g>
<!-- linear_1_2 -->
<g id="node3" class="node">
<title>linear_1_2</title>
<g id="a_node3"><a xlink:title="Failed to trace builtin operator&#10; &#160;Explanation: Dynamo does not know how to trace builtin operator `print` with argument types [&#39;str&#39;] (has_kwargs False)&#10; &#160;Hint: Avoid calling builtin `print` with argument types [&#39;str&#39;]. Consider using an equivalent alternative function/method to `print`.&#10; &#160;Hint: If you are attempting to call a logging function (e.g. `print`), you can try adding it to `torch._dynamo.config.reorderable_logging_functions`.&#10; &#160;Hint: Please report an issue to PyTorch.&#10;&#10; &#160;Developer debug context: builtin print [&lt;class &#39;torch._dynamo.variables.constant.ConstantVariable&#39;&gt;] False&#10;&#10;&#10;User Stack:&#10;/Users/taejunseo/Codes/torchlens&#45;HPML/tests/wbreaks_example_models.py:819&#10;">
<polygon fill="#e6e6e6" stroke="red" points="189.66,-257.62 85.16,-257.62 85.16,-193.62 189.66,-193.62 189.66,-257.62"/>
<text text-anchor="start" x="93.91" y="-241.32" font-family="Times,serif" font-weight="bold" font-size="14.00" fill="red">linear_1_2 (x4)</text>
<text text-anchor="start" x="104.41" y="-227.32" font-family="Times,serif" font-size="14.00" fill="red">5x5 (228 B)</text>
<text text-anchor="start" x="93.16" y="-213.32" font-family="Times,serif" font-size="14.00" fill="red">params: 5x5, x5</text>
<text text-anchor="start" x="122.41" y="-199.32" font-family="Times,serif" font-size="14.00" fill="red">@fc1</text>
</a>
</g>
</g>
<!-- add_1_1&#45;&gt;linear_1_2 -->
<g id="edge2" class="edge">
<title>add_1_1&#45;&gt;linear_1_2</title>
<path fill="none" stroke="black" d="M137.41,-157.68C137.41,-166.02 137.41,-175.58 137.41,-184.81"/>
<polygon fill="black" stroke="black" points="134.96,-184.63 137.41,-191.63 139.86,-184.63 134.96,-184.63"/>
<text text-anchor="middle" x="126.53" y="-185.55" font-family="Times,serif" font-size="8.00"> &#160;In 1 &#160;</text>
</g>
<!-- mul_1_3 -->
<g id="node4" class="node">
<title>mul_1_3</title>
<ellipse fill="white" stroke="black" cx="65.41" cy="-319.08" rx="65.41" ry="25.46"/>
<text text-anchor="start" x="27.16" y="-320.78" font-family="Times,serif" font-weight="bold" font-size="14.00">mul_1_3 (x2)</text>
<text text-anchor="start" x="32.41" y="-306.78" font-family="Times,serif" font-size="14.00">5x5 (228 B)</text>
</g>
<!-- linear_1_2&#45;&gt;mul_1_3 -->
<g id="edge3" class="edge">
<title>linear_1_2&#45;&gt;mul_1_3</title>
<path fill="none" stroke="red" d="M106.18,-258.1C98.37,-267.49 90.28,-277.78 83.34,-287.14"/>
<polygon fill="red" stroke="red" points="81.54,-285.45 79.39,-292.55 85.5,-288.34 81.54,-285.45"/>
<text text-anchor="middle" x="89.68" y="-260.25" font-family="Times,serif" font-size="8.00" fill="red"> &#160;Out 1,3 &#160;</text>
</g>
<!-- log_1_4 -->
<g id="node5" class="node">
<title>log_1_4</title>
<g id="a_node5"><a xlink:title="Failed to trace builtin operator&#10; &#160;Explanation: Dynamo does not know how to trace builtin operator `print` with argument types [&#39;str&#39;] (has_kwargs False)&#10; &#160;Hint: Avoid calling builtin `print` with argument types [&#39;str&#39;]. Consider using an equivalent alternative function/method to `print`.&#10; &#160;Hint: If you are attempting to call a logging function (e.g. `print`), you can try adding it to `torch._dynamo.config.reorderable_logging_functions`.&#10; &#160;Hint: Please report an issue to PyTorch.&#10;&#10; &#160;Developer debug context: builtin print [&lt;class &#39;torch._dynamo.variables.constant.ConstantVariable&#39;&gt;] False&#10;&#10;&#10;User Stack:&#10;/Users/taejunseo/Codes/torchlens&#45;HPML/tests/wbreaks_example_models.py:823&#10;">
<ellipse fill="white" stroke="red" cx="210.41" cy="-319.08" rx="61.16" ry="25.46"/>
<text text-anchor="start" x="175.16" y="-320.78" font-family="Times,serif" font-weight="bold" font-size="14.00" fill="red">log_1_4 (x2)</text>
<text text-anchor="start" x="177.41" y="-306.78" font-family="Times,serif" font-size="14.00" fill="red">5x5 (228 B)</text>
</a>
</g>
</g>
<!-- linear_1_2&#45;&gt;log_1_4 -->
<g id="edge4" class="edge">
<title>linear_1_2&#45;&gt;log_1_4</title>
<path fill="none" stroke="red" d="M162.53,-258.1C170.3,-267.84 178.84,-278.53 186.53,-288.17"/>
<polygon fill="red" stroke="red" points="184.47,-289.51 190.75,-293.45 188.3,-286.46 184.47,-289.51"/>
<text text-anchor="middle" x="205.95" y="-287.04" font-family="Times,serif" font-size="8.00" fill="red"> &#160;In 1&#45;2 &#160;</text>
<text text-anchor="middle" x="146.03" y="-260.25" font-family="Times,serif" font-size="8.00" fill="red"> &#160;Out 2,4 &#160;</text>
</g>
<!-- mul_1_3&#45;&gt;linear_1_2 -->
<g id="edge5" class="edge">
<title>mul_1_3&#45;&gt;linear_1_2</title>
<path fill="none" stroke="black" d="M89.35,-295.21C97.31,-286 106.11,-275.13 114.03,-264.79"/>
<polygon fill="black" stroke="black" points="115.91,-266.37 118.17,-259.3 111.99,-263.42 115.91,-266.37"/>
<text text-anchor="middle" x="119.08" y="-260.25" font-family="Times,serif" font-size="8.00"> &#160;In 2,4 &#160;</text>
</g>
<!-- tan_1_5 -->
<g id="node6" class="node">
<title>tan_1_5</title>
<ellipse fill="white" stroke="black" cx="210.41" cy="-405.99" rx="57.98" ry="25.46"/>
<text text-anchor="start" x="187.53" y="-407.69" font-family="Times,serif" font-weight="bold" font-size="14.00">tan_1_5</text>
<text text-anchor="start" x="177.41" y="-393.69" font-family="Times,serif" font-size="14.00">5x5 (228 B)</text>
</g>
<!-- log_1_4&#45;&gt;tan_1_5 -->
<g id="edge6" class="edge">
<title>log_1_4&#45;&gt;tan_1_5</title>
<path fill="none" stroke="red" d="M210.41,-344.64C210.41,-353.1 210.41,-362.72 210.41,-371.76"/>
<polygon fill="red" stroke="red" points="207.96,-371.68 210.41,-378.68 212.86,-371.68 207.96,-371.68"/>
<text text-anchor="middle" x="196.91" y="-346.79" font-family="Times,serif" font-size="8.00" fill="red"> &#160;Out 1 &#160;</text>
</g>
<!-- output_1 -->
<g id="node7" class="node">
<title>output_1</title>
<ellipse fill="#ff9999" stroke="black" cx="296.41" cy="-502.8" rx="57.98" ry="35.36"/>
<text text-anchor="start" x="270.53" y="-511.5" font-family="Times,serif" font-weight="bold" font-size="14.00">output_1</text>
<text text-anchor="start" x="263.41" y="-497.5" font-family="Times,serif" font-size="14.00">5x5 (228 B)</text>
<text text-anchor="start" x="272.78" y="-483.5" font-family="Times,serif" font-size="14.00">@output</text>
</g>
<!-- log_1_4&#45;&gt;output_1 -->
<g id="edge7" class="edge">
<title>log_1_4&#45;&gt;output_1</title>
<path fill="none" stroke="red" d="M242.23,-341.3C255.19,-351.6 269.06,-365.1 277.41,-380.53 290.34,-404.42 295.1,-434.59 296.63,-458.86"/>
<polygon fill="red" stroke="red" points="294.17,-458.79 296.96,-465.66 299.06,-458.55 294.17,-458.79"/>
<text text-anchor="middle" x="228.73" y="-343.45" font-family="Times,serif" font-size="8.00" fill="red"> &#160;Out 2 &#160;</text>
</g>
<!-- tan_1_5&#45;&gt;linear_1_2 -->
<g id="edge8" class="edge">
<title>tan_1_5&#45;&gt;linear_1_2</title>
<path fill="none" stroke="black" d="M244.46,-384.92C258.33,-374.75 272.86,-361.03 280.41,-344.53 289.82,-323.96 292.55,-312.72 280.41,-293.62 262.25,-265.06 228.34,-248.46 198.1,-238.93"/>
<polygon fill="black" stroke="black" points="198.95,-236.63 191.55,-236.98 197.55,-241.33 198.95,-236.63"/>
<text text-anchor="middle" x="200.97" y="-228.94" font-family="Times,serif" font-size="8.00"> &#160;In 3 &#160;</text>
</g>
</g>
</svg>
