<?xml version="1.0" encoding="UTF-8" standalone="no"?>
<!DOCTYPE svg PUBLIC "-//W3C//DTD SVG 1.1//EN"
 "http://www.w3.org/Graphics/SVG/1.1/DTD/svg11.dtd">
<!-- Generated by graphviz version 12.2.1 (20241206.2353)
 -->
<!-- Title: RecurrentParamsSimple Pages: 1 -->
<svg width="169pt" height="1157pt"
 viewBox="0.00 0.00 168.75 1156.89" xmlns="http://www.w3.org/2000/svg" xmlns:xlink="http://www.w3.org/1999/xlink">
<g id="graph0" class="graph" transform="scale(1 1) rotate(0) translate(4 1152.89)">
<title>RecurrentParamsSimple</title>
<polygon fill="white" stroke="none" points="-4,4 -4,-1152.89 164.75,-1152.89 164.75,4 -4,4"/>
<text text-anchor="start" x="8" y="-1132.59" font-family="Times,serif" font-weight="bold" font-size="14.00">RecurrentParamsSimple</text>
<text text-anchor="start" x="8" y="-1118.59" font-family="Times,serif" font-size="14.00">12 tensors total (2.7 KB)</text>
<text text-anchor="start" x="8" y="-1104.59" font-family="Times,serif" font-size="14.00">30 params total (360 B)</text>
<!-- input_1 -->
<g id="node1" class="node">
<title>input_1</title>
<ellipse fill="#98fb98" stroke="black" cx="80.38" cy="-35.36" rx="57.98" ry="35.36"/>
<text text-anchor="start" x="58.25" y="-44.06" font-family="Times,serif" font-weight="bold" font-size="14.00">input_1</text>
<text text-anchor="start" x="47.38" y="-30.06" font-family="Times,serif" font-size="14.00">5x5 (228 B)</text>
<text text-anchor="start" x="54.88" y="-16.06" font-family="Times,serif" font-size="14.00">@input.x</text>
</g>
<!-- add_1_1 -->
<g id="node2" class="node">
<title>add_1_1</title>
<ellipse fill="white" stroke="black" cx="80.38" cy="-132.17" rx="57.98" ry="25.46"/>
<text text-anchor="start" x="56" y="-133.87" font-family="Times,serif" font-weight="bold" font-size="14.00">add_1_1</text>
<text text-anchor="start" x="47.38" y="-119.87" font-family="Times,serif" font-size="14.00">5x5 (228 B)</text>
</g>
<!-- input_1&#45;&gt;add_1_1 -->
<g id="edge1" class="edge">
<title>input_1&#45;&gt;add_1_1</title>
<path fill="none" stroke="black" d="M80.38,-71.12C80.38,-79.92 80.38,-89.35 80.38,-98.06"/>
<polygon fill="black" stroke="black" points="77.93,-97.98 80.38,-104.98 82.83,-97.98 77.93,-97.98"/>
</g>
<!-- linear_1_2pass1 -->
<g id="node3" class="node">
<title>linear_1_2pass1</title>
<g id="a_node3"><a xlink:title="Failed to trace builtin operator&#10; &#160;Explanation: Dynamo does not know how to trace builtin operator `print` with argument types [&#39;str&#39;] (has_kwargs False)&#10; &#160;Hint: Avoid calling builtin `print` with argument types [&#39;str&#39;]. Consider using an equivalent alternative function/method to `print`.&#10; &#160;Hint: If you are attempting to call a logging function (e.g. `print`), you can try adding it to `torch._dynamo.config.reorderable_logging_functions`.&#10; &#160;Hint: Please report an issue to PyTorch.&#10;&#10; &#160;Developer debug context: builtin print [&lt;class &#39;torch._dynamo.variables.constant.ConstantVariable&#39;&gt;] False&#10;&#10;&#10;User Stack:&#10;/Users/taejunseo/Codes/torchlens&#45;HPML/tests/wbreaks_example_models.py:819&#10;">
<polygon fill="#e6e6e6" stroke="red" points="132.62,-257.62 28.12,-257.62 28.12,-193.62 132.62,-193.62 132.62,-257.62"/>
<text text-anchor="start" x="44.38" y="-241.32" font-family="Times,serif" font-weight="bold" font-size="14.00" fill="red">linear_1_2:1</text>
<text text-anchor="start" x="47.38" y="-227.32" font-family="Times,serif" font-size="14.00" fill="red">5x5 (228 B)</text>
<text text-anchor="start" x="36.12" y="-213.32" font-family="Times,serif" font-size="14.00" fill="red">params: 5x5, x5</text>
<text text-anchor="start" x="60.12" y="-199.32" font-family="Times,serif" font-size="14.00" fill="red">@fc1:1</text>
</a>
</g>
</g>
<!-- add_1_1&#45;&gt;linear_1_2pass1 -->
<g id="edge2" class="edge">
<title>add_1_1&#45;&gt;linear_1_2pass1</title>
<path fill="none" stroke="black" d="M80.38,-157.68C80.38,-166.02 80.38,-175.58 80.38,-184.81"/>
<polygon fill="black" stroke="black" points="77.93,-184.63 80.38,-191.63 82.83,-184.63 77.93,-184.63"/>
</g>
<!-- mul_1_3pass1 -->
<g id="node4" class="node">
<title>mul_1_3pass1</title>
<ellipse fill="white" stroke="black" cx="80.38" cy="-319.08" rx="57.98" ry="25.46"/>
<text text-anchor="start" x="49.62" y="-320.78" font-family="Times,serif" font-weight="bold" font-size="14.00">mul_1_3:1</text>
<text text-anchor="start" x="47.38" y="-306.78" font-family="Times,serif" font-size="14.00">5x5 (228 B)</text>
</g>
<!-- linear_1_2pass1&#45;&gt;mul_1_3pass1 -->
<g id="edge3" class="edge">
<title>linear_1_2pass1&#45;&gt;mul_1_3pass1</title>
<path fill="none" stroke="red" d="M80.38,-258.1C80.38,-266.7 80.38,-276.05 80.38,-284.75"/>
<polygon fill="red" stroke="red" points="77.93,-284.67 80.38,-291.67 82.83,-284.67 77.93,-284.67"/>
</g>
<!-- linear_1_2pass2 -->
<g id="node5" class="node">
<title>linear_1_2pass2</title>
<polygon fill="#e6e6e6" stroke="black" points="132.62,-444.53 28.12,-444.53 28.12,-380.53 132.62,-380.53 132.62,-444.53"/>
<text text-anchor="start" x="44.38" y="-428.23" font-family="Times,serif" font-weight="bold" font-size="14.00">linear_1_2:2</text>
<text text-anchor="start" x="47.38" y="-414.23" font-family="Times,serif" font-size="14.00">5x5 (228 B)</text>
<text text-anchor="start" x="36.12" y="-400.23" font-family="Times,serif" font-size="14.00">params: 5x5, x5</text>
<text text-anchor="start" x="60.12" y="-386.23" font-family="Times,serif" font-size="14.00">@fc1:2</text>
</g>
<!-- mul_1_3pass1&#45;&gt;linear_1_2pass2 -->
<g id="edge4" class="edge">
<title>mul_1_3pass1&#45;&gt;linear_1_2pass2</title>
<path fill="none" stroke="black" d="M80.38,-344.59C80.38,-352.93 80.38,-362.49 80.38,-371.72"/>
<polygon fill="black" stroke="black" points="77.93,-371.54 80.38,-378.54 82.83,-371.54 77.93,-371.54"/>
</g>
<!-- log_1_4pass1 -->
<g id="node6" class="node">
<title>log_1_4pass1</title>
<g id="a_node6"><a xlink:title="Failed to trace builtin operator&#10; &#160;Explanation: Dynamo does not know how to trace builtin operator `print` with argument types [&#39;str&#39;] (has_kwargs False)&#10; &#160;Hint: Avoid calling builtin `print` with argument types [&#39;str&#39;]. Consider using an equivalent alternative function/method to `print`.&#10; &#160;Hint: If you are attempting to call a logging function (e.g. `print`), you can try adding it to `torch._dynamo.config.reorderable_logging_functions`.&#10; &#160;Hint: Please report an issue to PyTorch.&#10;&#10; &#160;Developer debug context: builtin print [&lt;class &#39;torch._dynamo.variables.constant.ConstantVariable&#39;&gt;] False&#10;&#10;&#10;User Stack:&#10;/Users/taejunseo/Codes/torchlens&#45;HPML/tests/wbreaks_example_models.py:823&#10;">
<ellipse fill="white" stroke="red" cx="80.38" cy="-505.99" rx="57.98" ry="25.46"/>
<text text-anchor="start" x="52.62" y="-507.69" font-family="Times,serif" font-weight="bold" font-size="14.00" fill="red">log_1_4:1</text>
<text text-anchor="start" x="47.38" y="-493.69" font-family="Times,serif" font-size="14.00" fill="red">5x5 (228 B)</text>
</a>
</g>
</g>
<!-- linear_1_2pass2&#45;&gt;log_1_4pass1 -->
<g id="edge5" class="edge">
<title>linear_1_2pass2&#45;&gt;log_1_4pass1</title>
<path fill="none" stroke="black" d="M80.38,-445.01C80.38,-453.61 80.38,-462.96 80.38,-471.66"/>
<polygon fill="black" stroke="black" points="77.93,-471.59 80.38,-478.59 82.83,-471.59 77.93,-471.59"/>
</g>
<!-- tan_1_5 -->
<g id="node7" class="node">
<title>tan_1_5</title>
<ellipse fill="white" stroke="black" cx="80.38" cy="-592.9" rx="57.98" ry="25.46"/>
<text text-anchor="start" x="57.5" y="-594.6" font-family="Times,serif" font-weight="bold" font-size="14.00">tan_1_5</text>
<text text-anchor="start" x="47.38" y="-580.6" font-family="Times,serif" font-size="14.00">5x5 (228 B)</text>
</g>
<!-- log_1_4pass1&#45;&gt;tan_1_5 -->
<g id="edge6" class="edge">
<title>log_1_4pass1&#45;&gt;tan_1_5</title>
<path fill="none" stroke="red" d="M80.38,-531.55C80.38,-540.01 80.38,-549.64 80.38,-558.67"/>
<polygon fill="red" stroke="red" points="77.93,-558.59 80.38,-565.59 82.83,-558.59 77.93,-558.59"/>
</g>
<!-- linear_1_2pass3 -->
<g id="node8" class="node">
<title>linear_1_2pass3</title>
<polygon fill="#e6e6e6" stroke="black" points="132.62,-718.36 28.12,-718.36 28.12,-654.36 132.62,-654.36 132.62,-718.36"/>
<text text-anchor="start" x="44.38" y="-702.06" font-family="Times,serif" font-weight="bold" font-size="14.00">linear_1_2:3</text>
<text text-anchor="start" x="47.38" y="-688.06" font-family="Times,serif" font-size="14.00">5x5 (228 B)</text>
<text text-anchor="start" x="36.12" y="-674.06" font-family="Times,serif" font-size="14.00">params: 5x5, x5</text>
<text text-anchor="start" x="60.12" y="-660.06" font-family="Times,serif" font-size="14.00">@fc1:3</text>
</g>
<!-- tan_1_5&#45;&gt;linear_1_2pass3 -->
<g id="edge7" class="edge">
<title>tan_1_5&#45;&gt;linear_1_2pass3</title>
<path fill="none" stroke="black" d="M80.38,-618.41C80.38,-626.76 80.38,-636.31 80.38,-645.54"/>
<polygon fill="black" stroke="black" points="77.93,-645.37 80.38,-652.37 82.83,-645.37 77.93,-645.37"/>
</g>
<!-- mul_1_3pass2 -->
<g id="node9" class="node">
<title>mul_1_3pass2</title>
<ellipse fill="white" stroke="black" cx="80.38" cy="-779.81" rx="57.98" ry="25.46"/>
<text text-anchor="start" x="49.62" y="-781.51" font-family="Times,serif" font-weight="bold" font-size="14.00">mul_1_3:2</text>
<text text-anchor="start" x="47.38" y="-767.51" font-family="Times,serif" font-size="14.00">5x5 (228 B)</text>
</g>
<!-- linear_1_2pass3&#45;&gt;mul_1_3pass2 -->
<g id="edge8" class="edge">
<title>linear_1_2pass3&#45;&gt;mul_1_3pass2</title>
<path fill="none" stroke="black" d="M80.38,-718.83C80.38,-727.43 80.38,-736.79 80.38,-745.49"/>
<polygon fill="black" stroke="black" points="77.93,-745.41 80.38,-752.41 82.83,-745.41 77.93,-745.41"/>
</g>
<!-- linear_1_2pass4 -->
<g id="node10" class="node">
<title>linear_1_2pass4</title>
<polygon fill="#e6e6e6" stroke="black" points="132.62,-905.27 28.12,-905.27 28.12,-841.27 132.62,-841.27 132.62,-905.27"/>
<text text-anchor="start" x="44.38" y="-888.97" font-family="Times,serif" font-weight="bold" font-size="14.00">linear_1_2:4</text>
<text text-anchor="start" x="47.38" y="-874.97" font-family="Times,serif" font-size="14.00">5x5 (228 B)</text>
<text text-anchor="start" x="36.12" y="-860.97" font-family="Times,serif" font-size="14.00">params: 5x5, x5</text>
<text text-anchor="start" x="60.12" y="-846.97" font-family="Times,serif" font-size="14.00">@fc1:4</text>
</g>
<!-- mul_1_3pass2&#45;&gt;linear_1_2pass4 -->
<g id="edge9" class="edge">
<title>mul_1_3pass2&#45;&gt;linear_1_2pass4</title>
<path fill="none" stroke="black" d="M80.38,-805.32C80.38,-813.67 80.38,-823.22 80.38,-832.45"/>
<polygon fill="black" stroke="black" points="77.93,-832.28 80.38,-839.28 82.83,-832.28 77.93,-832.28"/>
</g>
<!-- log_1_4pass2 -->
<g id="node11" class="node">
<title>log_1_4pass2</title>
<ellipse fill="white" stroke="black" cx="80.38" cy="-966.72" rx="57.98" ry="25.46"/>
<text text-anchor="start" x="52.62" y="-968.42" font-family="Times,serif" font-weight="bold" font-size="14.00">log_1_4:2</text>
<text text-anchor="start" x="47.38" y="-954.42" font-family="Times,serif" font-size="14.00">5x5 (228 B)</text>
</g>
<!-- linear_1_2pass4&#45;&gt;log_1_4pass2 -->
<g id="edge10" class="edge">
<title>linear_1_2pass4&#45;&gt;log_1_4pass2</title>
<path fill="none" stroke="black" d="M80.38,-905.74C80.38,-914.35 80.38,-923.7 80.38,-932.4"/>
<polygon fill="black" stroke="black" points="77.93,-932.32 80.38,-939.32 82.83,-932.32 77.93,-932.32"/>
</g>
<!-- output_1 -->
<g id="node12" class="node">
<title>output_1</title>
<ellipse fill="#ff9999" stroke="black" cx="80.38" cy="-1063.54" rx="57.98" ry="35.36"/>
<text text-anchor="start" x="54.5" y="-1072.24" font-family="Times,serif" font-weight="bold" font-size="14.00">output_1</text>
<text text-anchor="start" x="47.38" y="-1058.24" font-family="Times,serif" font-size="14.00">5x5 (228 B)</text>
<text text-anchor="start" x="56.75" y="-1044.24" font-family="Times,serif" font-size="14.00">@output</text>
</g>
<!-- log_1_4pass2&#45;&gt;output_1 -->
<g id="edge11" class="edge">
<title>log_1_4pass2&#45;&gt;output_1</title>
<path fill="none" stroke="black" d="M80.38,-992.64C80.38,-1000.87 80.38,-1010.28 80.38,-1019.47"/>
<polygon fill="black" stroke="black" points="77.93,-1019.3 80.38,-1026.3 82.83,-1019.3 77.93,-1019.3"/>
</g>
</g>
</svg>
