<?xml version="1.0" encoding="UTF-8" standalone="no"?>
<!DOCTYPE svg PUBLIC "-//W3C//DTD SVG 1.1//EN"
 "http://www.w3.org/Graphics/SVG/1.1/DTD/svg11.dtd">
<!-- Generated by graphviz version 12.2.1 (20241206.2353)
 -->
<!-- Title: UberModel1 Pages: 1 -->
<svg width="768pt" height="1461pt"
 viewBox="0.00 0.00 767.97 1461.07" xmlns="http://www.w3.org/2000/svg" xmlns:xlink="http://www.w3.org/1999/xlink">
<g id="graph0" class="graph" transform="scale(1 1) rotate(0) translate(4 1457.07)">
<title>UberModel1</title>
<polygon fill="white" stroke="none" points="-4,4 -4,-1457.07 763.97,-1457.07 763.97,4 -4,4"/>
<text text-anchor="start" x="8" y="-1436.77" font-family="Times,serif" font-weight="bold" font-size="14.00">UberModel1</text>
<text text-anchor="start" x="8" y="-1422.77" font-family="Times,serif" font-size="14.00">33 tensors total (7.1 KB)</text>
<text text-anchor="start" x="8" y="-1408.77" font-family="Times,serif" font-size="14.00">0 params total (0 B)</text>
<!-- input_1 -->
<g id="node1" class="node">
<title>input_1</title>
<ellipse fill="#98fb98" stroke="black" cx="192.98" cy="-406.8" rx="57.98" ry="35.36"/>
<text text-anchor="start" x="170.86" y="-415.5" font-family="Times,serif" font-weight="bold" font-size="14.00">input_1</text>
<text text-anchor="start" x="159.98" y="-401.5" font-family="Times,serif" font-size="14.00">5x5 (228 B)</text>
<text text-anchor="start" x="167.48" y="-387.5" font-family="Times,serif" font-size="14.00">@input.x</text>
</g>
<!-- add_1_1 -->
<g id="node2" class="node">
<title>add_1_1</title>
<ellipse fill="white" stroke="black" cx="192.98" cy="-554.52" rx="57.98" ry="25.46"/>
<text text-anchor="start" x="168.61" y="-556.22" font-family="Times,serif" font-weight="bold" font-size="14.00">add_1_1</text>
<text text-anchor="start" x="159.98" y="-542.22" font-family="Times,serif" font-size="14.00">5x5 (228 B)</text>
</g>
<!-- input_1&#45;&gt;add_1_1 -->
<g id="edge1" class="edge">
<title>input_1&#45;&gt;add_1_1</title>
<path fill="none" stroke="black" d="M192.98,-442.34C192.98,-466.02 192.98,-497.26 192.98,-520.6"/>
<polygon fill="black" stroke="black" points="190.53,-520.3 192.98,-527.3 195.43,-520.3 190.53,-520.3"/>
</g>
<!-- add_6_18pass1 -->
<g id="node7" class="node">
<title>add_6_18pass1</title>
<ellipse fill="white" stroke="black" cx="192.98" cy="-642.44" rx="58.51" ry="25.46"/>
<text text-anchor="start" x="159.61" y="-644.14" font-family="Times,serif" font-weight="bold" font-size="14.00">add_6_18:1</text>
<text text-anchor="start" x="159.98" y="-630.14" font-family="Times,serif" font-size="14.00">5x5 (228 B)</text>
</g>
<!-- add_1_1&#45;&gt;add_6_18pass1 -->
<g id="edge4" class="edge">
<title>add_1_1&#45;&gt;add_6_18pass1</title>
<path fill="none" stroke="black" d="M192.98,-580.37C192.98,-589.1 192.98,-599.05 192.98,-608.34"/>
<polygon fill="black" stroke="black" points="190.53,-608.13 192.98,-615.13 195.43,-608.13 190.53,-608.13"/>
</g>
<!-- input_2 -->
<g id="node3" class="node">
<title>input_2</title>
<ellipse fill="#98fb98" stroke="black" cx="57.98" cy="-299.09" rx="57.98" ry="35.36"/>
<text text-anchor="start" x="35.86" y="-307.79" font-family="Times,serif" font-weight="bold" font-size="14.00">input_2</text>
<text text-anchor="start" x="24.98" y="-293.79" font-family="Times,serif" font-size="14.00">5x5 (228 B)</text>
<text text-anchor="start" x="32.48" y="-279.79" font-family="Times,serif" font-size="14.00">@input.y</text>
</g>
<!-- mul_1_2 -->
<g id="node4" class="node">
<title>mul_1_2</title>
<g id="a_node4"><a xlink:title="Failed to trace builtin operator&#10; &#160;Explanation: Dynamo does not know how to trace builtin operator `print` with argument types [&#39;str&#39;] (has_kwargs False)&#10; &#160;Hint: Avoid calling builtin `print` with argument types [&#39;str&#39;]. Consider using an equivalent alternative function/method to `print`.&#10; &#160;Hint: If you are attempting to call a logging function (e.g. `print`), you can try adding it to `torch._dynamo.config.reorderable_logging_functions`.&#10; &#160;Hint: Please report an issue to PyTorch.&#10;&#10; &#160;Developer debug context: builtin print [&lt;class &#39;torch._dynamo.variables.constant.ConstantVariable&#39;&gt;] False&#10;&#10;&#10;User Stack:&#10;/Users/taejunseo/Codes/torchlens&#45;HPML/tests/wbreaks_example_models.py:1015&#10;">
<ellipse fill="white" stroke="red" cx="57.98" cy="-406.8" rx="57.98" ry="25.46"/>
<text text-anchor="start" x="32.86" y="-408.5" font-family="Times,serif" font-weight="bold" font-size="14.00" fill="red">mul_1_2</text>
<text text-anchor="start" x="24.98" y="-394.5" font-family="Times,serif" font-size="14.00" fill="red">5x5 (228 B)</text>
</a>
</g>
</g>
<!-- input_2&#45;&gt;mul_1_2 -->
<g id="edge2" class="edge">
<title>input_2&#45;&gt;mul_1_2</title>
<path fill="none" stroke="black" d="M57.98,-334.7C57.98,-346.91 57.98,-360.61 57.98,-372.69"/>
<polygon fill="black" stroke="black" points="55.53,-372.64 57.98,-379.64 60.43,-372.64 55.53,-372.64"/>
</g>
<!-- pow_1_3 -->
<g id="node8" class="node">
<title>pow_1_3</title>
<ellipse fill="white" stroke="black" cx="57.98" cy="-554.52" rx="57.98" ry="25.46"/>
<text text-anchor="start" x="32.48" y="-556.22" font-family="Times,serif" font-weight="bold" font-size="14.00">pow_1_3</text>
<text text-anchor="start" x="24.98" y="-542.22" font-family="Times,serif" font-size="14.00">5x5 (228 B)</text>
</g>
<!-- mul_1_2&#45;&gt;pow_1_3 -->
<g id="edge5" class="edge">
<title>mul_1_2&#45;&gt;pow_1_3</title>
<path fill="none" stroke="red" d="M57.98,-432.52C57.98,-456.7 57.98,-493.68 57.98,-520.4"/>
<polygon fill="red" stroke="red" points="55.53,-520.17 57.98,-527.17 60.43,-520.17 55.53,-520.17"/>
</g>
<!-- input_3 -->
<g id="node5" class="node">
<title>input_3</title>
<ellipse fill="#98fb98" stroke="black" cx="195.98" cy="-740.25" rx="57.98" ry="35.36"/>
<text text-anchor="start" x="173.86" y="-748.95" font-family="Times,serif" font-weight="bold" font-size="14.00">input_3</text>
<text text-anchor="start" x="162.98" y="-734.95" font-family="Times,serif" font-size="14.00">5x5 (228 B)</text>
<text text-anchor="start" x="170.86" y="-720.95" font-family="Times,serif" font-size="14.00">@input.z</text>
</g>
<!-- add_6_18pass3 -->
<g id="node6" class="node">
<title>add_6_18pass3</title>
<ellipse fill="white" stroke="black" cx="299.98" cy="-838.06" rx="58.51" ry="25.46"/>
<text text-anchor="start" x="266.61" y="-839.76" font-family="Times,serif" font-weight="bold" font-size="14.00">add_6_18:3</text>
<text text-anchor="start" x="266.98" y="-825.76" font-family="Times,serif" font-size="14.00">5x5 (228 B)</text>
</g>
<!-- input_3&#45;&gt;add_6_18pass3 -->
<g id="edge3" class="edge">
<title>input_3&#45;&gt;add_6_18pass3</title>
<path fill="none" stroke="black" d="M227.47,-770.25C240.84,-782.58 256.38,-796.89 269.63,-809.09"/>
<polygon fill="black" stroke="black" points="267.62,-810.57 274.43,-813.51 270.94,-806.97 267.62,-810.57"/>
</g>
<!-- add_7_19 -->
<g id="node25" class="node">
<title>add_7_19</title>
<ellipse fill="white" stroke="black" cx="165.98" cy="-935.87" rx="57.98" ry="25.46"/>
<text text-anchor="start" x="138.23" y="-937.57" font-family="Times,serif" font-weight="bold" font-size="14.00">add_7_19</text>
<text text-anchor="start" x="132.98" y="-923.57" font-family="Times,serif" font-size="14.00">5x5 (228 B)</text>
</g>
<!-- add_6_18pass3&#45;&gt;add_7_19 -->
<g id="edge25" class="edge">
<title>add_6_18pass3&#45;&gt;add_7_19</title>
<path fill="none" stroke="black" d="M270.24,-860.32C250.21,-874.65 223.65,-893.64 202.35,-908.86"/>
<polygon fill="black" stroke="black" points="201.14,-906.72 196.87,-912.78 203.99,-910.71 201.14,-906.72"/>
</g>
<!-- mul_5_20 -->
<g id="node26" class="node">
<title>mul_5_20</title>
<ellipse fill="white" stroke="black" cx="299.98" cy="-935.87" rx="57.98" ry="25.46"/>
<text text-anchor="start" x="271.48" y="-937.57" font-family="Times,serif" font-weight="bold" font-size="14.00">mul_5_20</text>
<text text-anchor="start" x="266.98" y="-923.57" font-family="Times,serif" font-size="14.00">5x5 (228 B)</text>
</g>
<!-- add_6_18pass3&#45;&gt;mul_5_20 -->
<g id="edge26" class="edge">
<title>add_6_18pass3&#45;&gt;mul_5_20</title>
<path fill="none" stroke="black" d="M299.98,-863.73C299.98,-875.26 299.98,-889.17 299.98,-901.61"/>
<polygon fill="black" stroke="black" points="297.53,-901.43 299.98,-908.43 302.43,-901.43 297.53,-901.43"/>
</g>
<!-- output_1 -->
<g id="node27" class="node">
<title>output_1</title>
<ellipse fill="#ff9999" stroke="black" cx="433.98" cy="-935.87" rx="57.98" ry="35.36"/>
<text text-anchor="start" x="408.11" y="-944.57" font-family="Times,serif" font-weight="bold" font-size="14.00">output_1</text>
<text text-anchor="start" x="400.98" y="-930.57" font-family="Times,serif" font-size="14.00">5x5 (228 B)</text>
<text text-anchor="start" x="405.11" y="-916.57" font-family="Times,serif" font-size="14.00">@output.0</text>
</g>
<!-- add_6_18pass3&#45;&gt;output_1 -->
<g id="edge27" class="edge">
<title>add_6_18pass3&#45;&gt;output_1</title>
<path fill="none" stroke="black" d="M329.72,-860.32C347.52,-873.05 370.45,-889.45 390.28,-903.62"/>
<polygon fill="black" stroke="black" points="388.8,-905.58 395.92,-907.65 391.65,-901.59 388.8,-905.58"/>
</g>
<!-- add_6_18pass2 -->
<g id="node20" class="node">
<title>add_6_18pass2</title>
<ellipse fill="white" stroke="black" cx="329.98" cy="-740.25" rx="58.51" ry="25.46"/>
<text text-anchor="start" x="296.61" y="-741.95" font-family="Times,serif" font-weight="bold" font-size="14.00">add_6_18:2</text>
<text text-anchor="start" x="296.98" y="-727.95" font-family="Times,serif" font-size="14.00">5x5 (228 B)</text>
</g>
<!-- add_6_18pass1&#45;&gt;add_6_18pass2 -->
<g id="edge23" class="edge">
<title>add_6_18pass1&#45;&gt;add_6_18pass2</title>
<path fill="none" stroke="black" d="M223.05,-664.46C243.66,-678.88 271.14,-698.09 293.07,-713.44"/>
<polygon fill="black" stroke="black" points="291.61,-715.4 298.75,-717.4 294.42,-711.38 291.61,-715.4"/>
</g>
<!-- pow_1_3&#45;&gt;add_6_18pass1 -->
<g id="edge6" class="edge">
<title>pow_1_3&#45;&gt;add_6_18pass1</title>
<path fill="none" stroke="black" d="M90.32,-576.1C109.44,-588.27 133.78,-603.76 153.96,-616.6"/>
<polygon fill="black" stroke="black" points="152.41,-618.52 159.63,-620.21 155.04,-614.39 152.41,-618.52"/>
</g>
<!-- output_3 -->
<g id="node9" class="node">
<title>output_3</title>
<ellipse fill="#ff9999" stroke="black" cx="79.98" cy="-1367.71" rx="57.98" ry="35.36"/>
<text text-anchor="start" x="54.11" y="-1376.41" font-family="Times,serif" font-weight="bold" font-size="14.00">output_3</text>
<text text-anchor="start" x="46.98" y="-1362.41" font-family="Times,serif" font-size="14.00">5x5 (228 B)</text>
<text text-anchor="start" x="51.11" y="-1348.41" font-family="Times,serif" font-size="14.00">@output.2</text>
</g>
<!-- pow_1_3&#45;&gt;output_3 -->
<g id="edge7" class="edge">
<title>pow_1_3&#45;&gt;output_3</title>
<path fill="none" stroke="black" d="M67.7,-579.91C73.59,-596.88 79.98,-620.19 79.98,-641.44 79.98,-641.44 79.98,-641.44 79.98,-1205.85 79.98,-1245.71 79.98,-1291.14 79.98,-1323.52"/>
<polygon fill="black" stroke="black" points="77.53,-1323.37 79.98,-1330.37 82.43,-1323.37 77.53,-1323.37"/>
</g>
<!-- rand_1_4 -->
<g id="node10" class="node">
<title>rand_1_4</title>
<ellipse fill="white" stroke="black" stroke-dasharray="5,2" cx="349.98" cy="-25.46" rx="57.98" ry="25.46"/>
<text text-anchor="start" x="322.61" y="-27.16" font-family="Times,serif" font-weight="bold" font-size="14.00">rand_1_4</text>
<text text-anchor="start" x="316.98" y="-13.16" font-family="Times,serif" font-size="14.00">5x5 (228 B)</text>
</g>
<!-- mul_2_5 -->
<g id="node11" class="node">
<title>mul_2_5</title>
<ellipse fill="white" stroke="black" stroke-dasharray="5,2" cx="349.98" cy="-113.37" rx="57.98" ry="25.46"/>
<text text-anchor="start" x="324.86" y="-115.07" font-family="Times,serif" font-weight="bold" font-size="14.00">mul_2_5</text>
<text text-anchor="start" x="316.98" y="-101.07" font-family="Times,serif" font-size="14.00">5x5 (228 B)</text>
</g>
<!-- rand_1_4&#45;&gt;mul_2_5 -->
<g id="edge8" class="edge">
<title>rand_1_4&#45;&gt;mul_2_5</title>
<path fill="none" stroke="black" stroke-dasharray="5,2" d="M349.98,-51.31C349.98,-60.03 349.98,-69.98 349.98,-79.27"/>
<polygon fill="black" stroke="black" points="347.53,-79.06 349.98,-86.06 352.43,-79.06 347.53,-79.06"/>
</g>
<!-- add_2_6 -->
<g id="node12" class="node">
<title>add_2_6</title>
<g id="a_node12"><a xlink:title="Failed to trace builtin operator&#10; &#160;Explanation: Dynamo does not know how to trace builtin operator `print` with argument types [&#39;str&#39;] (has_kwargs False)&#10; &#160;Hint: Avoid calling builtin `print` with argument types [&#39;str&#39;]. Consider using an equivalent alternative function/method to `print`.&#10; &#160;Hint: If you are attempting to call a logging function (e.g. `print`), you can try adding it to `torch._dynamo.config.reorderable_logging_functions`.&#10; &#160;Hint: Please report an issue to PyTorch.&#10;&#10; &#160;Developer debug context: builtin print [&lt;class &#39;torch._dynamo.variables.constant.ConstantVariable&#39;&gt;] False&#10;&#10;&#10;User Stack:&#10;/Users/taejunseo/Codes/torchlens&#45;HPML/tests/wbreaks_example_models.py:1020&#10;">
<ellipse fill="white" stroke="red" stroke-dasharray="5,2" cx="349.98" cy="-201.28" rx="57.98" ry="25.46"/>
<text text-anchor="start" x="325.61" y="-202.98" font-family="Times,serif" font-weight="bold" font-size="14.00" fill="red">add_2_6</text>
<text text-anchor="start" x="316.98" y="-188.98" font-family="Times,serif" font-size="14.00" fill="red">5x5 (228 B)</text>
</a>
</g>
</g>
<!-- mul_2_5&#45;&gt;add_2_6 -->
<g id="edge9" class="edge">
<title>mul_2_5&#45;&gt;add_2_6</title>
<path fill="none" stroke="black" stroke-dasharray="5,2" d="M349.98,-139.22C349.98,-147.94 349.98,-157.89 349.98,-167.19"/>
<polygon fill="black" stroke="black" points="347.53,-166.97 349.98,-173.97 352.43,-166.97 347.53,-166.97"/>
</g>
<!-- cos_1_7 -->
<g id="node13" class="node">
<title>cos_1_7</title>
<ellipse fill="white" stroke="black" stroke-dasharray="5,2" cx="283.98" cy="-299.09" rx="57.98" ry="25.46"/>
<text text-anchor="start" x="261.48" y="-300.79" font-family="Times,serif" font-weight="bold" font-size="14.00">cos_1_7</text>
<text text-anchor="start" x="250.98" y="-286.79" font-family="Times,serif" font-size="14.00">5x5 (228 B)</text>
</g>
<!-- add_2_6&#45;&gt;cos_1_7 -->
<g id="edge10" class="edge">
<title>add_2_6&#45;&gt;cos_1_7</title>
<path fill="none" stroke="red" stroke-dasharray="5,2" d="M333.67,-225.96C325.02,-238.52 314.3,-254.08 305.03,-267.53"/>
<polygon fill="red" stroke="red" points="303.15,-265.95 301.2,-273.1 307.19,-268.73 303.15,-265.95"/>
</g>
<!-- log_1_9 -->
<g id="node14" class="node">
<title>log_1_9</title>
<ellipse fill="white" stroke="black" stroke-dasharray="5,2" cx="417.98" cy="-299.09" rx="57.98" ry="25.46"/>
<text text-anchor="start" x="395.86" y="-300.79" font-family="Times,serif" font-weight="bold" font-size="14.00">log_1_9</text>
<text text-anchor="start" x="384.98" y="-286.79" font-family="Times,serif" font-size="14.00">5x5 (228 B)</text>
</g>
<!-- add_2_6&#45;&gt;log_1_9 -->
<g id="edge11" class="edge">
<title>add_2_6&#45;&gt;log_1_9</title>
<path fill="none" stroke="red" stroke-dasharray="5,2" d="M366.79,-225.96C375.7,-238.52 386.75,-254.08 396.29,-267.53"/>
<polygon fill="red" stroke="red" points="394.21,-268.82 400.26,-273.11 398.2,-265.99 394.21,-268.82"/>
</g>
<!-- sin_1_8 -->
<g id="node15" class="node">
<title>sin_1_8</title>
<ellipse fill="white" stroke="black" stroke-dasharray="5,2" cx="286.98" cy="-485.61" rx="57.98" ry="25.46"/>
<text text-anchor="start" x="265.23" y="-487.31" font-family="Times,serif" font-weight="bold" font-size="14.00">sin_1_8</text>
<text text-anchor="start" x="253.98" y="-473.31" font-family="Times,serif" font-size="14.00">5x5 (228 B)</text>
</g>
<!-- cos_1_7&#45;&gt;sin_1_8 -->
<g id="edge12" class="edge">
<title>cos_1_7&#45;&gt;sin_1_8</title>
<path fill="none" stroke="black" stroke-dasharray="5,2" d="M284.39,-324.98C284.92,-357.67 285.85,-415.19 286.44,-451.52"/>
<polygon fill="black" stroke="black" points="283.99,-451.35 286.56,-458.31 288.89,-451.27 283.99,-451.35"/>
</g>
<!-- tan_1_10 -->
<g id="node17" class="node">
<title>tan_1_10</title>
<ellipse fill="white" stroke="black" stroke-dasharray="5,2" cx="413.98" cy="-406.8" rx="57.98" ry="25.46"/>
<text text-anchor="start" x="387.73" y="-408.5" font-family="Times,serif" font-weight="bold" font-size="14.00">tan_1_10</text>
<text text-anchor="start" x="380.98" y="-394.5" font-family="Times,serif" font-size="14.00">5x5 (228 B)</text>
</g>
<!-- log_1_9&#45;&gt;tan_1_10 -->
<g id="edge14" class="edge">
<title>log_1_9&#45;&gt;tan_1_10</title>
<path fill="none" stroke="black" stroke-dasharray="5,2" d="M417.04,-324.87C416.5,-339.19 415.82,-357.37 415.23,-372.88"/>
<polygon fill="black" stroke="black" points="412.79,-372.57 414.97,-379.66 417.68,-372.76 412.79,-372.57"/>
</g>
<!-- mul_3_12 -->
<g id="node16" class="node">
<title>mul_3_12</title>
<ellipse fill="white" stroke="black" stroke-dasharray="5,2" cx="326.98" cy="-642.44" rx="57.98" ry="25.46"/>
<text text-anchor="start" x="298.48" y="-644.14" font-family="Times,serif" font-weight="bold" font-size="14.00">mul_3_12</text>
<text text-anchor="start" x="293.98" y="-630.14" font-family="Times,serif" font-size="14.00">5x5 (228 B)</text>
</g>
<!-- sin_1_8&#45;&gt;mul_3_12 -->
<g id="edge13" class="edge">
<title>sin_1_8&#45;&gt;mul_3_12</title>
<path fill="none" stroke="black" stroke-dasharray="5,2" d="M293.32,-511.14C300.12,-537.45 310.95,-579.37 318.48,-608.53"/>
<polygon fill="black" stroke="black" points="316.11,-609.13 320.23,-615.3 320.85,-607.91 316.11,-609.13"/>
</g>
<!-- sub_1_13 -->
<g id="node19" class="node">
<title>sub_1_13</title>
<ellipse fill="white" stroke="black" stroke-dasharray="5,2" cx="463.98" cy="-740.25" rx="57.98" ry="25.46"/>
<text text-anchor="start" x="436.98" y="-741.95" font-family="Times,serif" font-weight="bold" font-size="14.00">sub_1_13</text>
<text text-anchor="start" x="430.98" y="-727.95" font-family="Times,serif" font-size="14.00">5x5 (228 B)</text>
</g>
<!-- mul_3_12&#45;&gt;sub_1_13 -->
<g id="edge17" class="edge">
<title>mul_3_12&#45;&gt;sub_1_13</title>
<path fill="none" stroke="black" stroke-dasharray="5,2" d="M357.05,-664.46C377.66,-678.88 405.14,-698.09 427.07,-713.44"/>
<polygon fill="black" stroke="black" points="425.61,-715.4 432.75,-717.4 428.42,-711.38 425.61,-715.4"/>
</g>
<!-- mul_3_12&#45;&gt;add_6_18pass2 -->
<g id="edge18" class="edge">
<title>mul_3_12&#45;&gt;add_6_18pass2</title>
<path fill="none" stroke="black" stroke-dasharray="5,2" d="M327.76,-668.11C328.12,-679.64 328.55,-693.54 328.94,-705.99"/>
<polygon fill="black" stroke="black" points="326.49,-705.89 329.15,-712.81 331.38,-705.74 326.49,-705.89"/>
</g>
<!-- add_3_11 -->
<g id="node18" class="node">
<title>add_3_11</title>
<ellipse fill="white" stroke="black" stroke-dasharray="5,2" cx="407.98" cy="-554.52" rx="57.98" ry="25.46"/>
<text text-anchor="start" x="380.23" y="-556.22" font-family="Times,serif" font-weight="bold" font-size="14.00">add_3_11</text>
<text text-anchor="start" x="374.98" y="-542.22" font-family="Times,serif" font-size="14.00">5x5 (228 B)</text>
</g>
<!-- tan_1_10&#45;&gt;add_3_11 -->
<g id="edge15" class="edge">
<title>tan_1_10&#45;&gt;add_3_11</title>
<path fill="none" stroke="black" stroke-dasharray="5,2" d="M412.96,-432.52C411.97,-456.7 410.45,-493.68 409.35,-520.4"/>
<polygon fill="black" stroke="black" points="406.91,-520.08 409.07,-527.17 411.8,-520.28 406.91,-520.08"/>
</g>
<!-- add_3_11&#45;&gt;mul_3_12 -->
<g id="edge16" class="edge">
<title>add_3_11&#45;&gt;mul_3_12</title>
<path fill="none" stroke="black" stroke-dasharray="5,2" d="M386.28,-578.55C376.47,-588.95 364.78,-601.35 354.37,-612.38"/>
<polygon fill="black" stroke="black" points="352.81,-610.47 349.79,-617.25 356.37,-613.84 352.81,-610.47"/>
</g>
<!-- add_4_14 -->
<g id="node21" class="node">
<title>add_4_14</title>
<ellipse fill="white" stroke="black" stroke-dasharray="5,2" cx="465.98" cy="-838.06" rx="57.98" ry="25.46"/>
<text text-anchor="start" x="438.23" y="-839.76" font-family="Times,serif" font-weight="bold" font-size="14.00">add_4_14</text>
<text text-anchor="start" x="432.98" y="-825.76" font-family="Times,serif" font-size="14.00">5x5 (228 B)</text>
</g>
<!-- sub_1_13&#45;&gt;add_4_14 -->
<g id="edge19" class="edge">
<title>sub_1_13&#45;&gt;add_4_14</title>
<path fill="none" stroke="black" stroke-dasharray="5,2" d="M464.5,-765.92C464.74,-777.45 465.03,-791.36 465.29,-803.8"/>
<polygon fill="black" stroke="black" points="462.84,-803.67 465.43,-810.62 467.73,-803.57 462.84,-803.67"/>
</g>
<!-- add_6_18pass2&#45;&gt;add_6_18pass3 -->
<g id="edge24" class="edge">
<title>add_6_18pass2&#45;&gt;add_6_18pass3</title>
<path fill="none" stroke="black" d="M322.26,-765.92C318.58,-777.66 314.14,-791.84 310.19,-804.45"/>
<polygon fill="black" stroke="black" points="307.89,-803.61 308.13,-811.02 312.56,-805.08 307.89,-803.61"/>
</g>
<!-- mul_4_15 -->
<g id="node22" class="node">
<title>mul_4_15</title>
<g id="a_node22"><a xlink:title="Failed to trace builtin operator&#10; &#160;Explanation: Dynamo does not know how to trace builtin operator `print` with argument types [&#39;str&#39;] (has_kwargs False)&#10; &#160;Hint: Avoid calling builtin `print` with argument types [&#39;str&#39;]. Consider using an equivalent alternative function/method to `print`.&#10; &#160;Hint: If you are attempting to call a logging function (e.g. `print`), you can try adding it to `torch._dynamo.config.reorderable_logging_functions`.&#10; &#160;Hint: Please report an issue to PyTorch.&#10;&#10; &#160;Developer debug context: builtin print [&lt;class &#39;torch._dynamo.variables.constant.ConstantVariable&#39;&gt;] False&#10;&#10;&#10;User Stack:&#10;/Users/taejunseo/Codes/torchlens&#45;HPML/tests/wbreaks_example_models.py:1030&#10;">
<ellipse fill="white" stroke="red" stroke-dasharray="5,2" cx="701.98" cy="-935.87" rx="57.98" ry="25.46"/>
<text text-anchor="start" x="673.48" y="-937.57" font-family="Times,serif" font-weight="bold" font-size="14.00" fill="red">mul_4_15</text>
<text text-anchor="start" x="668.98" y="-923.57" font-family="Times,serif" font-size="14.00" fill="red">5x5 (228 B)</text>
</a>
</g>
</g>
<!-- add_4_14&#45;&gt;mul_4_15 -->
<g id="edge20" class="edge">
<title>add_4_14&#45;&gt;mul_4_15</title>
<path fill="none" stroke="black" stroke-dasharray="5,2" d="M511.78,-853.98C546.12,-865.58 594.06,-882.67 634.98,-900.51 642.87,-903.95 651.14,-907.9 659.06,-911.86"/>
<polygon fill="black" stroke="black" points="657.52,-913.82 664.87,-914.8 659.73,-909.45 657.52,-913.82"/>
</g>
<!-- add_5_17 -->
<g id="node23" class="node">
<title>add_5_17</title>
<ellipse fill="white" stroke="black" stroke-dasharray="5,2" cx="607.98" cy="-1053.68" rx="57.98" ry="25.46"/>
<text text-anchor="start" x="580.23" y="-1055.38" font-family="Times,serif" font-weight="bold" font-size="14.00">add_5_17</text>
<text text-anchor="start" x="574.98" y="-1041.38" font-family="Times,serif" font-size="14.00">5x5 (228 B)</text>
</g>
<!-- mul_4_15&#45;&gt;add_5_17 -->
<g id="edge21" class="edge">
<title>mul_4_15&#45;&gt;add_5_17</title>
<path fill="none" stroke="red" stroke-dasharray="5,2" d="M682.96,-960.31C668.31,-978.36 647.95,-1003.44 632.15,-1022.91"/>
<polygon fill="red" stroke="red" points="630.44,-1021.12 627.93,-1028.1 634.24,-1024.21 630.44,-1021.12"/>
</g>
<!-- zeros_1_16 -->
<g id="node24" class="node">
<title>zeros_1_16</title>
<ellipse fill="white" stroke="black" stroke-dasharray="5,2" cx="567.98" cy="-935.87" rx="57.98" ry="25.46"/>
<text text-anchor="start" x="536.11" y="-937.57" font-family="Times,serif" font-weight="bold" font-size="14.00">zeros_1_16</text>
<text text-anchor="start" x="534.98" y="-923.57" font-family="Times,serif" font-size="14.00">5x5 (228 B)</text>
</g>
<!-- zeros_1_16&#45;&gt;add_5_17 -->
<g id="edge22" class="edge">
<title>zeros_1_16&#45;&gt;add_5_17</title>
<path fill="none" stroke="black" stroke-dasharray="5,2" d="M576.47,-961.43C582.38,-978.55 590.33,-1001.57 596.77,-1020.2"/>
<polygon fill="black" stroke="black" points="594.42,-1020.91 599.02,-1026.72 599.05,-1019.31 594.42,-1020.91"/>
</g>
<!-- add_8_21 -->
<g id="node28" class="node">
<title>add_8_21</title>
<ellipse fill="white" stroke="black" cx="165.98" cy="-1053.68" rx="57.98" ry="25.46"/>
<text text-anchor="start" x="138.23" y="-1055.38" font-family="Times,serif" font-weight="bold" font-size="14.00">add_8_21</text>
<text text-anchor="start" x="132.98" y="-1041.38" font-family="Times,serif" font-size="14.00">5x5 (228 B)</text>
</g>
<!-- mul_5_20&#45;&gt;add_8_21 -->
<g id="edge28" class="edge">
<title>mul_5_20&#45;&gt;add_8_21</title>
<path fill="none" stroke="black" d="M274.46,-958.92C252.67,-977.76 221.22,-1004.94 197.79,-1025.19"/>
<polygon fill="black" stroke="black" points="196.25,-1023.29 192.55,-1029.72 199.45,-1026.99 196.25,-1023.29"/>
</g>
<!-- mul_6_22 -->
<g id="node29" class="node">
<title>mul_6_22</title>
<g id="a_node29"><a xlink:title="Failed to trace builtin operator&#10; &#160;Explanation: Dynamo does not know how to trace builtin operator `print` with argument types [&#39;str&#39;] (has_kwargs False)&#10; &#160;Hint: Avoid calling builtin `print` with argument types [&#39;str&#39;]. Consider using an equivalent alternative function/method to `print`.&#10; &#160;Hint: If you are attempting to call a logging function (e.g. `print`), you can try adding it to `torch._dynamo.config.reorderable_logging_functions`.&#10; &#160;Hint: Please report an issue to PyTorch.&#10;&#10; &#160;Developer debug context: builtin print [&lt;class &#39;torch._dynamo.variables.constant.ConstantVariable&#39;&gt;] False&#10;&#10;&#10;User Stack:&#10;/Users/taejunseo/Codes/torchlens&#45;HPML/tests/wbreaks_example_models.py:1041&#10;">
<ellipse fill="white" stroke="red" cx="299.98" cy="-1053.68" rx="57.98" ry="25.46"/>
<text text-anchor="start" x="271.48" y="-1055.38" font-family="Times,serif" font-weight="bold" font-size="14.00" fill="red">mul_6_22</text>
<text text-anchor="start" x="266.98" y="-1041.38" font-family="Times,serif" font-size="14.00" fill="red">5x5 (228 B)</text>
</a>
</g>
</g>
<!-- mul_5_20&#45;&gt;mul_6_22 -->
<g id="edge29" class="edge">
<title>mul_5_20&#45;&gt;mul_6_22</title>
<path fill="none" stroke="black" d="M299.98,-961.71C299.98,-978.66 299.98,-1001.28 299.98,-1019.73"/>
<polygon fill="black" stroke="black" points="297.53,-1019.36 299.98,-1026.36 302.43,-1019.36 297.53,-1019.36"/>
<text text-anchor="start" x="299.98" y="-994.12" font-family="Times,serif" font-weight="bold" text-decoration="underline" font-size="18.00">IF</text>
</g>
<!-- cos_2_25 -->
<g id="node30" class="node">
<title>cos_2_25</title>
<g id="a_node30"><a xlink:title="Failed to trace builtin operator&#10; &#160;Explanation: Dynamo does not know how to trace builtin operator `print` with argument types [&#39;str&#39;] (has_kwargs False)&#10; &#160;Hint: Avoid calling builtin `print` with argument types [&#39;str&#39;]. Consider using an equivalent alternative function/method to `print`.&#10; &#160;Hint: If you are attempting to call a logging function (e.g. `print`), you can try adding it to `torch._dynamo.config.reorderable_logging_functions`.&#10; &#160;Hint: Please report an issue to PyTorch.&#10;&#10; &#160;Developer debug context: builtin print [&lt;class &#39;torch._dynamo.variables.constant.ConstantVariable&#39;&gt;] False&#10;&#10;&#10;User Stack:&#10;/Users/taejunseo/Codes/torchlens&#45;HPML/tests/wbreaks_example_models.py:1046&#10;">
<ellipse fill="white" stroke="red" cx="433.98" cy="-1053.68" rx="57.98" ry="25.46"/>
<text text-anchor="start" x="408.11" y="-1055.38" font-family="Times,serif" font-weight="bold" font-size="14.00" fill="red">cos_2_25</text>
<text text-anchor="start" x="400.98" y="-1041.38" font-family="Times,serif" font-size="14.00" fill="red">5x5 (228 B)</text>
</a>
</g>
</g>
<!-- mul_5_20&#45;&gt;cos_2_25 -->
<g id="edge30" class="edge">
<title>mul_5_20&#45;&gt;cos_2_25</title>
<path fill="none" stroke="black" d="M325.5,-958.92C347.3,-977.76 378.75,-1004.94 402.18,-1025.19"/>
<polygon fill="black" stroke="black" points="400.51,-1026.99 407.41,-1029.72 403.72,-1023.29 400.51,-1026.99"/>
</g>
<!-- sum_1_23 -->
<g id="node31" class="node">
<title>sum_1_23</title>
<ellipse fill="white" stroke="black" cx="299.98" cy="-1151.49" rx="53.21" ry="25.46"/>
<text text-anchor="start" x="270.73" y="-1153.19" font-family="Times,serif" font-weight="bold" font-size="14.00">sum_1_23</text>
<text text-anchor="start" x="270.36" y="-1139.19" font-family="Times,serif" font-size="14.00">x1 (100 B)</text>
</g>
<!-- mul_6_22&#45;&gt;sum_1_23 -->
<g id="edge31" class="edge">
<title>mul_6_22&#45;&gt;sum_1_23</title>
<path fill="none" stroke="red" d="M299.98,-1079.35C299.98,-1090.89 299.98,-1104.79 299.98,-1117.23"/>
<polygon fill="red" stroke="red" points="297.53,-1117.05 299.98,-1124.05 302.43,-1117.05 297.53,-1117.05"/>
</g>
<!-- output_2 -->
<g id="node33" class="node">
<title>output_2</title>
<ellipse fill="#ff9999" stroke="black" cx="433.98" cy="-1151.49" rx="57.98" ry="35.36"/>
<text text-anchor="start" x="408.11" y="-1160.19" font-family="Times,serif" font-weight="bold" font-size="14.00">output_2</text>
<text text-anchor="start" x="400.98" y="-1146.19" font-family="Times,serif" font-size="14.00">5x5 (228 B)</text>
<text text-anchor="start" x="405.11" y="-1132.19" font-family="Times,serif" font-size="14.00">@output.1</text>
</g>
<!-- cos_2_25&#45;&gt;output_2 -->
<g id="edge33" class="edge">
<title>cos_2_25&#45;&gt;output_2</title>
<path fill="none" stroke="red" d="M433.98,-1079.35C433.98,-1087.93 433.98,-1097.82 433.98,-1107.44"/>
<polygon fill="red" stroke="red" points="431.53,-1107.28 433.98,-1114.28 436.43,-1107.28 431.53,-1107.28"/>
</g>
<!-- gt_1_24 -->
<g id="node32" class="node">
<title>gt_1_24</title>
<ellipse fill="#f7d460" stroke="black" cx="299.98" cy="-1269.1" rx="48.44" ry="45.25"/>
<text text-anchor="start" x="278.98" y="-1284.8" font-family="Times,serif" font-weight="bold" text-decoration="underline" font-size="14.00">TRUE:</text>
<text text-anchor="start" x="277.48" y="-1256.8" font-family="Times,serif" font-weight="bold" font-size="14.00">gt_1_24</text>
<text text-anchor="start" x="273.73" y="-1242.8" font-family="Times,serif" font-size="14.00">x1 (97 B)</text>
</g>
<!-- sum_1_23&#45;&gt;gt_1_24 -->
<g id="edge32" class="edge">
<title>sum_1_23&#45;&gt;gt_1_24</title>
<path fill="none" stroke="black" d="M299.98,-1177.29C299.98,-1188.5 299.98,-1202.2 299.98,-1215.52"/>
<polygon fill="black" stroke="black" points="297.53,-1215.23 299.98,-1222.23 302.43,-1215.23 297.53,-1215.23"/>
</g>
</g>
</svg>
