<?xml version="1.0" encoding="UTF-8" standalone="no"?>
<!DOCTYPE svg PUBLIC "-//W3C//DTD SVG 1.1//EN"
 "http://www.w3.org/Graphics/SVG/1.1/DTD/svg11.dtd">
<!-- Generated by graphviz version 7.0.5 (20221231.0122)
 -->
<!-- Title: BufferRewriteLoops Pages: 1 -->
<svg width="316pt" height="379pt"
 viewBox="0.00 0.00 315.76 378.90" xmlns="http://www.w3.org/2000/svg" xmlns:xlink="http://www.w3.org/1999/xlink">
<g id="graph0" class="graph" transform="scale(1 1) rotate(0) translate(4 374.9)">
<title>BufferRewriteLoops</title>
<polygon fill="white" stroke="none" points="-4,4 -4,-374.9 311.76,-374.9 311.76,4 -4,4"/>
<text text-anchor="start" x="8" y="-356.7" font-family="Times,serif" font-weight="bold" font-size="14.00">BufferRewriteLoops</text>
<text text-anchor="start" x="8" y="-342.7" font-family="Times,serif" font-size="14.00">18 tensors total (288 B)</text>
<text text-anchor="start" x="8" y="-328.7" font-family="Times,serif" font-size="14.00">0 params</text>
<!-- input_1 -->
<g id="node1" class="node">
<title>input_1</title>
<ellipse fill="#98fb98" stroke="black" cx="67.88" cy="-45.96" rx="59.29" ry="45.92"/>
<text text-anchor="start" x="45.38" y="-61.76" font-family="Times,serif" font-weight="bold" font-size="14.00">input_1</text>
<text text-anchor="start" x="35.88" y="-41.76" font-family="Times,serif" font-size="14.00">(1, 4), 16 B</text>
<text text-anchor="start" x="41.88" y="-22.76" font-family="Times,serif" font-size="14.00">@input.x</text>
</g>
<!-- add_1_1 -->
<g id="node2" class="node">
<title>add_1_1</title>
<ellipse fill="white" stroke="black" cx="67.88" cy="-160.45" rx="67.76" ry="32.55"/>
<text text-anchor="start" x="29.88" y="-167.25" font-family="Times,serif" font-weight="bold" font-size="14.00">add_1_1 (x5)</text>
<text text-anchor="start" x="35.88" y="-147.25" font-family="Times,serif" font-size="14.00">(1, 4), 16 B</text>
</g>
<!-- input_1&#45;&gt;add_1_1 -->
<g id="edge1" class="edge">
<title>input_1&#45;&gt;add_1_1</title>
<path fill="none" stroke="black" d="M67.88,-92.07C67.88,-100.96 67.88,-110.24 67.88,-118.97"/>
<polygon fill="black" stroke="black" points="65.43,-118.97 67.88,-125.97 70.33,-118.97 65.43,-118.97"/>
<text text-anchor="middle" x="56.88" y="-121.08" font-family="Times,serif" font-size="8.00"> &#160;In 1 &#160;</text>
</g>
<!-- add_1_1&#45;&gt;add_1_1 -->
<g id="edge4" class="edge">
<title>add_1_1&#45;&gt;add_1_1</title>
<path fill="none" stroke="black" d="M119.45,-139.02C138.31,-138.44 153.76,-145.58 153.76,-160.45 153.76,-173.11 142.56,-180.17 127.58,-181.63"/>
<polygon fill="black" stroke="black" points="127.88,-179.17 120.96,-181.84 128.03,-184.07 127.88,-179.17"/>
</g>
<!-- output_1 -->
<g id="node5" class="node">
<title>output_1</title>
<ellipse fill="#ff9999" stroke="black" cx="67.88" cy="-274.94" rx="59.29" ry="45.92"/>
<text text-anchor="start" x="41.88" y="-290.74" font-family="Times,serif" font-weight="bold" font-size="14.00">output_1</text>
<text text-anchor="start" x="35.88" y="-270.74" font-family="Times,serif" font-size="14.00">(1, 4), 16 B</text>
<text text-anchor="start" x="43.88" y="-251.74" font-family="Times,serif" font-size="14.00">@output</text>
</g>
<!-- add_1_1&#45;&gt;output_1 -->
<g id="edge5" class="edge">
<title>add_1_1&#45;&gt;output_1</title>
<path fill="none" stroke="black" d="M67.88,-193.38C67.88,-201.84 67.88,-211.2 67.88,-220.46"/>
<polygon fill="black" stroke="black" points="65.43,-220.4 67.88,-227.4 70.33,-220.4 65.43,-220.4"/>
<text text-anchor="middle" x="53.88" y="-195.98" font-family="Times,serif" font-size="8.00"> &#160;Out 5 &#160;</text>
</g>
<!-- buffer_1 -->
<g id="node3" class="node">
<title>buffer_1</title>
<path fill="white" stroke="black" stroke-dasharray="5,2" d="M287.88,-82.68C287.88,-87.18 266.37,-90.84 239.88,-90.84 213.4,-90.84 191.88,-87.18 191.88,-82.68 191.88,-82.68 191.88,-9.25 191.88,-9.25 191.88,-4.74 213.4,-1.09 239.88,-1.09 266.37,-1.09 287.88,-4.74 287.88,-9.25 287.88,-9.25 287.88,-82.68 287.88,-82.68"/>
<path fill="none" stroke="black" stroke-dasharray="5,2" d="M287.88,-82.68C287.88,-78.18 266.37,-74.52 239.88,-74.52 213.4,-74.52 191.88,-78.18 191.88,-82.68"/>
<text text-anchor="start" x="201.88" y="-61.76" font-family="Times,serif" font-weight="bold" font-size="14.00">buffer_1 (x6)</text>
<text text-anchor="start" x="212.88" y="-41.76" font-family="Times,serif" font-size="14.00">(4,), 16 B</text>
<text text-anchor="start" x="209.88" y="-22.76" font-family="Times,serif" font-size="14.00">@state:1&#45;6</text>
</g>
<!-- buffer_1&#45;&gt;add_1_1 -->
<g id="edge2" class="edge">
<title>buffer_1&#45;&gt;add_1_1</title>
<path fill="none" stroke="black" stroke-dasharray="5,2" d="M191.51,-78.6C167.37,-94.39 138.29,-113.4 114.4,-129.03"/>
<polygon fill="black" stroke="black" points="113.28,-126.84 108.76,-132.72 115.96,-130.94 113.28,-126.84"/>
<text text-anchor="middle" x="121.99" y="-127.15" font-family="Times,serif" font-size="8.00"> &#160;In 1&#45;5 &#160;</text>
<text text-anchor="middle" x="174.51" y="-72.2" font-family="Times,serif" font-size="8.00"> &#160;Out 1&#45;5 &#160;</text>
</g>
<!-- add_2_2 -->
<g id="node4" class="node">
<title>add_2_2</title>
<ellipse fill="white" stroke="black" stroke-dasharray="5,2" cx="239.88" cy="-160.45" rx="67.76" ry="32.55"/>
<text text-anchor="start" x="201.88" y="-167.25" font-family="Times,serif" font-weight="bold" font-size="14.00">add_2_2 (x5)</text>
<text text-anchor="start" x="212.88" y="-147.25" font-family="Times,serif" font-size="14.00">(4,), 16 B</text>
</g>
<!-- buffer_1&#45;&gt;add_2_2 -->
<g id="edge3" class="edge">
<title>buffer_1&#45;&gt;add_2_2</title>
<path fill="none" stroke="black" stroke-dasharray="5,2" d="M233.58,-81.94C233.06,-93.78 232.99,-107.1 233.38,-119.31"/>
<polygon fill="black" stroke="black" points="230.93,-119.15 233.67,-126.04 235.82,-118.95 230.93,-119.15"/>
<text text-anchor="middle" x="216.58" y="-84.54" font-family="Times,serif" font-size="8.00"> &#160;Out 1&#45;5 &#160;</text>
</g>
<!-- add_2_2&#45;&gt;buffer_1 -->
<g id="edge6" class="edge">
<title>add_2_2&#45;&gt;buffer_1</title>
<path fill="none" stroke="black" stroke-dasharray="5,2" d="M246.04,-127.56C246.64,-115.99 246.78,-102.73 246.47,-90.34"/>
<polygon fill="black" stroke="black" points="248.93,-90.36 246.24,-83.45 244.03,-90.53 248.93,-90.36"/>
<text text-anchor="middle" x="260.68" y="-84.54" font-family="Times,serif" font-size="8.00"> &#160;In 2&#45;6 &#160;</text>
</g>
</g>
</svg>
