<?xml version="1.0" encoding="UTF-8" standalone="no"?>
<!DOCTYPE svg PUBLIC "-//W3C//DTD SVG 1.1//EN"
 "http://www.w3.org/Graphics/SVG/1.1/DTD/svg11.dtd">
<!-- Generated by graphviz version 7.0.5 (20221231.0122)
 -->
<!-- Title: TwoDistinctLoops Pages: 1 -->
<svg width="251pt" height="657pt"
 viewBox="0.00 0.00 251.00 656.96" xmlns="http://www.w3.org/2000/svg" xmlns:xlink="http://www.w3.org/1999/xlink">
<g id="graph0" class="graph" transform="scale(1 1) rotate(0) translate(4 652.96)">
<title>TwoDistinctLoops</title>
<polygon fill="white" stroke="none" points="-4,4 -4,-652.96 247,-652.96 247,4 -4,4"/>
<text text-anchor="start" x="8" y="-634.76" font-family="Times,serif" font-weight="bold" font-size="14.00">TwoDistinctLoops</text>
<text text-anchor="start" x="8" y="-620.76" font-family="Times,serif" font-size="14.00">9 tensors total (144 B)</text>
<text text-anchor="start" x="8" y="-606.76" font-family="Times,serif" font-size="14.00">16 params (all trainable, 64 B)</text>
<g id="clust2" class="cluster">
<title>cluster_shared</title>
<polygon fill="white" stroke="black" stroke-width="5" points="8,-222.98 8,-377.98 235,-377.98 235,-222.98 8,-222.98"/>
<text text-anchor="start" x="16" y="-363.78" font-family="Times,serif" font-weight="bold" font-size="14.00">@shared (x5 · calls 1&#45;2,3&#45;5)</text>
<text text-anchor="start" x="16" y="-349.78" font-family="Times,serif" font-size="14.00">(Linear)</text>
</g>
<!-- input_1 -->
<g id="node1" class="node">
<title>input_1</title>
<ellipse fill="#98fb98" stroke="black" cx="90" cy="-45.96" rx="59.29" ry="45.92"/>
<text text-anchor="start" x="67.5" y="-61.76" font-family="Times,serif" font-weight="bold" font-size="14.00">input_1</text>
<text text-anchor="start" x="58" y="-41.76" font-family="Times,serif" font-size="14.00">(1, 4), 16 B</text>
<text text-anchor="start" x="64" y="-22.76" font-family="Times,serif" font-size="14.00">@input.x</text>
</g>
<!-- shared -->
<g id="node2" class="node">
<title>shared</title>
<g id="a_node2"><a xlink:title="TorchLens rolling: module_calls=1&#45;5; partition=1&#45;2,3&#45;5">
<polygon fill="#d9d9d9" stroke="black" points="195.5,-333.98 20.5,-333.98 16.5,-329.98 16.5,-230.98 191.5,-230.98 195.5,-234.98 195.5,-333.98"/>
<polyline fill="none" stroke="black" points="191.5,-329.98 16.5,-329.98"/>
<polyline fill="none" stroke="black" points="191.5,-329.98 191.5,-230.98"/>
<polyline fill="none" stroke="black" points="191.5,-329.98 195.5,-333.98"/>
<text text-anchor="start" x="27" y="-317.28" font-family="Times,serif" font-weight="bold" font-size="14.00">@shared (x5 · calls 1&#45;2,3&#45;5)</text>
<text text-anchor="start" x="88.5" y="-297.28" font-family="Times,serif" font-size="14.00">Linear</text>
<text text-anchor="start" x="74.5" y="-278.28" font-family="Times,serif" font-size="14.00">(1, 4), 16 B</text>
<text text-anchor="start" x="71" y="-259.28" font-family="Times,serif" font-size="14.00">1 layers total</text>
<text text-anchor="start" x="39" y="-240.28" font-family="Times,serif" font-size="14.00">16 params (all trainable)</text>
</a>
</g>
</g>
<!-- input_1&#45;&gt;shared -->
<g id="edge1" class="edge">
<title>input_1&#45;&gt;shared</title>
<path fill="none" stroke="black" d="M91.52,-92.37C92.65,-121.44 94.44,-159.96 97,-193.98 97.69,-203.16 98.56,-212.88 99.47,-222.37"/>
<polygon fill="black" stroke="black" points="97.01,-222.39 100.14,-229.12 101.89,-221.91 97.01,-222.39"/>
<text text-anchor="middle" x="89.29" y="-224.22" font-family="Times,serif" font-size="8.00"> &#160;In 1 &#160;</text>
</g>
<!-- add_1_2 -->
<g id="node3" class="node">
<title>add_1_2</title>
<ellipse fill="white" stroke="black" cx="165" cy="-161.45" rx="59.29" ry="32.55"/>
<text text-anchor="start" x="140.5" y="-168.25" font-family="Times,serif" font-weight="bold" font-size="14.00">add_1_3</text>
<text text-anchor="start" x="133" y="-148.25" font-family="Times,serif" font-size="14.00">(1, 4), 16 B</text>
</g>
<!-- input_1&#45;&gt;add_1_2 -->
<g id="edge2" class="edge">
<title>input_1&#45;&gt;add_1_2</title>
<path fill="none" stroke="black" d="M116.65,-87.29C124.46,-99.11 132.96,-111.97 140.62,-123.56"/>
<polygon fill="black" stroke="black" points="138.53,-124.84 144.44,-129.33 142.62,-122.14 138.53,-124.84"/>
</g>
<!-- shared&#45;&gt;shared -->
<g id="edge6" class="edge">
<title>shared&#45;&gt;shared</title>
<g id="a_edge6"><a xlink:title="TorchLens recurrence: endpoint=linear_1_1&#45;&gt;linear_1_1@shared; pass_pairs=1&#45;&gt;2,3&#45;&gt;4,4&#45;&gt;5; count=3; chains=1&#45;&gt;2,3&#45;&gt;4&#45;&gt;5">
<path fill="none" stroke="black" stroke-width="2" d="M195.78,-271.2C206.5,-273.25 213.5,-277.01 213.5,-282.48 213.5,-286.41 209.88,-289.46 203.87,-291.62"/>
<polygon fill="black" stroke="black" stroke-width="2" points="204.85,-288.83 198.71,-292.98 206.1,-293.57 204.85,-288.83"/>
</a>
</g>
<text text-anchor="middle" x="220" y="-278.78" font-family="Times,serif" font-size="14.00">↻</text>
<text text-anchor="middle" x="213.28" y="-296.36" font-family="Times,serif" font-size="8.00"> &#160;In 2,4&#45;5 &#160;</text>
<text text-anchor="middle" x="215.78" y="-264.8" font-family="Times,serif" font-size="8.00"> &#160;Out 1,3&#45;4 &#160;</text>
</g>
<!-- add_2_3 -->
<g id="node4" class="node">
<title>add_2_3</title>
<ellipse fill="white" stroke="black" cx="106" cy="-437.5" rx="59.29" ry="32.55"/>
<text text-anchor="start" x="81.5" y="-444.3" font-family="Times,serif" font-weight="bold" font-size="14.00">add_2_7</text>
<text text-anchor="start" x="74" y="-424.3" font-family="Times,serif" font-size="14.00">(1, 4), 16 B</text>
</g>
<!-- shared&#45;&gt;add_2_3 -->
<g id="edge3" class="edge">
<title>shared&#45;&gt;add_2_3</title>
<path fill="none" stroke="black" d="M106,-334.43C106,-354.49 106,-377.19 106,-396.09"/>
<polygon fill="black" stroke="black" points="103.55,-395.96 106,-402.96 108.45,-395.96 103.55,-395.96"/>
<text text-anchor="middle" x="89" y="-337.03" font-family="Times,serif" font-size="8.00"> &#160;Out 2,5 &#160;</text>
</g>
<!-- add_1_2&#45;&gt;shared -->
<g id="edge4" class="edge">
<title>add_1_2&#45;&gt;shared</title>
<path fill="none" stroke="black" d="M149.81,-193.1C145.25,-202.3 140.08,-212.72 134.94,-223.09"/>
<polygon fill="black" stroke="black" points="132.8,-221.9 131.88,-229.26 137.19,-224.07 132.8,-221.9"/>
<text text-anchor="middle" x="120.21" y="-224.21" font-family="Times,serif" font-size="8.00"> &#160;In 3 &#160;</text>
</g>
<!-- output_1 -->
<g id="node5" class="node">
<title>output_1</title>
<ellipse fill="#ff9999" stroke="black" cx="106" cy="-552.99" rx="59.29" ry="45.92"/>
<text text-anchor="start" x="80" y="-568.79" font-family="Times,serif" font-weight="bold" font-size="14.00">output_1</text>
<text text-anchor="start" x="74" y="-548.79" font-family="Times,serif" font-size="14.00">(1, 4), 16 B</text>
<text text-anchor="start" x="82" y="-529.79" font-family="Times,serif" font-size="14.00">@output</text>
</g>
<!-- add_2_3&#45;&gt;output_1 -->
<g id="edge5" class="edge">
<title>add_2_3&#45;&gt;output_1</title>
<path fill="none" stroke="black" d="M106,-470.42C106,-479.14 106,-488.84 106,-498.41"/>
<polygon fill="black" stroke="black" points="103.55,-498.26 106,-505.26 108.45,-498.26 103.55,-498.26"/>
</g>
</g>
</svg>
