<?xml version="1.0" encoding="UTF-8" standalone="no"?>
<!DOCTYPE svg PUBLIC "-//W3C//DTD SVG 1.1//EN"
 "http://www.w3.org/Graphics/SVG/1.1/DTD/svg11.dtd">
<!-- Generated by graphviz version 7.0.5 (20221231.0122)
 -->
<!-- Title: TwoDistinctLoops Pages: 1 -->
<svg width="193pt" height="619pt"
 viewBox="0.00 0.00 193.00 618.96" xmlns="http://www.w3.org/2000/svg" xmlns:xlink="http://www.w3.org/1999/xlink">
<g id="graph0" class="graph" transform="scale(1 1) rotate(0) translate(4 614.96)">
<title>TwoDistinctLoops</title>
<polygon fill="white" stroke="none" points="-4,4 -4,-614.96 189,-614.96 189,4 -4,4"/>
<text text-anchor="start" x="8" y="-596.76" font-family="Times,serif" font-weight="bold" font-size="14.00">TwoDistinctLoops</text>
<text text-anchor="start" x="8" y="-582.76" font-family="Times,serif" font-size="14.00">9 tensors total (144 B)</text>
<text text-anchor="start" x="8" y="-568.76" font-family="Times,serif" font-size="14.00">16 params (all trainable, 64 B)</text>
<!-- input_1 -->
<g id="node1" class="node">
<title>input_1</title>
<ellipse fill="#98fb98" stroke="black" cx="79.55" cy="-45.96" rx="59.29" ry="45.92"/>
<text text-anchor="start" x="57.05" y="-61.76" font-family="Times,serif" font-weight="bold" font-size="14.00">input_1</text>
<text text-anchor="start" x="47.55" y="-41.76" font-family="Times,serif" font-size="14.00">(1, 4), 16 B</text>
<text text-anchor="start" x="53.55" y="-22.76" font-family="Times,serif" font-size="14.00">@input.x</text>
</g>
<!-- shared -->
<g id="node2" class="node">
<title>shared</title>
<polygon fill="#d9d9d9" stroke="black" points="157.05,-331.98 6.05,-331.98 2.05,-327.98 2.05,-228.98 153.05,-228.98 157.05,-232.98 157.05,-331.98"/>
<polyline fill="none" stroke="black" points="153.05,-327.98 2.05,-327.98"/>
<polyline fill="none" stroke="black" points="153.05,-327.98 153.05,-228.98"/>
<polyline fill="none" stroke="black" points="153.05,-327.98 157.05,-331.98"/>
<text text-anchor="start" x="31.55" y="-315.28" font-family="Times,serif" font-weight="bold" font-size="14.00">@shared:1&#45;2,3&#45;5</text>
<text text-anchor="start" x="62.05" y="-295.28" font-family="Times,serif" font-size="14.00">Linear</text>
<text text-anchor="start" x="48.05" y="-276.28" font-family="Times,serif" font-size="14.00">(1, 4), 16 B</text>
<text text-anchor="start" x="44.55" y="-257.28" font-family="Times,serif" font-size="14.00">1 layers total</text>
<text text-anchor="start" x="12.55" y="-238.28" font-family="Times,serif" font-size="14.00">16 params (all trainable)</text>
</g>
<!-- input_1&#45;&gt;shared -->
<g id="edge1" class="edge">
<title>input_1&#45;&gt;shared</title>
<path fill="none" stroke="black" d="M64.13,-90.57C60.59,-102.52 57.34,-115.59 55.55,-127.92 51.4,-156.54 51.65,-164.33 55.55,-192.98 56.79,-202.05 58.72,-211.52 60.97,-220.73"/>
<polygon fill="black" stroke="black" points="58.53,-221.09 62.64,-227.26 63.28,-219.87 58.53,-221.09"/>
<text text-anchor="middle" x="52.01" y="-222.33" font-family="Times,serif" font-size="8.00"> &#160;In 1 &#160;</text>
</g>
<!-- add_1_2 -->
<g id="node3" class="node">
<title>add_1_2</title>
<ellipse fill="white" stroke="black" cx="123.55" cy="-160.45" rx="59.29" ry="32.55"/>
<text text-anchor="start" x="99.05" y="-167.25" font-family="Times,serif" font-weight="bold" font-size="14.00">add_1_3</text>
<text text-anchor="start" x="91.55" y="-147.25" font-family="Times,serif" font-size="14.00">(1, 4), 16 B</text>
</g>
<!-- input_1&#45;&gt;add_1_2 -->
<g id="edge2" class="edge">
<title>input_1&#45;&gt;add_1_2</title>
<path fill="none" stroke="black" d="M96.56,-90.45C100.42,-100.31 104.49,-110.71 108.26,-120.37"/>
<polygon fill="black" stroke="black" points="105.98,-121.24 110.81,-126.87 110.54,-119.46 105.98,-121.24"/>
</g>
<!-- shared&#45;&gt;shared -->
<g id="edge3" class="edge">
<title>shared&#45;&gt;shared</title>
<path fill="none" stroke="black" d="M157.49,-260.51C168.03,-263.86 175.05,-270.51 175.05,-280.48 175.05,-287.79 171.27,-293.33 165.08,-297.08"/>
<polygon fill="black" stroke="black" points="164.28,-294.75 158.87,-299.83 166.27,-299.23 164.28,-294.75"/>
</g>
<!-- add_2_3 -->
<g id="node4" class="node">
<title>add_2_3</title>
<ellipse fill="white" stroke="black" cx="79.55" cy="-400.5" rx="59.29" ry="32.55"/>
<text text-anchor="start" x="55.05" y="-407.3" font-family="Times,serif" font-weight="bold" font-size="14.00">add_2_7</text>
<text text-anchor="start" x="47.55" y="-387.3" font-family="Times,serif" font-size="14.00">(1, 4), 16 B</text>
</g>
<!-- shared&#45;&gt;add_2_3 -->
<g id="edge4" class="edge">
<title>shared&#45;&gt;add_2_3</title>
<path fill="none" stroke="black" d="M79.55,-332.22C79.55,-341.21 79.55,-350.47 79.55,-359.13"/>
<polygon fill="black" stroke="black" points="77.1,-359.05 79.55,-366.05 82,-359.05 77.1,-359.05"/>
<text text-anchor="middle" x="62.55" y="-334.82" font-family="Times,serif" font-size="8.00"> &#160;Out 2,5 &#160;</text>
</g>
<!-- add_1_2&#45;&gt;shared -->
<g id="edge5" class="edge">
<title>add_1_2&#45;&gt;shared</title>
<path fill="none" stroke="black" d="M111.88,-192.77C108.62,-201.5 104.98,-211.28 101.34,-221.03"/>
<polygon fill="black" stroke="black" points="99.11,-220 98.96,-227.41 103.7,-221.71 99.11,-220"/>
<text text-anchor="middle" x="87.43" y="-222.43" font-family="Times,serif" font-size="8.00"> &#160;In 3 &#160;</text>
</g>
<!-- output_1 -->
<g id="node5" class="node">
<title>output_1</title>
<ellipse fill="#ff9999" stroke="black" cx="79.55" cy="-514.99" rx="59.29" ry="45.92"/>
<text text-anchor="start" x="53.55" y="-530.79" font-family="Times,serif" font-weight="bold" font-size="14.00">output_1</text>
<text text-anchor="start" x="47.55" y="-510.79" font-family="Times,serif" font-size="14.00">(1, 4), 16 B</text>
<text text-anchor="start" x="55.55" y="-491.79" font-family="Times,serif" font-size="14.00">@output</text>
</g>
<!-- add_2_3&#45;&gt;output_1 -->
<g id="edge6" class="edge">
<title>add_2_3&#45;&gt;output_1</title>
<path fill="none" stroke="black" d="M79.55,-433.44C79.55,-441.89 79.55,-451.25 79.55,-460.52"/>
<polygon fill="black" stroke="black" points="77.1,-460.45 79.55,-467.45 82,-460.45 77.1,-460.45"/>
</g>
</g>
</svg>
