<?xml version="1.0" encoding="UTF-8" standalone="no"?>
<svg xmlns="http://www.w3.org/2000/svg" xmlns:xlink="http://www.w3.org/1999/xlink" width="740.00pt" height="670.00pt" viewBox="0 0 740.00 670.00"><rect x="0" y="0" width="100%" height="100%" fill="white"/><svg x="0" y="23.50" width="258.00" height="623.00" viewBox="0.00 0.00 258.00 622.96" overflow="visible">
<g id="graph0" class="graph" transform="scale(1 1) rotate(0) translate(4 618.96)">
<title>TwoDistinctLoops</title>
<polygon fill="white" stroke="none" points="-4,4 -4,-618.96 254,-618.96 254,4 -4,4"/>
<text text-anchor="start" x="8" y="-600.76" font-family="Times,serif" font-weight="bold" font-size="14.00">TwoDistinctLoops</text>
<text text-anchor="start" x="8" y="-586.76" font-family="Times,serif" font-size="14.00">9 tensors total (144 B)</text>
<text text-anchor="start" x="8" y="-572.76" font-family="Times,serif" font-size="14.00">16 params (all trainable, 64 B)</text>
<!-- input_1 -->
<g id="node1" class="node">
<title>input_1</title>
<ellipse fill="#98fb98" stroke="black" cx="108.5" cy="-45.96" rx="59.29" ry="45.92"/>
<text text-anchor="start" x="86" y="-61.76" font-family="Times,serif" font-weight="bold" font-size="14.00">input_1</text>
<text text-anchor="start" x="76.5" y="-41.76" font-family="Times,serif" font-size="14.00">(1, 4), 16 B</text>
<text text-anchor="start" x="82.5" y="-22.76" font-family="Times,serif" font-size="14.00">@input.x</text>
</g>
<!-- linear_1_1 -->
<g id="node2" class="node">
<title>linear_1_1</title>
<polygon fill="#d9d9d9" stroke="black" points="185,-333.98 0,-333.98 0,-230.98 185,-230.98 185,-333.98"/>
<text text-anchor="start" x="62.5" y="-317.28" font-family="Times,serif" font-weight="bold" font-size="14.00">linear_1_1</text>
<text text-anchor="start" x="61" y="-297.28" font-family="Times,serif" font-size="14.00">(1, 4), 16 B</text>
<text text-anchor="start" x="10.5" y="-278.28" font-family="Times,serif" font-size="14.00">in_features=4, out_features=4</text>
<text text-anchor="start" x="34" y="-259.28" font-family="Times,serif" font-size="14.00">params: weight (4, 4)</text>
<text text-anchor="start" x="47" y="-240.28" font-family="Times,serif" font-size="14.00">@shared:1&#45;2,3&#45;5</text>
</g>
<!-- input_1&#45;&gt;linear_1_1 -->
<g id="edge1" class="edge">
<title>input_1&#45;&gt;linear_1_1</title>
<path fill="none" stroke="black" d="M103.03,-92.01C101.72,-103.99 100.43,-116.94 99.5,-128.92 97.11,-159.72 95.44,-194.08 94.34,-222.38"/>
<polygon fill="black" stroke="black" points="91.9,-221.98 94.08,-229.06 96.8,-222.16 91.9,-221.98"/>
<text text-anchor="start" x="77.53" y="-219.68" font-family="Times,serif" font-size="8.00">In 1</text>
</g>
<!-- add_1_2 -->
<g id="node3" class="node">
<title>add_1_2</title>
<ellipse fill="white" stroke="black" cx="167.5" cy="-161.45" rx="59.29" ry="32.55"/>
<text text-anchor="start" x="143" y="-168.25" font-family="Times,serif" font-weight="bold" font-size="14.00">add_1_3</text>
<text text-anchor="start" x="135.5" y="-148.25" font-family="Times,serif" font-size="14.00">(1, 4), 16 B</text>
</g>
<!-- input_1&#45;&gt;add_1_2 -->
<g id="edge2" class="edge">
<title>input_1&#45;&gt;add_1_2</title>
<path fill="none" stroke="black" d="M130.3,-88.9C136.01,-99.88 142.13,-111.65 147.73,-122.41"/>
<polygon fill="black" stroke="black" points="145.4,-123.26 150.81,-128.34 149.75,-121 145.4,-123.26"/>
</g>
<!-- linear_1_1&#45;&gt;linear_1_1 -->
<g id="edge3" class="edge">
<title>linear_1_1&#45;&gt;linear_1_1</title>
<path fill="none" stroke="black" d="M185.2,-271.28C195.98,-273.34 203,-277.08 203,-282.48 203,-286.36 199.38,-289.38 193.33,-291.54"/>
<polygon fill="black" stroke="black" points="192.81,-289.14 186.67,-293.29 194.06,-293.88 192.81,-289.14"/>
<text text-anchor="start" x="214" y="-285.08" font-family="Times,serif" font-size="8.00">In 2,4&#45;5</text>
<text text-anchor="start" x="211.5" y="-276.08" font-family="Times,serif" font-size="8.00">Out 1,3&#45;4</text>
</g>
<!-- add_2_3 -->
<g id="node4" class="node">
<title>add_2_3</title>
<ellipse fill="white" stroke="black" cx="92.5" cy="-403.5" rx="59.29" ry="32.55"/>
<text text-anchor="start" x="68" y="-410.3" font-family="Times,serif" font-weight="bold" font-size="14.00">add_2_7</text>
<text text-anchor="start" x="60.5" y="-390.3" font-family="Times,serif" font-size="14.00">(1, 4), 16 B</text>
</g>
<!-- linear_1_1&#45;&gt;add_2_3 -->
<g id="edge4" class="edge">
<title>linear_1_1&#45;&gt;add_2_3</title>
<path fill="none" stroke="black" d="M92.5,-334.3C92.5,-343.69 92.5,-353.37 92.5,-362.38"/>
<polygon fill="black" stroke="black" points="90.05,-362.27 92.5,-369.27 94.95,-362.27 90.05,-362.27"/>
<text text-anchor="start" x="64" y="-340.4" font-family="Times,serif" font-size="8.00">Out 2,5</text>
</g>
<!-- add_1_2&#45;&gt;linear_1_1 -->
<g id="edge5" class="edge">
<title>add_1_2&#45;&gt;linear_1_1</title>
<path fill="none" stroke="black" d="M148.57,-192.49C142.59,-201.98 135.77,-212.81 128.99,-223.57"/>
<polygon fill="black" stroke="black" points="127.02,-222.1 125.36,-229.33 131.16,-224.71 127.02,-222.1"/>
<text text-anchor="start" x="108.05" y="-219.71" font-family="Times,serif" font-size="8.00">In 3</text>
</g>
<!-- output_1 -->
<g id="node5" class="node">
<title>output_1</title>
<ellipse fill="#ff9999" stroke="black" cx="92.5" cy="-518.99" rx="59.29" ry="45.92"/>
<text text-anchor="start" x="66.5" y="-534.79" font-family="Times,serif" font-weight="bold" font-size="14.00">output_1</text>
<text text-anchor="start" x="60.5" y="-514.79" font-family="Times,serif" font-size="14.00">(1, 4), 16 B</text>
<text text-anchor="start" x="68.5" y="-495.79" font-family="Times,serif" font-size="14.00">@output</text>
</g>
<!-- add_2_3&#45;&gt;output_1 -->
<g id="edge6" class="edge">
<title>add_2_3&#45;&gt;output_1</title>
<path fill="none" stroke="black" d="M92.5,-436.42C92.5,-445.14 92.5,-454.84 92.5,-464.41"/>
<polygon fill="black" stroke="black" points="90.05,-464.26 92.5,-471.26 94.95,-464.26 90.05,-464.26"/>
</g>
</g>
</svg><svg x="282.00" y="0.00" width="458.00" height="670.00" viewBox="0.00 0.00 458.00 670.00" overflow="visible">
<g id="graph0" class="graph" transform="scale(1 1) rotate(0) translate(4 666)">
<g id="clust1" class="cluster">
<title>cluster_torchlens_code_panel</title>
<path fill="#fafafa" stroke="#a8a8a8" d="M20,-8C20,-8 430,-8 430,-8 436,-8 442,-14 442,-20 442,-20 442,-642 442,-642 442,-648 436,-654 430,-654 430,-654 20,-654 20,-654 14,-654 8,-648 8,-642 8,-642 8,-20 8,-20 8,-14 14,-8 20,-8"/>
</g>
<!-- __tl_code_panel_node -->
<g id="node1" class="node">
<title>__tl_code_panel_node</title>
<text text-anchor="start" x="22" y="-629.8" font-family="Courier,monospace" font-weight="bold" font-size="14.00">Source code</text>
<g id="a_node1_0"><a xlink:href="vscode://file//home/jtaylor/projects/torchlens/tests/test_loop_module_rolling.py:296" xlink:title="/home/jtaylor/projects/torchlens/tests/test_loop_module_rolling.py:296">
<text text-anchor="start" x="22" y="-609.8" font-family="Courier,monospace" font-size="14.00" fill="#0366d6">Open source</text>
</a>
</g>
<text text-anchor="start" x="22" y="-590.8" font-family="Courier,monospace" font-size="14.00">def __init__(self) &#45;&gt; None:</text>
<text text-anchor="start" x="22" y="-571.8" font-family="Courier,monospace" font-size="14.00"> &#160;&#160;&#160;&quot;&quot;&quot;Initialize the shared module.&quot;&quot;&quot;</text>
<text text-anchor="start" x="22" y="-552.8" font-family="Courier,monospace" font-size="14.00"> </text>
<text text-anchor="start" x="22" y="-533.8" font-family="Courier,monospace" font-size="14.00"> &#160;&#160;&#160;super().__init__()</text>
<text text-anchor="start" x="22" y="-514.8" font-family="Courier,monospace" font-size="14.00"> &#160;&#160;&#160;self.shared = nn.Linear(4, 4, bias=False)</text>
<text text-anchor="start" x="22" y="-495.8" font-family="Courier,monospace" font-size="14.00"> </text>
<text text-anchor="start" x="22" y="-476.8" font-family="Courier,monospace" font-size="14.00">def forward(self, x: torch.Tensor) &#45;&gt; torch.Tensor:</text>
<text text-anchor="start" x="22" y="-457.8" font-family="Courier,monospace" font-size="14.00"> &#160;&#160;&#160;&quot;&quot;&quot;Run two separate loops that reuse the same module.&quot;&quot;&quot;</text>
<text text-anchor="start" x="22" y="-438.8" font-family="Courier,monospace" font-size="14.00"> </text>
<text text-anchor="start" x="22" y="-419.8" font-family="Courier,monospace" font-size="14.00"> &#160;&#160;&#160;first = x</text>
<text text-anchor="start" x="22" y="-400.8" font-family="Courier,monospace" font-size="14.00"> &#160;&#160;&#160;for _ in range(2):</text>
<text text-anchor="start" x="22" y="-381.8" font-family="Courier,monospace" font-size="14.00"> &#160;&#160;&#160;&#160;&#160;&#160;&#160;first = self.shared(first)</text>
<text text-anchor="start" x="22" y="-362.8" font-family="Courier,monospace" font-size="14.00"> &#160;&#160;&#160;second = x + 1</text>
<text text-anchor="start" x="22" y="-343.8" font-family="Courier,monospace" font-size="14.00"> &#160;&#160;&#160;for _ in range(3):</text>
<text text-anchor="start" x="22" y="-324.8" font-family="Courier,monospace" font-size="14.00"> &#160;&#160;&#160;&#160;&#160;&#160;&#160;second = self.shared(second)</text>
<text text-anchor="start" x="22" y="-305.8" font-family="Courier,monospace" font-size="14.00"> &#160;&#160;&#160;return first + second</text>
<text text-anchor="start" x="22" y="-156.3" font-family="Courier,monospace" font-size="14.00" fill="#fafafa"> </text>
</g>
</g>
</svg></svg>
