<?xml version="1.0" encoding="UTF-8" standalone="no"?>
<!DOCTYPE svg PUBLIC "-//W3C//DTD SVG 1.1//EN"
 "http://www.w3.org/Graphics/SVG/1.1/DTD/svg11.dtd">
<!-- Generated by graphviz version 7.0.5 (20221231.0122)
 -->
<!-- Title: InsideOutsideLoop Pages: 1 -->
<svg width="387pt" height="673pt"
 viewBox="0.00 0.00 387.00 672.75" xmlns="http://www.w3.org/2000/svg" xmlns:xlink="http://www.w3.org/1999/xlink">
<g id="graph0" class="graph" transform="scale(1 1) rotate(0) translate(4 668.75)">
<title>InsideOutsideLoop</title>
<polygon fill="white" stroke="none" points="-4,4 -4,-668.75 383,-668.75 383,4 -4,4"/>
<text text-anchor="start" x="8" y="-650.55" font-family="Times,serif" font-weight="bold" font-size="14.00">InsideOutsideLoop</text>
<text text-anchor="start" x="8" y="-636.55" font-family="Times,serif" font-size="14.00">8 tensors total (128 B)</text>
<text text-anchor="start" x="8" y="-622.55" font-family="Times,serif" font-size="14.00">16 params (all trainable, 64 B)</text>
<g id="clust2" class="cluster">
<title>cluster_lin</title>
<polygon fill="white" stroke="black" stroke-width="5" points="8,-222.98 8,-393.77 371,-393.77 371,-222.98 8,-222.98"/>
<text text-anchor="start" x="16" y="-379.57" font-family="Times,serif" font-weight="bold" font-size="14.00">@lin (x4 · calls 1,2&#45;4)</text>
<text text-anchor="start" x="16" y="-365.57" font-family="Times,serif" font-size="14.00">(Linear)</text>
</g>
<!-- input_1 -->
<g id="node1" class="node">
<title>input_1</title>
<ellipse fill="#98fb98" stroke="black" cx="158" cy="-45.96" rx="59.29" ry="45.92"/>
<text text-anchor="start" x="135.5" y="-61.76" font-family="Times,serif" font-weight="bold" font-size="14.00">input_1</text>
<text text-anchor="start" x="126" y="-41.76" font-family="Times,serif" font-size="14.00">(1, 4), 16 B</text>
<text text-anchor="start" x="132" y="-22.76" font-family="Times,serif" font-size="14.00">@input.x</text>
</g>
<!-- linear_1_1 -->
<g id="node2" class="node">
<title>linear_1_1</title>
<g id="a_node2"><a xlink:title="TorchLens rolling: facet=mixed; sites=1; call_groups=1,2&#45;4">
<ellipse fill="#d9d9d9" stroke="black" cx="174" cy="-290.37" rx="158.28" ry="59.29"/>
<text text-anchor="start" x="72" y="-316.17" font-family="Times,serif" font-weight="bold" font-size="14.00">linear_1_1 (x4 · calls 1,2&#45;4 · mixed)</text>
<text text-anchor="start" x="142" y="-296.17" font-family="Times,serif" font-size="14.00">(1, 4), 16 B</text>
<text text-anchor="start" x="91.5" y="-277.17" font-family="Times,serif" font-size="14.00">in_features=4, out_features=4</text>
<text text-anchor="start" x="115" y="-258.17" font-family="Times,serif" font-size="14.00">params: weight (4, 4)</text>
</a>
</g>
</g>
<!-- input_1&#45;&gt;linear_1_1 -->
<g id="edge1" class="edge">
<title>input_1&#45;&gt;linear_1_1</title>
<path fill="none" stroke="black" d="M159.62,-92.36C160.79,-121.43 162.59,-159.95 165,-193.98 165.65,-203.15 166.44,-212.82 167.28,-222.33"/>
<polygon fill="black" stroke="black" points="164.82,-222.37 167.89,-229.13 169.7,-221.93 164.82,-222.37"/>
<text text-anchor="middle" x="157.03" y="-224.23" font-family="Times,serif" font-size="8.00"> &#160;In 1 &#160;</text>
</g>
<!-- add_1_2 -->
<g id="node3" class="node">
<title>add_1_2</title>
<ellipse fill="white" stroke="black" cx="233" cy="-161.45" rx="59.29" ry="32.55"/>
<text text-anchor="start" x="208.5" y="-168.25" font-family="Times,serif" font-weight="bold" font-size="14.00">add_1_2</text>
<text text-anchor="start" x="201" y="-148.25" font-family="Times,serif" font-size="14.00">(1, 4), 16 B</text>
</g>
<!-- input_1&#45;&gt;add_1_2 -->
<g id="edge2" class="edge">
<title>input_1&#45;&gt;add_1_2</title>
<path fill="none" stroke="black" d="M184.65,-87.29C192.46,-99.11 200.96,-111.97 208.62,-123.56"/>
<polygon fill="black" stroke="black" points="206.53,-124.84 212.44,-129.33 210.62,-122.14 206.53,-124.84"/>
</g>
<!-- linear_1_1&#45;&gt;linear_1_1 -->
<g id="edge6" class="edge">
<title>linear_1_1&#45;&gt;linear_1_1</title>
<g id="a_edge6"><a xlink:title="TorchLens recurrence: endpoint=linear_1_1; pass_pairs=2&#45;&gt;3,3&#45;&gt;4; count=2; chains=2&#45;&gt;3&#45;&gt;4">
<path fill="none" stroke="black" stroke-width="2" d="M329.97,-279.2C342.58,-281.63 350.39,-285.35 350.39,-290.37 350.39,-294.22 345.81,-297.3 338,-299.63"/>
<polygon fill="black" stroke="black" stroke-width="2" points="339.15,-296.84 332.91,-300.85 340.29,-301.6 339.15,-296.84"/>
</a>
</g>
<text text-anchor="middle" x="356.89" y="-286.67" font-family="Times,serif" font-size="14.00">↻</text>
<text text-anchor="middle" x="344.47" y="-304.15" font-family="Times,serif" font-size="8.00"> &#160;In 3&#45;4 &#160;</text>
<text text-anchor="middle" x="346.97" y="-272.8" font-family="Times,serif" font-size="8.00"> &#160;Out 2&#45;3 &#160;</text>
</g>
<!-- add_2_3 -->
<g id="node4" class="node">
<title>add_2_3</title>
<ellipse fill="white" stroke="black" cx="174" cy="-453.3" rx="59.29" ry="32.55"/>
<text text-anchor="start" x="149.5" y="-460.1" font-family="Times,serif" font-weight="bold" font-size="14.00">add_2_6</text>
<text text-anchor="start" x="142" y="-440.1" font-family="Times,serif" font-size="14.00">(1, 4), 16 B</text>
</g>
<!-- linear_1_1&#45;&gt;add_2_3 -->
<g id="edge3" class="edge">
<title>linear_1_1&#45;&gt;add_2_3</title>
<path fill="none" stroke="black" d="M174,-349.93C174,-370.66 174,-393.49 174,-412.32"/>
<polygon fill="black" stroke="black" points="171.55,-412.15 174,-419.15 176.45,-412.15 171.55,-412.15"/>
<text text-anchor="middle" x="157" y="-352.53" font-family="Times,serif" font-size="8.00"> &#160;Out 1,4 &#160;</text>
</g>
<!-- add_1_2&#45;&gt;linear_1_1 -->
<g id="edge4" class="edge">
<title>add_1_2&#45;&gt;linear_1_1</title>
<path fill="none" stroke="black" d="M218.57,-193.5C214.22,-202.86 209.27,-213.51 204.29,-224.22"/>
<polygon fill="black" stroke="black" points="202.21,-222.88 201.48,-230.26 206.65,-224.95 202.21,-222.88"/>
<text text-anchor="middle" x="189.84" y="-225.23" font-family="Times,serif" font-size="8.00"> &#160;In 2 &#160;</text>
</g>
<!-- output_1 -->
<g id="node5" class="node">
<title>output_1</title>
<ellipse fill="#ff9999" stroke="black" cx="174" cy="-568.79" rx="59.29" ry="45.92"/>
<text text-anchor="start" x="148" y="-584.59" font-family="Times,serif" font-weight="bold" font-size="14.00">output_1</text>
<text text-anchor="start" x="142" y="-564.59" font-family="Times,serif" font-size="14.00">(1, 4), 16 B</text>
<text text-anchor="start" x="150" y="-545.59" font-family="Times,serif" font-size="14.00">@output</text>
</g>
<!-- add_2_3&#45;&gt;output_1 -->
<g id="edge5" class="edge">
<title>add_2_3&#45;&gt;output_1</title>
<path fill="none" stroke="black" d="M174,-486.21C174,-494.94 174,-504.63 174,-514.21"/>
<polygon fill="black" stroke="black" points="171.55,-514.05 174,-521.05 176.45,-514.05 171.55,-514.05"/>
</g>
</g>
</svg>
