<?xml version="1.0" encoding="UTF-8" standalone="no"?>
<!DOCTYPE svg PUBLIC "-//W3C//DTD SVG 1.1//EN"
 "http://www.w3.org/Graphics/SVG/1.1/DTD/svg11.dtd">
<!-- Generated by graphviz version 7.0.5 (20221231.0122)
 -->
<!-- Title: InsideOutsideLoop Pages: 1 -->
<svg width="270pt" height="635pt"
 viewBox="0.00 0.00 269.63 634.75" xmlns="http://www.w3.org/2000/svg" xmlns:xlink="http://www.w3.org/1999/xlink">
<g id="graph0" class="graph" transform="scale(1 1) rotate(0) translate(4 630.75)">
<title>InsideOutsideLoop</title>
<polygon fill="white" stroke="none" points="-4,4 -4,-630.75 265.63,-630.75 265.63,4 -4,4"/>
<text text-anchor="start" x="8" y="-612.55" font-family="Times,serif" font-weight="bold" font-size="14.00">InsideOutsideLoop</text>
<text text-anchor="start" x="8" y="-598.55" font-family="Times,serif" font-size="14.00">8 tensors total (128 B)</text>
<text text-anchor="start" x="8" y="-584.55" font-family="Times,serif" font-size="14.00">16 params (all trainable, 64 B)</text>
<!-- input_1 -->
<g id="node1" class="node">
<title>input_1</title>
<ellipse fill="#98fb98" stroke="black" cx="130.81" cy="-45.96" rx="59.29" ry="45.92"/>
<text text-anchor="start" x="108.31" y="-61.76" font-family="Times,serif" font-weight="bold" font-size="14.00">input_1</text>
<text text-anchor="start" x="98.81" y="-41.76" font-family="Times,serif" font-size="14.00">(1, 4), 16 B</text>
<text text-anchor="start" x="104.81" y="-22.76" font-family="Times,serif" font-size="14.00">@input.x</text>
</g>
<!-- linear_1_1 -->
<g id="node2" class="node">
<title>linear_1_1</title>
<g id="a_node2"><a xlink:title="TorchLens rolling: facet=mixed; sites=1; call_groups=1,2&#45;4">
<ellipse fill="#d9d9d9" stroke="black" cx="130.81" cy="-288.37" rx="130.63" ry="59.29"/>
<text text-anchor="start" x="52.81" y="-314.17" font-family="Times,serif" font-weight="bold" font-size="14.00">linear_1_1 (x4 · calls 1,2&#45;4)</text>
<text text-anchor="start" x="99.31" y="-294.17" font-family="Times,serif" font-size="14.00">(1, 4), 16 B</text>
<text text-anchor="start" x="48.81" y="-275.17" font-family="Times,serif" font-size="14.00">in_features=4, out_features=4</text>
<text text-anchor="start" x="72.31" y="-256.17" font-family="Times,serif" font-size="14.00">params: weight (4, 4)</text>
</a>
</g>
</g>
<!-- input_1&#45;&gt;linear_1_1 -->
<g id="edge1" class="edge">
<title>input_1&#45;&gt;linear_1_1</title>
<path fill="none" stroke="black" d="M115.39,-90.57C111.85,-102.52 108.6,-115.59 106.81,-127.92 102.66,-156.54 103.22,-164.29 106.81,-192.98 107.96,-202.13 109.71,-211.66 111.74,-221"/>
<polygon fill="black" stroke="black" points="109.32,-221.39 113.27,-227.67 114.1,-220.3 109.32,-221.39"/>
<text text-anchor="middle" x="102.6" y="-222.74" font-family="Times,serif" font-size="8.00"> &#160;In 1 &#160;</text>
</g>
<!-- add_1_2 -->
<g id="node3" class="node">
<title>add_1_2</title>
<ellipse fill="white" stroke="black" cx="174.81" cy="-160.45" rx="59.29" ry="32.55"/>
<text text-anchor="start" x="150.31" y="-167.25" font-family="Times,serif" font-weight="bold" font-size="14.00">add_1_2</text>
<text text-anchor="start" x="142.81" y="-147.25" font-family="Times,serif" font-size="14.00">(1, 4), 16 B</text>
</g>
<!-- input_1&#45;&gt;add_1_2 -->
<g id="edge2" class="edge">
<title>input_1&#45;&gt;add_1_2</title>
<path fill="none" stroke="black" d="M147.83,-90.45C151.68,-100.31 155.75,-110.71 159.53,-120.37"/>
<polygon fill="black" stroke="black" points="157.24,-121.24 162.07,-126.87 161.8,-119.46 157.24,-121.24"/>
</g>
<!-- add_2_3 -->
<g id="node4" class="node">
<title>add_2_3</title>
<ellipse fill="white" stroke="black" cx="130.81" cy="-416.3" rx="59.29" ry="32.55"/>
<text text-anchor="start" x="106.31" y="-423.1" font-family="Times,serif" font-weight="bold" font-size="14.00">add_2_6</text>
<text text-anchor="start" x="98.81" y="-403.1" font-family="Times,serif" font-size="14.00">(1, 4), 16 B</text>
</g>
<!-- linear_1_1&#45;&gt;add_2_3 -->
<g id="edge3" class="edge">
<title>linear_1_1&#45;&gt;add_2_3</title>
<path fill="none" stroke="black" d="M130.81,-347.91C130.81,-357.07 130.81,-366.34 130.81,-374.97"/>
<polygon fill="black" stroke="black" points="128.36,-374.83 130.81,-381.83 133.26,-374.83 128.36,-374.83"/>
<text text-anchor="middle" x="113.81" y="-350.51" font-family="Times,serif" font-size="8.00"> &#160;Out 1,4 &#160;</text>
</g>
<!-- add_1_2&#45;&gt;linear_1_1 -->
<g id="edge4" class="edge">
<title>add_1_2&#45;&gt;linear_1_1</title>
<path fill="none" stroke="black" d="M163.83,-192.9C160.77,-201.64 157.34,-211.47 153.87,-221.4"/>
<polygon fill="black" stroke="black" points="151.58,-220.51 151.59,-227.93 156.21,-222.13 151.58,-220.51"/>
<text text-anchor="middle" x="140.09" y="-222.96" font-family="Times,serif" font-size="8.00"> &#160;In 2 &#160;</text>
</g>
<!-- output_1 -->
<g id="node5" class="node">
<title>output_1</title>
<ellipse fill="#ff9999" stroke="black" cx="130.81" cy="-530.79" rx="59.29" ry="45.92"/>
<text text-anchor="start" x="104.81" y="-546.59" font-family="Times,serif" font-weight="bold" font-size="14.00">output_1</text>
<text text-anchor="start" x="98.81" y="-526.59" font-family="Times,serif" font-size="14.00">(1, 4), 16 B</text>
<text text-anchor="start" x="106.81" y="-507.59" font-family="Times,serif" font-size="14.00">@output</text>
</g>
<!-- add_2_3&#45;&gt;output_1 -->
<g id="edge5" class="edge">
<title>add_2_3&#45;&gt;output_1</title>
<path fill="none" stroke="black" d="M130.81,-449.23C130.81,-457.69 130.81,-467.05 130.81,-476.31"/>
<polygon fill="black" stroke="black" points="128.36,-476.24 130.81,-483.24 133.26,-476.24 128.36,-476.24"/>
</g>
</g>
</svg>
