<?xml version="1.0" encoding="UTF-8" standalone="no"?>
<!DOCTYPE svg PUBLIC "-//W3C//DTD SVG 1.1//EN"
 "http://www.w3.org/Graphics/SVG/1.1/DTD/svg11.dtd">
<!-- Generated by graphviz version 7.0.5 (20221231.0122)
 -->
<!-- Title: MixedDependency Pages: 1 -->
<svg width="247pt" height="518pt"
 viewBox="0.00 0.00 246.90 517.90" xmlns="http://www.w3.org/2000/svg" xmlns:xlink="http://www.w3.org/1999/xlink">
<g id="graph0" class="graph" transform="scale(1 1) rotate(0) translate(4 513.9)">
<title>MixedDependency</title>
<polygon fill="white" stroke="none" points="-4,4 -4,-513.9 242.9,-513.9 242.9,4 -4,4"/>
<text text-anchor="start" x="8" y="-495.7" font-family="Times,serif" font-weight="bold" font-size="14.00">MixedDependency</text>
<text text-anchor="start" x="8" y="-481.7" font-family="Times,serif" font-size="14.00">6 tensors total (96 B)</text>
<text text-anchor="start" x="8" y="-467.7" font-family="Times,serif" font-size="14.00">16 params (all trainable, 64 B)</text>
<!-- input_1 -->
<g id="node1" class="node">
<title>input_1</title>
<ellipse fill="#98fb98" stroke="black" cx="92.5" cy="-45.96" rx="59.29" ry="45.92"/>
<text text-anchor="start" x="70" y="-61.76" font-family="Times,serif" font-weight="bold" font-size="14.00">input_1</text>
<text text-anchor="start" x="60.5" y="-41.76" font-family="Times,serif" font-size="14.00">(1, 4), 16 B</text>
<text text-anchor="start" x="66.5" y="-22.76" font-family="Times,serif" font-size="14.00">@input.x</text>
</g>
<!-- linear_1_1 -->
<g id="node2" class="node">
<title>linear_1_1</title>
<g id="a_node2"><a xlink:title="TorchLens rolling: facet=mixed; sites=1">
<polygon fill="#d9d9d9" stroke="black" points="185,-230.92 0,-230.92 0,-127.92 185,-127.92 185,-230.92"/>
<text text-anchor="start" x="49" y="-214.22" font-family="Times,serif" font-weight="bold" font-size="14.00">linear_1_1 (x3)</text>
<text text-anchor="start" x="61" y="-194.22" font-family="Times,serif" font-size="14.00">(1, 4), 16 B</text>
<text text-anchor="start" x="10.5" y="-175.22" font-family="Times,serif" font-size="14.00">in_features=4, out_features=4</text>
<text text-anchor="start" x="34" y="-156.22" font-family="Times,serif" font-size="14.00">params: weight (4, 4)</text>
<text text-anchor="start" x="75.5" y="-137.22" font-family="Times,serif" font-size="14.00">@proj</text>
</a>
</g>
</g>
<!-- input_1&#45;&gt;linear_1_1 -->
<g id="edge1" class="edge">
<title>input_1&#45;&gt;linear_1_1</title>
<path fill="none" stroke="black" d="M92.5,-92.2C92.5,-100.96 92.5,-110.26 92.5,-119.38"/>
<polygon fill="black" stroke="black" points="90.05,-119.17 92.5,-126.17 94.95,-119.17 90.05,-119.17"/>
<text text-anchor="middle" x="78" y="-121.29" font-family="Times,serif" font-size="8.00"> &#160;In 1&#45;2 &#160;</text>
</g>
<!-- add_1_2 -->
<g id="node3" class="node">
<title>add_1_2</title>
<ellipse fill="white" stroke="black" cx="92.5" cy="-299.45" rx="59.29" ry="32.55"/>
<text text-anchor="start" x="68" y="-306.25" font-family="Times,serif" font-weight="bold" font-size="14.00">add_1_3</text>
<text text-anchor="start" x="60.5" y="-286.25" font-family="Times,serif" font-size="14.00">(1, 4), 16 B</text>
</g>
<!-- linear_1_1&#45;&gt;add_1_2 -->
<g id="edge2" class="edge">
<title>linear_1_1&#45;&gt;add_1_2</title>
<path fill="none" stroke="black" d="M85.81,-231.16C85.68,-240.25 85.76,-249.61 86.07,-258.35"/>
<polygon fill="black" stroke="black" points="83.62,-258.45 86.38,-265.34 88.52,-258.24 83.62,-258.45"/>
<text text-anchor="middle" x="68.81" y="-233.76" font-family="Times,serif" font-size="8.00"> &#160;Out 1&#45;2 &#160;</text>
</g>
<!-- output_1 -->
<g id="node4" class="node">
<title>output_1</title>
<ellipse fill="#ff9999" stroke="black" cx="179.5" cy="-413.94" rx="59.29" ry="45.92"/>
<text text-anchor="start" x="153.5" y="-429.74" font-family="Times,serif" font-weight="bold" font-size="14.00">output_1</text>
<text text-anchor="start" x="147.5" y="-409.74" font-family="Times,serif" font-size="14.00">(1, 4), 16 B</text>
<text text-anchor="start" x="155.5" y="-390.74" font-family="Times,serif" font-size="14.00">@output</text>
</g>
<!-- linear_1_1&#45;&gt;output_1 -->
<g id="edge3" class="edge">
<title>linear_1_1&#45;&gt;output_1</title>
<path fill="none" stroke="black" d="M139.48,-231.06C147.68,-242.2 155.25,-254.42 160.5,-266.92 172.71,-295.99 177.57,-330.94 179.32,-359.35"/>
<polygon fill="black" stroke="black" points="176.86,-359.19 179.67,-366.06 181.75,-358.94 176.86,-359.19"/>
<text text-anchor="middle" x="125.48" y="-233.66" font-family="Times,serif" font-size="8.00"> &#160;Out 3 &#160;</text>
</g>
<!-- add_1_2&#45;&gt;linear_1_1 -->
<g id="edge4" class="edge">
<title>add_1_2&#45;&gt;linear_1_1</title>
<path fill="none" stroke="black" d="M98.56,-266.85C99.02,-258.37 99.25,-248.91 99.25,-239.45"/>
<polygon fill="black" stroke="black" points="101.7,-239.66 99.2,-232.68 96.8,-239.69 101.7,-239.66"/>
<text text-anchor="middle" x="99.19" y="-233.76" font-family="Times,serif" font-size="8.00"> &#160;In 3 &#160;</text>
</g>
</g>
</svg>
