<?xml version="1.0" encoding="UTF-8" standalone="no"?>
<!DOCTYPE svg PUBLIC "-//W3C//DTD SVG 1.1//EN"
 "http://www.w3.org/Graphics/SVG/1.1/DTD/svg11.dtd">
<!-- Generated by graphviz version 7.0.5 (20221231.0122)
 -->
<!-- Title: ParallelFanout Pages: 1 -->
<svg width="193pt" height="518pt"
 viewBox="0.00 0.00 193.00 517.90" xmlns="http://www.w3.org/2000/svg" xmlns:xlink="http://www.w3.org/1999/xlink">
<g id="graph0" class="graph" transform="scale(1 1) rotate(0) translate(4 513.9)">
<title>ParallelFanout</title>
<polygon fill="white" stroke="none" points="-4,4 -4,-513.9 189,-513.9 189,4 -4,4"/>
<text text-anchor="start" x="8" y="-495.7" font-family="Times,serif" font-weight="bold" font-size="14.00">ParallelFanout</text>
<text text-anchor="start" x="8" y="-481.7" font-family="Times,serif" font-size="14.00">7 tensors total (208 B)</text>
<text text-anchor="start" x="8" y="-467.7" font-family="Times,serif" font-size="14.00">16 params (all trainable, 64 B)</text>
<!-- input_1 -->
<g id="node1" class="node">
<title>input_1</title>
<ellipse fill="#98fb98" stroke="black" cx="92.5" cy="-45.96" rx="59.29" ry="45.92"/>
<text text-anchor="start" x="70" y="-61.76" font-family="Times,serif" font-weight="bold" font-size="14.00">input_1</text>
<text text-anchor="start" x="60.5" y="-41.76" font-family="Times,serif" font-size="14.00">(1, 4), 16 B</text>
<text text-anchor="start" x="66.5" y="-22.76" font-family="Times,serif" font-size="14.00">@input.x</text>
</g>
<!-- linear_1_1 -->
<g id="node2" class="node">
<title>linear_1_1</title>
<g id="a_node2"><a xlink:title="TorchLens rolling: facet=fan&#45;out; sites=1">
<polygon fill="#d9d9d9" stroke="black" points="185,-230.92 0,-230.92 0,-127.92 185,-127.92 185,-230.92"/>
<text text-anchor="start" x="49" y="-214.22" font-family="Times,serif" font-weight="bold" font-size="14.00">linear_1_1 (x4)</text>
<text text-anchor="start" x="61" y="-194.22" font-family="Times,serif" font-size="14.00">(1, 4), 16 B</text>
<text text-anchor="start" x="10.5" y="-175.22" font-family="Times,serif" font-size="14.00">in_features=4, out_features=4</text>
<text text-anchor="start" x="34" y="-156.22" font-family="Times,serif" font-size="14.00">params: weight (4, 4)</text>
<text text-anchor="start" x="75.5" y="-137.22" font-family="Times,serif" font-size="14.00">@proj</text>
</a>
</g>
</g>
<!-- input_1&#45;&gt;linear_1_1 -->
<g id="edge1" class="edge">
<title>input_1&#45;&gt;linear_1_1</title>
<path fill="none" stroke="black" d="M92.5,-92.2C92.5,-100.96 92.5,-110.26 92.5,-119.38"/>
<polygon fill="black" stroke="black" points="90.05,-119.17 92.5,-126.17 94.95,-119.17 90.05,-119.17"/>
</g>
<!-- stack_1_2 -->
<g id="node3" class="node">
<title>stack_1_2</title>
<ellipse fill="white" stroke="black" cx="92.5" cy="-299.45" rx="70.01" ry="32.55"/>
<text text-anchor="start" x="64" y="-306.25" font-family="Times,serif" font-weight="bold" font-size="14.00">stack_1_5</text>
<text text-anchor="start" x="53.5" y="-286.25" font-family="Times,serif" font-size="14.00">(4, 1, 4), 64 B</text>
</g>
<!-- linear_1_1&#45;&gt;stack_1_2 -->
<g id="edge2" class="edge">
<title>linear_1_1&#45;&gt;stack_1_2</title>
<path fill="none" stroke="black" d="M92.5,-231.16C92.5,-240.16 92.5,-249.42 92.5,-258.08"/>
<polygon fill="black" stroke="black" points="90.05,-258 92.5,-265 94.95,-258 90.05,-258"/>
</g>
<!-- output_1 -->
<g id="node4" class="node">
<title>output_1</title>
<ellipse fill="#ff9999" stroke="black" cx="92.5" cy="-413.94" rx="70.01" ry="45.92"/>
<text text-anchor="start" x="67" y="-429.74" font-family="Times,serif" font-weight="bold" font-size="14.00">output_1</text>
<text text-anchor="start" x="53.5" y="-409.74" font-family="Times,serif" font-size="14.00">(4, 1, 4), 64 B</text>
<text text-anchor="start" x="69" y="-390.74" font-family="Times,serif" font-size="14.00">@output</text>
</g>
<!-- stack_1_2&#45;&gt;output_1 -->
<g id="edge3" class="edge">
<title>stack_1_2&#45;&gt;output_1</title>
<path fill="none" stroke="black" d="M92.5,-332.38C92.5,-340.84 92.5,-350.2 92.5,-359.46"/>
<polygon fill="black" stroke="black" points="90.05,-359.4 92.5,-366.4 94.95,-359.4 90.05,-359.4"/>
</g>
</g>
</svg>
