<?xml version="1.0" encoding="UTF-8" standalone="no"?>
<!DOCTYPE svg PUBLIC "-//W3C//DTD SVG 1.1//EN"
 "http://www.w3.org/Graphics/SVG/1.1/DTD/svg11.dtd">
<!-- Generated by graphviz version 7.0.5 (20221231.0122)
 -->
<!-- Title: ReusedReluLoop Pages: 1 -->
<svg width="209pt" height="415pt"
 viewBox="0.00 0.00 209.00 414.90" xmlns="http://www.w3.org/2000/svg" xmlns:xlink="http://www.w3.org/1999/xlink">
<g id="graph0" class="graph" transform="scale(1 1) rotate(0) translate(4 410.9)">
<title>ReusedReluLoop</title>
<polygon fill="white" stroke="none" points="-4,4 -4,-410.9 205,-410.9 205,4 -4,4"/>
<text text-anchor="start" x="8" y="-392.7" font-family="Times,serif" font-weight="bold" font-size="14.00">ReusedReluLoop</text>
<text text-anchor="start" x="8" y="-378.7" font-family="Times,serif" font-size="14.00">6 tensors total (96 B)</text>
<text text-anchor="start" x="8" y="-364.7" font-family="Times,serif" font-size="14.00">0 params</text>
<g id="clust2" class="cluster">
<title>cluster_relu</title>
<polygon fill="white" stroke="black" stroke-width="5" points="8,-120.92 8,-237.98 193,-237.98 193,-120.92 8,-120.92"/>
<text text-anchor="start" x="16" y="-223.78" font-family="Times,serif" font-weight="bold" font-size="14.00">@relu (x4)</text>
<text text-anchor="start" x="16" y="-209.78" font-family="Times,serif" font-size="14.00">(ReLU)</text>
</g>
<!-- input_1 -->
<g id="node1" class="node">
<title>input_1</title>
<ellipse fill="#98fb98" stroke="black" cx="85" cy="-45.96" rx="59.29" ry="45.92"/>
<text text-anchor="start" x="62.5" y="-61.76" font-family="Times,serif" font-weight="bold" font-size="14.00">input_1</text>
<text text-anchor="start" x="53" y="-41.76" font-family="Times,serif" font-size="14.00">(1, 4), 16 B</text>
<text text-anchor="start" x="59" y="-22.76" font-family="Times,serif" font-size="14.00">@input.x</text>
</g>
<!-- relu_1_1 -->
<g id="node2" class="node">
<title>relu_1_1</title>
<g id="a_node2"><a xlink:title="TorchLens rolling: facet=chain; sites=1">
<ellipse fill="white" stroke="black" cx="85" cy="-161.45" rx="68.68" ry="32.55"/>
<text text-anchor="start" x="47" y="-168.25" font-family="Times,serif" font-weight="bold" font-size="14.00">relu_1_1 (x4)</text>
<text text-anchor="start" x="53.5" y="-148.25" font-family="Times,serif" font-size="14.00">(1, 4), 16 B</text>
</a>
</g>
</g>
<!-- input_1&#45;&gt;relu_1_1 -->
<g id="edge1" class="edge">
<title>input_1&#45;&gt;relu_1_1</title>
<path fill="none" stroke="black" d="M85,-92.14C85,-101.42 85,-111.12 85,-120.21"/>
<polygon fill="black" stroke="black" points="82.55,-120.18 85,-127.18 87.45,-120.18 82.55,-120.18"/>
<text text-anchor="middle" x="74" y="-122.3" font-family="Times,serif" font-size="8.00"> &#160;In 1 &#160;</text>
</g>
<!-- relu_1_1&#45;&gt;relu_1_1 -->
<g id="edge3" class="edge">
<title>relu_1_1&#45;&gt;relu_1_1</title>
<g id="a_edge3"><a xlink:title="TorchLens recurrence: endpoint=relu_1_1; pass_pairs=1&#45;&gt;2,2&#45;&gt;3,3&#45;&gt;4; count=3">
<path fill="none" stroke="black" stroke-width="2" d="M151.44,-152.44C163.3,-153.62 171.59,-156.62 171.59,-161.45 171.59,-165.08 166.93,-167.67 159.59,-169.24"/>
<polygon fill="black" stroke="black" stroke-width="2" points="160.99,-166.55 154.43,-170.01 161.72,-171.39 160.99,-166.55"/>
</a>
</g>
<text text-anchor="middle" x="178.09" y="-157.75" font-family="Times,serif" font-size="14.00">↻</text>
<text text-anchor="middle" x="165.94" y="-173.06" font-family="Times,serif" font-size="8.00"> &#160;In 2&#45;4 &#160;</text>
<text text-anchor="middle" x="168.44" y="-146.04" font-family="Times,serif" font-size="8.00"> &#160;Out 1&#45;3 &#160;</text>
</g>
<!-- output_1 -->
<g id="node3" class="node">
<title>output_1</title>
<ellipse fill="#ff9999" stroke="black" cx="85" cy="-310.94" rx="59.29" ry="45.92"/>
<text text-anchor="start" x="59" y="-326.74" font-family="Times,serif" font-weight="bold" font-size="14.00">output_1</text>
<text text-anchor="start" x="53" y="-306.74" font-family="Times,serif" font-size="14.00">(1, 4), 16 B</text>
<text text-anchor="start" x="61" y="-287.74" font-family="Times,serif" font-size="14.00">@output</text>
</g>
<!-- relu_1_1&#45;&gt;output_1 -->
<g id="edge2" class="edge">
<title>relu_1_1&#45;&gt;output_1</title>
<path fill="none" stroke="black" d="M85,-194.45C85,-212.47 85,-235.45 85,-256.16"/>
<polygon fill="black" stroke="black" points="82.55,-256.06 85,-263.06 87.45,-256.06 82.55,-256.06"/>
<text text-anchor="middle" x="71" y="-197.05" font-family="Times,serif" font-size="8.00"> &#160;Out 4 &#160;</text>
</g>
</g>
</svg>
