<?xml version="1.0" encoding="UTF-8" standalone="no"?>
<!DOCTYPE svg PUBLIC "-//W3C//DTD SVG 1.1//EN"
 "http://www.w3.org/Graphics/SVG/1.1/DTD/svg11.dtd">
<!-- Generated by graphviz version 7.0.5 (20221231.0122)
 -->
<!-- Title: RNNCellLoop Pages: 1 -->
<svg width="227pt" height="453pt"
 viewBox="0.00 0.00 227.00 452.85" xmlns="http://www.w3.org/2000/svg" xmlns:xlink="http://www.w3.org/1999/xlink">
<g id="graph0" class="graph" transform="scale(1 1) rotate(0) translate(4 448.85)">
<title>RNNCellLoop</title>
<polygon fill="white" stroke="none" points="-4,4 -4,-448.85 223,-448.85 223,4 -4,4"/>
<text text-anchor="start" x="8" y="-430.65" font-family="Times,serif" font-weight="bold" font-size="14.00">RNNCellLoop</text>
<text text-anchor="start" x="8" y="-416.65" font-family="Times,serif" font-size="14.00">6 tensors total (96 B)</text>
<text text-anchor="start" x="8" y="-402.65" font-family="Times,serif" font-size="14.00">16 params (all trainable, 64 B)</text>
<g id="clust2" class="cluster">
<title>cluster_cell</title>
<polygon fill="white" stroke="black" stroke-width="5" points="8,-120.92 8,-275.92 211,-275.92 211,-120.92 8,-120.92"/>
<text text-anchor="start" x="16" y="-261.72" font-family="Times,serif" font-weight="bold" font-size="14.00">@cell (x4)</text>
<text text-anchor="start" x="16" y="-247.72" font-family="Times,serif" font-size="14.00">(Linear)</text>
</g>
<!-- input_1 -->
<g id="node1" class="node">
<title>input_1</title>
<ellipse fill="#98fb98" stroke="black" cx="94" cy="-45.96" rx="59.29" ry="45.92"/>
<text text-anchor="start" x="71.5" y="-61.76" font-family="Times,serif" font-weight="bold" font-size="14.00">input_1</text>
<text text-anchor="start" x="62" y="-41.76" font-family="Times,serif" font-size="14.00">(1, 4), 16 B</text>
<text text-anchor="start" x="68" y="-22.76" font-family="Times,serif" font-size="14.00">@input.x</text>
</g>
<!-- cell -->
<g id="node2" class="node">
<title>cell</title>
<g id="a_node2"><a xlink:title="TorchLens rolling: module_calls=1&#45;4">
<polygon fill="#d9d9d9" stroke="black" points="171.5,-231.92 20.5,-231.92 16.5,-227.92 16.5,-128.92 167.5,-128.92 171.5,-132.92 171.5,-231.92"/>
<polyline fill="none" stroke="black" points="167.5,-227.92 16.5,-227.92"/>
<polyline fill="none" stroke="black" points="167.5,-227.92 167.5,-128.92"/>
<polyline fill="none" stroke="black" points="167.5,-227.92 171.5,-231.92"/>
<text text-anchor="start" x="65" y="-215.22" font-family="Times,serif" font-weight="bold" font-size="14.00">@cell (x4)</text>
<text text-anchor="start" x="76.5" y="-195.22" font-family="Times,serif" font-size="14.00">Linear</text>
<text text-anchor="start" x="62.5" y="-176.22" font-family="Times,serif" font-size="14.00">(1, 4), 16 B</text>
<text text-anchor="start" x="59" y="-157.22" font-family="Times,serif" font-size="14.00">1 layers total</text>
<text text-anchor="start" x="27" y="-138.22" font-family="Times,serif" font-size="14.00">16 params (all trainable)</text>
</a>
</g>
</g>
<!-- input_1&#45;&gt;cell -->
<g id="edge1" class="edge">
<title>input_1&#45;&gt;cell</title>
<path fill="none" stroke="black" d="M94,-92.18C94,-101.13 94,-110.65 94,-119.99"/>
<polygon fill="black" stroke="black" points="91.55,-119.98 94,-126.98 96.45,-119.98 91.55,-119.98"/>
<text text-anchor="middle" x="83" y="-122.1" font-family="Times,serif" font-size="8.00"> &#160;In 1 &#160;</text>
</g>
<!-- cell&#45;&gt;cell -->
<g id="edge3" class="edge">
<title>cell&#45;&gt;cell</title>
<g id="a_edge3"><a xlink:title="TorchLens recurrence: endpoint=linear_1_1&#45;&gt;linear_1_1@cell; pass_pairs=1&#45;&gt;2,2&#45;&gt;3,3&#45;&gt;4; count=3">
<path fill="none" stroke="black" stroke-width="2" d="M171.94,-168.78C182.48,-170.73 189.5,-174.61 189.5,-180.42 189.5,-184.6 185.87,-187.78 179.92,-189.96"/>
<polygon fill="black" stroke="black" stroke-width="2" points="181.01,-187.14 174.87,-191.3 182.26,-191.88 181.01,-187.14"/>
</a>
</g>
<text text-anchor="middle" x="196" y="-176.72" font-family="Times,serif" font-size="14.00">↻</text>
<text text-anchor="middle" x="186.44" y="-194.67" font-family="Times,serif" font-size="8.00"> &#160;In 2&#45;4 &#160;</text>
<text text-anchor="middle" x="188.94" y="-162.38" font-family="Times,serif" font-size="8.00"> &#160;Out 1&#45;3 &#160;</text>
</g>
<!-- output_1 -->
<g id="node3" class="node">
<title>output_1</title>
<ellipse fill="#ff9999" stroke="black" cx="94" cy="-348.89" rx="59.29" ry="45.92"/>
<text text-anchor="start" x="68" y="-364.69" font-family="Times,serif" font-weight="bold" font-size="14.00">output_1</text>
<text text-anchor="start" x="62" y="-344.69" font-family="Times,serif" font-size="14.00">(1, 4), 16 B</text>
<text text-anchor="start" x="70" y="-325.69" font-family="Times,serif" font-size="14.00">@output</text>
</g>
<!-- cell&#45;&gt;output_1 -->
<g id="edge2" class="edge">
<title>cell&#45;&gt;output_1</title>
<path fill="none" stroke="black" d="M94,-232.27C94,-251.93 94,-274.45 94,-294.36"/>
<polygon fill="black" stroke="black" points="91.55,-294.2 94,-301.2 96.45,-294.2 91.55,-294.2"/>
<text text-anchor="middle" x="80" y="-234.87" font-family="Times,serif" font-size="8.00"> &#160;Out 4 &#160;</text>
</g>
</g>
</svg>
