<?xml version="1.0" encoding="UTF-8" standalone="no"?>
<!DOCTYPE svg PUBLIC "-//W3C//DTD SVG 1.1//EN"
 "http://www.w3.org/Graphics/SVG/1.1/DTD/svg11.dtd">
<!-- Generated by graphviz version 7.0.5 (20221231.0122)
 -->
<!-- Title: TwoDistinctLoops Pages: 1 -->
<svg width="201pt" height="619pt"
 viewBox="0.00 0.00 200.90 618.96" xmlns="http://www.w3.org/2000/svg" xmlns:xlink="http://www.w3.org/1999/xlink">
<g id="graph0" class="graph" transform="scale(1 1) rotate(0) translate(4 614.96)">
<title>TwoDistinctLoops</title>
<polygon fill="white" stroke="none" points="-4,4 -4,-614.96 196.9,-614.96 196.9,4 -4,4"/>
<text text-anchor="start" x="8" y="-596.76" font-family="Times,serif" font-weight="bold" font-size="14.00">TwoDistinctLoops</text>
<text text-anchor="start" x="8" y="-582.76" font-family="Times,serif" font-size="14.00">9 tensors total (144 B)</text>
<text text-anchor="start" x="8" y="-568.76" font-family="Times,serif" font-size="14.00">16 params (all trainable, 64 B)</text>
<!-- input_1 -->
<g id="node1" class="node">
<title>input_1</title>
<ellipse fill="#98fb98" stroke="black" cx="89.5" cy="-45.96" rx="59.29" ry="45.92"/>
<text text-anchor="start" x="67" y="-61.76" font-family="Times,serif" font-weight="bold" font-size="14.00">input_1</text>
<text text-anchor="start" x="57.5" y="-41.76" font-family="Times,serif" font-size="14.00">(1, 4), 16 B</text>
<text text-anchor="start" x="63.5" y="-22.76" font-family="Times,serif" font-size="14.00">@input.x</text>
</g>
<!-- shared -->
<g id="node2" class="node">
<title>shared</title>
<g id="a_node2"><a xlink:title="TorchLens rolling: module_calls=1&#45;5; partition=1&#45;2,3&#45;5">
<polygon fill="#d9d9d9" stroke="black" points="179,-331.98 4,-331.98 0,-327.98 0,-228.98 175,-228.98 179,-232.98 179,-331.98"/>
<polyline fill="none" stroke="black" points="175,-327.98 0,-327.98"/>
<polyline fill="none" stroke="black" points="175,-327.98 175,-228.98"/>
<polyline fill="none" stroke="black" points="175,-327.98 179,-331.98"/>
<text text-anchor="start" x="10.5" y="-315.28" font-family="Times,serif" font-weight="bold" font-size="14.00">@shared (x5 · calls 1&#45;2,3&#45;5)</text>
<text text-anchor="start" x="72" y="-295.28" font-family="Times,serif" font-size="14.00">Linear</text>
<text text-anchor="start" x="58" y="-276.28" font-family="Times,serif" font-size="14.00">(1, 4), 16 B</text>
<text text-anchor="start" x="54.5" y="-257.28" font-family="Times,serif" font-size="14.00">1 layers total</text>
<text text-anchor="start" x="22.5" y="-238.28" font-family="Times,serif" font-size="14.00">16 params (all trainable)</text>
</a>
</g>
</g>
<!-- input_1&#45;&gt;shared -->
<g id="edge1" class="edge">
<title>input_1&#45;&gt;shared</title>
<path fill="none" stroke="black" d="M74.08,-90.57C70.54,-102.52 67.29,-115.59 65.5,-127.92 61.35,-156.54 61.6,-164.33 65.5,-192.98 66.74,-202.05 68.67,-211.52 70.92,-220.73"/>
<polygon fill="black" stroke="black" points="68.48,-221.09 72.59,-227.26 73.23,-219.87 68.48,-221.09"/>
<text text-anchor="middle" x="61.96" y="-222.33" font-family="Times,serif" font-size="8.00"> &#160;In 1 &#160;</text>
</g>
<!-- add_1_2 -->
<g id="node3" class="node">
<title>add_1_2</title>
<ellipse fill="white" stroke="black" cx="133.5" cy="-160.45" rx="59.29" ry="32.55"/>
<text text-anchor="start" x="109" y="-167.25" font-family="Times,serif" font-weight="bold" font-size="14.00">add_1_3</text>
<text text-anchor="start" x="101.5" y="-147.25" font-family="Times,serif" font-size="14.00">(1, 4), 16 B</text>
</g>
<!-- input_1&#45;&gt;add_1_2 -->
<g id="edge2" class="edge">
<title>input_1&#45;&gt;add_1_2</title>
<path fill="none" stroke="black" d="M106.51,-90.45C110.37,-100.31 114.44,-110.71 118.21,-120.37"/>
<polygon fill="black" stroke="black" points="115.92,-121.24 120.76,-126.87 120.49,-119.46 115.92,-121.24"/>
</g>
<!-- add_2_3 -->
<g id="node4" class="node">
<title>add_2_3</title>
<ellipse fill="white" stroke="black" cx="89.5" cy="-400.5" rx="59.29" ry="32.55"/>
<text text-anchor="start" x="65" y="-407.3" font-family="Times,serif" font-weight="bold" font-size="14.00">add_2_7</text>
<text text-anchor="start" x="57.5" y="-387.3" font-family="Times,serif" font-size="14.00">(1, 4), 16 B</text>
</g>
<!-- shared&#45;&gt;add_2_3 -->
<g id="edge3" class="edge">
<title>shared&#45;&gt;add_2_3</title>
<path fill="none" stroke="black" d="M89.5,-332.22C89.5,-341.21 89.5,-350.47 89.5,-359.13"/>
<polygon fill="black" stroke="black" points="87.05,-359.05 89.5,-366.05 91.95,-359.05 87.05,-359.05"/>
<text text-anchor="middle" x="72.5" y="-334.82" font-family="Times,serif" font-size="8.00"> &#160;Out 2,5 &#160;</text>
</g>
<!-- add_1_2&#45;&gt;shared -->
<g id="edge4" class="edge">
<title>add_1_2&#45;&gt;shared</title>
<path fill="none" stroke="black" d="M121.82,-192.77C118.57,-201.5 114.93,-211.28 111.29,-221.03"/>
<polygon fill="black" stroke="black" points="109.06,-220 108.91,-227.41 113.65,-221.71 109.06,-220"/>
<text text-anchor="middle" x="97.38" y="-222.43" font-family="Times,serif" font-size="8.00"> &#160;In 3 &#160;</text>
</g>
<!-- output_1 -->
<g id="node5" class="node">
<title>output_1</title>
<ellipse fill="#ff9999" stroke="black" cx="89.5" cy="-514.99" rx="59.29" ry="45.92"/>
<text text-anchor="start" x="63.5" y="-530.79" font-family="Times,serif" font-weight="bold" font-size="14.00">output_1</text>
<text text-anchor="start" x="57.5" y="-510.79" font-family="Times,serif" font-size="14.00">(1, 4), 16 B</text>
<text text-anchor="start" x="65.5" y="-491.79" font-family="Times,serif" font-size="14.00">@output</text>
</g>
<!-- add_2_3&#45;&gt;output_1 -->
<g id="edge5" class="edge">
<title>add_2_3&#45;&gt;output_1</title>
<path fill="none" stroke="black" d="M89.5,-433.44C89.5,-441.89 89.5,-451.25 89.5,-460.52"/>
<polygon fill="black" stroke="black" points="87.05,-460.45 89.5,-467.45 91.95,-460.45 87.05,-460.45"/>
</g>
</g>
</svg>
