<?xml version="1.0" encoding="UTF-8" standalone="no"?>
<!DOCTYPE svg PUBLIC "-//W3C//DTD SVG 1.1//EN"
 "http://www.w3.org/Graphics/SVG/1.1/DTD/svg11.dtd">
<!-- Generated by graphviz version 7.0.5 (20221231.0122)
 -->
<!-- Title: WrappedTwoSiteLoop Pages: 1 -->
<svg width="349pt" height="519pt"
 viewBox="0.00 0.00 349.00 518.64" xmlns="http://www.w3.org/2000/svg" xmlns:xlink="http://www.w3.org/1999/xlink">
<g id="graph0" class="graph" transform="scale(1 1) rotate(0) translate(4 514.64)">
<title>WrappedTwoSiteLoop</title>
<polygon fill="white" stroke="none" points="-4,4 -4,-514.64 345,-514.64 345,4 -4,4"/>
<text text-anchor="start" x="8" y="-496.44" font-family="Times,serif" font-weight="bold" font-size="14.00">WrappedTwoSiteLoop</text>
<text text-anchor="start" x="8" y="-482.44" font-family="Times,serif" font-size="14.00">8 tensors total (128 B)</text>
<text text-anchor="start" x="8" y="-468.44" font-family="Times,serif" font-size="14.00">16 params (all trainable, 64 B)</text>
<g id="clust2" class="cluster">
<title>cluster_block</title>
<polygon fill="white" stroke="black" stroke-width="5" points="8,-118.92 8,-341.72 333,-341.72 333,-118.92 8,-118.92"/>
<text text-anchor="start" x="16" y="-327.52" font-family="Times,serif" font-weight="bold" font-size="14.00">@block (x3)</text>
<text text-anchor="start" x="16" y="-313.52" font-family="Times,serif" font-size="14.00">(TwoLinearBlock)</text>
</g>
<g id="clust3" class="cluster">
<title>cluster_block.lin</title>
<polygon fill="white" stroke="black" stroke-width="3.5" points="16,-126.92 16,-297.72 325,-297.72 325,-126.92 16,-126.92"/>
<text text-anchor="start" x="24" y="-283.52" font-family="Times,serif" font-weight="bold" font-size="14.00">@block.lin (x6)</text>
<text text-anchor="start" x="24" y="-269.52" font-family="Times,serif" font-size="14.00">(Linear)</text>
</g>
<!-- input_1 -->
<g id="node1" class="node">
<title>input_1</title>
<ellipse fill="#98fb98" stroke="black" cx="155" cy="-45.96" rx="59.29" ry="45.92"/>
<text text-anchor="start" x="132.5" y="-61.76" font-family="Times,serif" font-weight="bold" font-size="14.00">input_1</text>
<text text-anchor="start" x="123" y="-41.76" font-family="Times,serif" font-size="14.00">(1, 4), 16 B</text>
<text text-anchor="start" x="129" y="-22.76" font-family="Times,serif" font-size="14.00">@input.x</text>
</g>
<!-- linear_1_1 -->
<g id="node2" class="node">
<title>linear_1_1</title>
<g id="a_node2"><a xlink:title="TorchLens rolling: facet=chain; sites=2; certified_multiplier=3">
<ellipse fill="#d9d9d9" stroke="black" cx="155" cy="-194.32" rx="130.63" ry="59.29"/>
<text text-anchor="start" x="79" y="-220.12" font-family="Times,serif" font-weight="bold" font-size="14.00">linear_1_1 (x6 · 2 sites ×3)</text>
<text text-anchor="start" x="123.5" y="-200.12" font-family="Times,serif" font-size="14.00">(1, 4), 16 B</text>
<text text-anchor="start" x="73" y="-181.12" font-family="Times,serif" font-size="14.00">in_features=4, out_features=4</text>
<text text-anchor="start" x="96.5" y="-162.12" font-family="Times,serif" font-size="14.00">params: weight (4, 4)</text>
</a>
</g>
</g>
<!-- input_1&#45;&gt;linear_1_1 -->
<g id="edge1" class="edge">
<title>input_1&#45;&gt;linear_1_1</title>
<path fill="none" stroke="black" d="M155,-92.07C155,-102.88 155,-114.66 155,-126.23"/>
<polygon fill="black" stroke="black" points="152.55,-126.09 155,-133.09 157.45,-126.09 152.55,-126.09"/>
<text text-anchor="middle" x="144" y="-128.21" font-family="Times,serif" font-size="8.00"> &#160;In 1 &#160;</text>
</g>
<!-- linear_1_1&#45;&gt;linear_1_1 -->
<g id="edge3" class="edge">
<title>linear_1_1&#45;&gt;linear_1_1</title>
<g id="a_edge3"><a xlink:title="TorchLens recurrence: endpoint=linear_1_1; pass_pairs=1&#45;&gt;2,2&#45;&gt;3,3&#45;&gt;4,4&#45;&gt;5,5&#45;&gt;6; count=5; chains=1&#45;&gt;2&#45;&gt;3&#45;&gt;4&#45;&gt;5&#45;&gt;6">
<path fill="none" stroke="black" stroke-width="2" d="M283.06,-181.49C295.75,-184.06 303.81,-188.34 303.81,-194.32 303.81,-198.9 299.09,-202.48 291.18,-205.06"/>
<polygon fill="black" stroke="black" stroke-width="2" points="292.16,-202.28 286,-206.39 293.39,-207.02 292.16,-202.28"/>
</a>
</g>
<text text-anchor="middle" x="310.31" y="-190.62" font-family="Times,serif" font-size="14.00">↻</text>
<text text-anchor="middle" x="297.56" y="-209.75" font-family="Times,serif" font-size="8.00"> &#160;In 2&#45;6 &#160;</text>
<text text-anchor="middle" x="300.06" y="-175.09" font-family="Times,serif" font-size="8.00"> &#160;Out 1&#45;5 &#160;</text>
</g>
<!-- output_1 -->
<g id="node3" class="node">
<title>output_1</title>
<ellipse fill="#ff9999" stroke="black" cx="155" cy="-414.68" rx="59.29" ry="45.92"/>
<text text-anchor="start" x="129" y="-430.48" font-family="Times,serif" font-weight="bold" font-size="14.00">output_1</text>
<text text-anchor="start" x="123" y="-410.48" font-family="Times,serif" font-size="14.00">(1, 4), 16 B</text>
<text text-anchor="start" x="131" y="-391.48" font-family="Times,serif" font-size="14.00">@output</text>
</g>
<!-- linear_1_1&#45;&gt;output_1 -->
<g id="edge2" class="edge">
<title>linear_1_1&#45;&gt;output_1</title>
<path fill="none" stroke="black" d="M155,-253.84C155,-286.89 155,-327.9 155,-360.1"/>
<polygon fill="black" stroke="black" points="152.55,-360 155,-367 157.45,-360 152.55,-360"/>
<text text-anchor="middle" x="141" y="-256.44" font-family="Times,serif" font-size="8.00"> &#160;Out 6 &#160;</text>
</g>
</g>
</svg>
