<?xml version="1.0" encoding="UTF-8" standalone="no"?>
<!DOCTYPE svg PUBLIC "-//W3C//DTD SVG 1.1//EN"
 "http://www.w3.org/Graphics/SVG/1.1/DTD/svg11.dtd">
<!-- Generated by graphviz version 7.0.5 (20221231.0122)
 -->
<!-- Title: ResNet Pages: 1 -->
<svg width="481pt" height="1495pt"
 viewBox="0.00 0.00 481.00 1494.90" xmlns="http://www.w3.org/2000/svg" xmlns:xlink="http://www.w3.org/1999/xlink">
<g id="graph0" class="graph" transform="scale(1 1) rotate(0) translate(4 1490.9)">
<title>ResNet</title>
<polygon fill="white" stroke="none" points="-4,4 -4,-1490.9 477,-1490.9 477,4 -4,4"/>
<text text-anchor="start" x="8" y="-1472.7" font-family="Times,serif" font-weight="bold" font-size="14.00">ResNet</text>
<text text-anchor="start" x="8" y="-1458.7" font-family="Times,serif" font-size="14.00">389 tensors total (12.2 MB)</text>
<text text-anchor="start" x="8" y="-1444.7" font-family="Times,serif" font-size="14.00">25557032 params (all trainable, 97.5 MB)</text>
<!-- input_1pass1 -->
<g id="node1" class="node">
<title>input_1pass1</title>
<ellipse fill="#98fb98" stroke="black" cx="236.5" cy="-45.96" rx="103.89" ry="45.92"/>
<text text-anchor="start" x="214.5" y="-61.76" font-family="Times,serif" font-weight="bold" font-size="14.00">input_1</text>
<text text-anchor="start" x="173.5" y="-41.76" font-family="Times,serif" font-size="14.00">(1, 3, 64, 64), 48.0 KB</text>
<text text-anchor="start" x="211" y="-22.76" font-family="Times,serif" font-size="14.00">@input.x</text>
</g>
<!-- conv2d_1_1pass1 -->
<g id="node2" class="node">
<title>conv2d_1_1pass1</title>
<polygon fill="#d9d9d9" stroke="black" points="473,-230.92 0,-230.92 0,-127.92 473,-127.92 473,-230.92"/>
<text text-anchor="start" x="202.5" y="-214.22" font-family="Times,serif" font-weight="bold" font-size="14.00">conv2d_1_1</text>
<text text-anchor="start" x="167" y="-194.22" font-family="Times,serif" font-size="14.00">(1, 64, 32, 32), 256.0 KB</text>
<text text-anchor="start" x="10.5" y="-175.22" font-family="Times,serif" font-size="14.00">in_channels=3, out_channels=64, kernel_size=(7, 7), stride=(2, 2), padding=(3, 3)</text>
<text text-anchor="start" x="160" y="-156.22" font-family="Times,serif" font-size="14.00">params: weight (64, 3, 7, 7)</text>
<text text-anchor="start" x="214" y="-137.22" font-family="Times,serif" font-size="14.00">@conv1</text>
</g>
<!-- input_1pass1&#45;&gt;conv2d_1_1pass1 -->
<g id="edge1" class="edge">
<title>input_1pass1&#45;&gt;conv2d_1_1pass1</title>
<path fill="none" stroke="black" d="M236.5,-92.2C236.5,-100.96 236.5,-110.26 236.5,-119.38"/>
<polygon fill="black" stroke="black" points="234.05,-119.17 236.5,-126.17 238.95,-119.17 234.05,-119.17"/>
</g>
<!-- batchnorm_1_2pass1 -->
<g id="node3" class="node">
<title>batchnorm_1_2pass1</title>
<g id="a_node3"><a xlink:title="Hidden buffers: bn1.running_mean, bn1.running_var">
<polygon fill="#d9d9d9" stroke="black" points="335.5,-373.92 137.5,-373.92 137.5,-270.92 335.5,-270.92 335.5,-373.92"/>
<polygon fill="none" stroke="black" points="339.5,-377.92 133.5,-377.92 133.5,-266.92 339.5,-266.92 339.5,-377.92"/>
<text text-anchor="start" x="190.5" y="-357.22" font-family="Times,serif" font-weight="bold" font-size="14.00">batchnorm_1_2</text>
<text text-anchor="start" x="166.5" y="-337.22" font-family="Times,serif" font-size="14.00">(1, 64, 32, 32), 256.0 KB</text>
<text text-anchor="start" x="159.5" y="-318.22" font-family="Times,serif" font-size="14.00">eps=1e&#45;05, momentum=0.1</text>
<text text-anchor="start" x="147.5" y="-299.22" font-family="Times,serif" font-size="14.00">params: weight (64,) · bias (64,)</text>
<text text-anchor="start" x="219.5" y="-280.22" font-family="Times,serif" font-size="14.00">@bn1</text>
</a>
</g>
</g>
<!-- conv2d_1_1pass1&#45;&gt;batchnorm_1_2pass1 -->
<g id="edge2" class="edge">
<title>conv2d_1_1pass1&#45;&gt;batchnorm_1_2pass1</title>
<path fill="none" stroke="black" d="M236.5,-231.33C236.5,-240.15 236.5,-249.41 236.5,-258.5"/>
<polygon fill="black" stroke="black" points="234.05,-258.27 236.5,-265.27 238.95,-258.27 234.05,-258.27"/>
</g>
<!-- relu_1_3pass1 -->
<g id="node4" class="node">
<title>relu_1_3pass1</title>
<polygon fill="white" stroke="black" points="316.5,-478.92 156.5,-478.92 156.5,-413.92 316.5,-413.92 316.5,-478.92"/>
<text text-anchor="start" x="211" y="-462.22" font-family="Times,serif" font-weight="bold" font-size="14.00">relu_1_3</text>
<text text-anchor="start" x="166.5" y="-442.22" font-family="Times,serif" font-size="14.00">(1, 64, 32, 32), 256.0 KB</text>
<text text-anchor="start" x="219.5" y="-423.22" font-family="Times,serif" font-size="14.00">@relu</text>
</g>
<!-- batchnorm_1_2pass1&#45;&gt;relu_1_3pass1 -->
<g id="edge3" class="edge">
<title>batchnorm_1_2pass1&#45;&gt;relu_1_3pass1</title>
<path fill="none" stroke="black" d="M236.5,-378.36C236.5,-387.37 236.5,-396.56 236.5,-405.13"/>
<polygon fill="black" stroke="black" points="234.05,-404.95 236.5,-411.95 238.95,-404.95 234.05,-404.95"/>
</g>
<!-- maxpool2d_1_4pass1 -->
<g id="node5" class="node">
<title>maxpool2d_1_4pass1</title>
<polygon fill="white" stroke="black" points="344.5,-598.92 128.5,-598.92 128.5,-514.92 344.5,-514.92 344.5,-598.92"/>
<text text-anchor="start" x="190.5" y="-582.72" font-family="Times,serif" font-weight="bold" font-size="14.00">maxpool2d_1_4</text>
<text text-anchor="start" x="170" y="-562.72" font-family="Times,serif" font-size="14.00">(1, 64, 16, 16), 64.0 KB</text>
<text text-anchor="start" x="138.5" y="-543.72" font-family="Times,serif" font-size="14.00">kernel_size=3, stride=2, padding=1</text>
<text text-anchor="start" x="206" y="-524.72" font-family="Times,serif" font-size="14.00">@maxpool</text>
</g>
<!-- relu_1_3pass1&#45;&gt;maxpool2d_1_4pass1 -->
<g id="edge4" class="edge">
<title>relu_1_3pass1&#45;&gt;maxpool2d_1_4pass1</title>
<path fill="none" stroke="black" d="M236.5,-479.39C236.5,-487.81 236.5,-497.1 236.5,-506.22"/>
<polygon fill="black" stroke="black" points="234.05,-506 236.5,-513 238.95,-506 234.05,-506"/>
</g>
<!-- layer1__segment__layer2pass1 -->
<g id="node6" class="node">
<title>layer1__segment__layer2pass1</title>
<path fill="#f7f7f7" stroke="#666666" stroke-dasharray="5,2" d="M373.5,-670.92C373.5,-670.92 99.5,-670.92 99.5,-670.92 93.5,-670.92 87.5,-664.92 87.5,-658.92 87.5,-658.92 87.5,-646.92 87.5,-646.92 87.5,-640.92 93.5,-634.92 99.5,-634.92 99.5,-634.92 373.5,-634.92 373.5,-634.92 379.5,-634.92 385.5,-640.92 385.5,-646.92 385.5,-646.92 385.5,-658.92 385.5,-658.92 385.5,-664.92 379.5,-670.92 373.5,-670.92"/>
<text text-anchor="start" x="97.5" y="-649.72" font-family="Times,serif" font-weight="bold" font-size="14.00" fill="#222222">layer1&#45;layer2 &#45;&#45; 2 blocks, 166 ops, 1.4M params</text>
</g>
<!-- maxpool2d_1_4pass1&#45;&gt;layer1__segment__layer2pass1 -->
<g id="edge5" class="edge">
<title>maxpool2d_1_4pass1&#45;&gt;layer1__segment__layer2pass1</title>
<path fill="none" stroke="black" d="M236.5,-599.15C236.5,-608.38 236.5,-617.91 236.5,-626.28"/>
<polygon fill="black" stroke="black" points="234.05,-626.02 236.5,-633.02 238.95,-626.02 234.05,-626.02"/>
</g>
<!-- layer3pass1 -->
<g id="node7" class="node">
<title>layer3pass1</title>
<polygon fill="#d9d9d9" stroke="black" points="331,-809.92 146,-809.92 142,-805.92 142,-706.92 327,-706.92 331,-710.92 331,-809.92"/>
<polyline fill="none" stroke="black" points="327,-805.92 142,-805.92"/>
<polyline fill="none" stroke="black" points="327,-805.92 327,-706.92"/>
<polyline fill="none" stroke="black" points="327,-805.92 331,-809.92"/>
<text text-anchor="start" x="212.5" y="-793.22" font-family="Times,serif" font-weight="bold" font-size="14.00">@layer3</text>
<text text-anchor="start" x="208" y="-773.22" font-family="Times,serif" font-size="14.00">Sequential</text>
<text text-anchor="start" x="170.5" y="-754.22" font-family="Times,serif" font-size="14.00">(1, 1024, 4, 4), 64.0 KB</text>
<text text-anchor="start" x="194.5" y="-735.22" font-family="Times,serif" font-size="14.00">138 layers total</text>
<text text-anchor="start" x="152.5" y="-716.22" font-family="Times,serif" font-size="14.00">7098368 params (all trainable)</text>
</g>
<!-- layer1__segment__layer2pass1&#45;&gt;layer3pass1 -->
<g id="edge6" class="edge">
<title>layer1__segment__layer2pass1&#45;&gt;layer3pass1</title>
<path fill="none" stroke="black" d="M236.5,-671.01C236.5,-678.73 236.5,-688.35 236.5,-698.34"/>
<polygon fill="black" stroke="black" points="234.05,-698.27 236.5,-705.27 238.95,-698.27 234.05,-698.27"/>
</g>
<!-- layer4pass1 -->
<g id="node8" class="node">
<title>layer4pass1</title>
<polygon fill="#d9d9d9" stroke="black" points="334,-948.92 143,-948.92 139,-944.92 139,-845.92 330,-845.92 334,-849.92 334,-948.92"/>
<polyline fill="none" stroke="black" points="330,-944.92 139,-944.92"/>
<polyline fill="none" stroke="black" points="330,-944.92 330,-845.92"/>
<polyline fill="none" stroke="black" points="330,-944.92 334,-948.92"/>
<text text-anchor="start" x="212.5" y="-932.22" font-family="Times,serif" font-weight="bold" font-size="14.00">@layer4</text>
<text text-anchor="start" x="208" y="-912.22" font-family="Times,serif" font-size="14.00">Sequential</text>
<text text-anchor="start" x="170.5" y="-893.22" font-family="Times,serif" font-size="14.00">(1, 2048, 2, 2), 32.0 KB</text>
<text text-anchor="start" x="198" y="-874.22" font-family="Times,serif" font-size="14.00">72 layers total</text>
<text text-anchor="start" x="149.5" y="-855.22" font-family="Times,serif" font-size="14.00">14964736 params (all trainable)</text>
</g>
<!-- layer3pass1&#45;&gt;layer4pass1 -->
<g id="edge7" class="edge">
<title>layer3pass1&#45;&gt;layer4pass1</title>
<path fill="none" stroke="black" d="M236.5,-810.05C236.5,-818.92 236.5,-828.22 236.5,-837.3"/>
<polygon fill="black" stroke="black" points="234.05,-837.04 236.5,-844.04 238.95,-837.04 234.05,-837.04"/>
</g>
<!-- adaptiveavgpool2d_1_173pass1 -->
<g id="node9" class="node">
<title>adaptiveavgpool2d_1_173pass1</title>
<polygon fill="white" stroke="black" points="321.5,-1068.92 151.5,-1068.92 151.5,-984.92 321.5,-984.92 321.5,-1068.92"/>
<text text-anchor="start" x="161.5" y="-1052.72" font-family="Times,serif" font-weight="bold" font-size="14.00">adaptiveavgpool2d_1_173</text>
<text text-anchor="start" x="173" y="-1032.72" font-family="Times,serif" font-size="14.00">(1, 2048, 1, 1), 8.0 KB</text>
<text text-anchor="start" x="186" y="-1013.72" font-family="Times,serif" font-size="14.00">output_size=(1, 1)</text>
<text text-anchor="start" x="208" y="-994.72" font-family="Times,serif" font-size="14.00">@avgpool</text>
</g>
<!-- layer4pass1&#45;&gt;adaptiveavgpool2d_1_173pass1 -->
<g id="edge8" class="edge">
<title>layer4pass1&#45;&gt;adaptiveavgpool2d_1_173pass1</title>
<path fill="none" stroke="black" d="M236.5,-949.18C236.5,-958.13 236.5,-967.43 236.5,-976.34"/>
<polygon fill="black" stroke="black" points="234.05,-976.23 236.5,-983.23 238.95,-976.23 234.05,-976.23"/>
</g>
<!-- flatten_1_174pass1 -->
<g id="node10" class="node">
<title>flatten_1_174pass1</title>
<ellipse fill="white" stroke="black" cx="236.5" cy="-1137.45" rx="83.38" ry="32.55"/>
<text text-anchor="start" x="197" y="-1144.25" font-family="Times,serif" font-weight="bold" font-size="14.00">flatten_1_174</text>
<text text-anchor="start" x="187.5" y="-1124.25" font-family="Times,serif" font-size="14.00">(1, 2048), 8.0 KB</text>
</g>
<!-- adaptiveavgpool2d_1_173pass1&#45;&gt;flatten_1_174pass1 -->
<g id="edge9" class="edge">
<title>adaptiveavgpool2d_1_173pass1&#45;&gt;flatten_1_174pass1</title>
<path fill="none" stroke="black" d="M236.5,-1069.26C236.5,-1078.16 236.5,-1087.55 236.5,-1096.4"/>
<polygon fill="black" stroke="black" points="234.05,-1096.17 236.5,-1103.17 238.95,-1096.17 234.05,-1096.17"/>
</g>
<!-- linear_1_175pass1 -->
<g id="node11" class="node">
<title>linear_1_175pass1</title>
<polygon fill="#d9d9d9" stroke="black" points="364,-1308.98 109,-1308.98 109,-1205.98 364,-1205.98 364,-1308.98"/>
<text text-anchor="start" x="199.5" y="-1292.28" font-family="Times,serif" font-weight="bold" font-size="14.00">linear_1_175</text>
<text text-anchor="start" x="188" y="-1272.28" font-family="Times,serif" font-size="14.00">(1, 1000), 3.9 KB</text>
<text text-anchor="start" x="134.5" y="-1253.28" font-family="Times,serif" font-size="14.00">in_features=2048, out_features=1000</text>
<text text-anchor="start" x="119.5" y="-1234.28" font-family="Times,serif" font-size="14.00">params: weight (1000, 2048) · bias (1000,)</text>
<text text-anchor="start" x="225" y="-1215.28" font-family="Times,serif" font-size="14.00">@fc</text>
</g>
<!-- flatten_1_174pass1&#45;&gt;linear_1_175pass1 -->
<g id="edge10" class="edge">
<title>flatten_1_174pass1&#45;&gt;linear_1_175pass1</title>
<path fill="none" stroke="black" d="M236.5,-1170.39C236.5,-1178.75 236.5,-1188.04 236.5,-1197.34"/>
<polygon fill="black" stroke="black" points="234.05,-1197.33 236.5,-1204.33 238.95,-1197.33 234.05,-1197.33"/>
</g>
<!-- output_1pass1 -->
<g id="node12" class="node">
<title>output_1pass1</title>
<ellipse fill="#ff9999" stroke="black" cx="236.5" cy="-1390.94" rx="83.38" ry="45.92"/>
<text text-anchor="start" x="210.5" y="-1406.74" font-family="Times,serif" font-weight="bold" font-size="14.00">output_1</text>
<text text-anchor="start" x="187.5" y="-1386.74" font-family="Times,serif" font-size="14.00">(1, 1000), 3.9 KB</text>
<text text-anchor="start" x="212.5" y="-1367.74" font-family="Times,serif" font-size="14.00">@output</text>
</g>
<!-- linear_1_175pass1&#45;&gt;output_1pass1 -->
<g id="edge11" class="edge">
<title>linear_1_175pass1&#45;&gt;output_1pass1</title>
<path fill="none" stroke="black" d="M236.5,-1309.3C236.5,-1318.17 236.5,-1327.43 236.5,-1336.37"/>
<polygon fill="black" stroke="black" points="234.05,-1336.31 236.5,-1343.31 238.95,-1336.31 234.05,-1336.31"/>
</g>
</g>
</svg>
